<svg width="360" height="447" viewBox="0 0 360 447" fill="none" xmlns="http://www.w3.org/2000/svg">
<path d="M120.629 283.564L85.2506 268.314C51.308 253.683 29.7617 219.787 30.9207 182.843L32.5 132.5L31.5329 102.107C30.1473 58.5567 65.0749 22.5 108.647 22.5C114.199 22.5 119.736 21.9006 125.16 20.7122L178.237 9.08297C196.306 5.12402 215.156 6.8288 232.221 13.9653L261 26C300.93 36.8633 328.328 73.5607 327.37 114.931L326.5 152.547L327.22 183.345C328.247 227.322 297.335 265.598 254.127 273.85L173.138 289.317C155.453 292.695 137.162 290.69 120.629 283.564Z" fill="black"/>
<mask id="path-2-outside-1_108_2811" maskUnits="userSpaceOnUse" x="198" y="261" width="58" height="186" fill="black">
<rect fill="white" x="198" y="261" width="58" height="186"/>
<path d="M212.575 264.167C216.463 263.27 220.227 266.093 220.497 270.074C223.649 316.632 227.287 342.651 217.535 410.291C217.351 411.567 216.858 412.773 216.122 413.807C219.45 412.938 223.13 412.454 227 412.454C241.912 412.454 254 419.618 254 428.454C254 437.291 241.912 444.454 227 444.454C212.088 444.454 200 437.291 200 428.454C200 426.176 200.804 424.01 202.252 422.049C213.385 360.042 213.231 326.218 207.594 271.148C207.261 267.899 209.393 264.901 212.575 264.167Z"/>
</mask>
<path d="M212.575 264.167C216.463 263.27 220.227 266.093 220.497 270.074C223.649 316.632 227.287 342.651 217.535 410.291C217.351 411.567 216.858 412.773 216.122 413.807C219.45 412.938 223.13 412.454 227 412.454C241.912 412.454 254 419.618 254 428.454C254 437.291 241.912 444.454 227 444.454C212.088 444.454 200 437.291 200 428.454C200 426.176 200.804 424.01 202.252 422.049C213.385 360.042 213.231 326.218 207.594 271.148C207.261 267.899 209.393 264.901 212.575 264.167Z" fill="white"/>
<path d="M212.575 264.167L212.125 262.218L212.125 262.218L212.575 264.167ZM220.497 270.074L222.493 269.939L222.493 269.939L220.497 270.074ZM217.535 410.291L215.556 410.006V410.006L217.535 410.291ZM216.122 413.807L214.493 412.647L211.298 417.134L216.627 415.742L216.122 413.807ZM202.252 422.049L203.861 423.237L204.138 422.861L204.22 422.402L202.252 422.049ZM207.594 271.148L209.583 270.945V270.945L207.594 271.148ZM212.575 264.167L213.025 266.116C215.699 265.499 218.314 267.443 218.502 270.209L220.497 270.074L222.493 269.939C222.141 264.744 217.226 261.041 212.125 262.218L212.575 264.167ZM220.497 270.074L218.502 270.209C221.654 316.761 225.275 342.594 215.556 410.006L217.535 410.291L219.515 410.576C229.299 342.708 225.645 316.504 222.493 269.939L220.497 270.074ZM217.535 410.291L215.556 410.006C215.418 410.959 215.049 411.866 214.493 412.647L216.122 413.807L217.751 414.967C218.668 413.68 219.284 412.175 219.515 410.576L217.535 410.291ZM216.122 413.807L216.627 415.742C219.784 414.917 223.294 414.454 227 414.454V412.454V410.454C222.965 410.454 219.115 410.958 215.617 411.872L216.122 413.807ZM227 412.454V414.454C234.16 414.454 240.545 416.178 245.072 418.861C249.643 421.57 252 425.027 252 428.454H254H256C256 423.045 252.312 418.502 247.111 415.42C241.867 412.312 234.752 410.454 227 410.454V412.454ZM254 428.454H252C252 431.882 249.643 435.338 245.072 438.047C240.545 440.73 234.16 442.454 227 442.454V444.454V446.454C234.752 446.454 241.867 444.596 247.111 441.488C252.312 438.406 256 433.863 256 428.454H254ZM227 444.454V442.454C219.84 442.454 213.455 440.73 208.928 438.047C204.357 435.338 202 431.882 202 428.454H200H198C198 433.863 201.688 438.406 206.889 441.488C212.133 444.596 219.248 446.454 227 446.454V444.454ZM200 428.454H202C202 426.67 202.625 424.912 203.861 423.237L202.252 422.049L200.643 420.861C198.984 423.109 198 425.682 198 428.454H200ZM202.252 422.049L204.22 422.402C215.391 360.187 215.237 326.173 209.583 270.945L207.594 271.148L205.604 271.352C211.225 326.263 211.379 359.898 200.283 421.695L202.252 422.049ZM207.594 271.148L209.583 270.945C209.353 268.693 210.831 266.622 213.025 266.116L212.575 264.167L212.125 262.218C207.955 263.181 205.169 267.106 205.604 271.352L207.594 271.148Z" fill="black" mask="url(#path-2-outside-1_108_2811)"/>
<mask id="path-4-outside-2_108_2811" maskUnits="userSpaceOnUse" x="70" y="258" width="58" height="186" fill="black">
<rect fill="white" x="70" y="258" width="58" height="186"/>
<path d="M113.425 261.167C109.537 260.27 105.773 263.093 105.503 267.074C102.351 313.632 98.713 339.651 108.465 407.291C108.649 408.567 109.142 409.773 109.878 410.807C106.55 409.938 102.87 409.454 99 409.454C84.0883 409.454 72 416.618 72 425.454C72 434.291 84.0883 441.454 99 441.454C113.912 441.454 126 434.291 126 425.454C126 423.176 125.196 421.01 123.748 419.049C112.615 357.042 112.769 323.218 118.406 268.148C118.739 264.899 116.607 261.901 113.425 261.167Z"/>
</mask>
<path d="M113.425 261.167C109.537 260.27 105.773 263.093 105.503 267.074C102.351 313.632 98.713 339.651 108.465 407.291C108.649 408.567 109.142 409.773 109.878 410.807C106.55 409.938 102.87 409.454 99 409.454C84.0883 409.454 72 416.618 72 425.454C72 434.291 84.0883 441.454 99 441.454C113.912 441.454 126 434.291 126 425.454C126 423.176 125.196 421.01 123.748 419.049C112.615 357.042 112.769 323.218 118.406 268.148C118.739 264.899 116.607 261.901 113.425 261.167Z" fill="white"/>
<path d="M113.425 261.167L113.875 259.218L113.875 259.218L113.425 261.167ZM105.503 267.074L103.507 266.939L103.507 266.939L105.503 267.074ZM108.465 407.291L110.444 407.006V407.006L108.465 407.291ZM109.878 410.807L111.507 409.647L114.702 414.134L109.373 412.742L109.878 410.807ZM123.748 419.049L122.139 420.237L121.862 419.861L121.78 419.402L123.748 419.049ZM118.406 268.148L116.417 267.945V267.945L118.406 268.148ZM113.425 261.167L112.975 263.116C110.301 262.499 107.686 264.443 107.498 267.209L105.503 267.074L103.507 266.939C103.859 261.744 108.774 258.041 113.875 259.218L113.425 261.167ZM105.503 267.074L107.498 267.209C104.346 313.761 100.725 339.594 110.444 407.006L108.465 407.291L106.485 407.576C96.7006 339.708 100.355 313.504 103.507 266.939L105.503 267.074ZM108.465 407.291L110.444 407.006C110.582 407.959 110.951 408.866 111.507 409.647L109.878 410.807L108.249 411.967C107.332 410.68 106.716 409.175 106.485 407.576L108.465 407.291ZM109.878 410.807L109.373 412.742C106.216 411.917 102.706 411.454 99 411.454V409.454V407.454C103.035 407.454 106.885 407.958 110.383 408.872L109.878 410.807ZM99 409.454V411.454C91.84 411.454 85.4551 413.178 80.9277 415.861C76.3565 418.57 74 422.027 74 425.454H72H70C70 420.045 73.6876 415.502 78.8885 412.42C84.1332 409.312 91.2483 407.454 99 407.454V409.454ZM72 425.454H74C74 428.882 76.3565 432.338 80.9277 435.047C85.4551 437.73 91.84 439.454 99 439.454V441.454V443.454C91.2483 443.454 84.1332 441.596 78.8885 438.488C73.6876 435.406 70 430.863 70 425.454H72ZM99 441.454V439.454C106.16 439.454 112.545 437.73 117.072 435.047C121.643 432.338 124 428.882 124 425.454H126H128C128 430.863 124.312 435.406 119.111 438.488C113.867 441.596 106.752 443.454 99 443.454V441.454ZM126 425.454H124C124 423.67 123.375 421.912 122.139 420.237L123.748 419.049L125.357 417.861C127.016 420.109 128 422.682 128 425.454H126ZM123.748 419.049L121.78 419.402C110.609 357.187 110.763 323.173 116.417 267.945L118.406 268.148L120.396 268.352C114.775 323.263 114.621 356.898 125.717 418.695L123.748 419.049ZM118.406 268.148L116.417 267.945C116.647 265.693 115.169 263.622 112.975 263.116L113.425 261.167L113.875 259.218C118.045 260.181 120.831 264.106 120.396 268.352L118.406 268.148Z" fill="black" mask="url(#path-4-outside-2_108_2811)"/>
<mask id="path-6-outside-3_108_2811" maskUnits="userSpaceOnUse" x="271" y="148.547" width="89" height="209" fill="black">
<rect fill="white" x="271" y="148.547" width="89" height="209"/>
<path d="M273 158.392C273 151.757 281.511 148.99 285.328 154.447C297.923 172.452 308.089 188.942 316.732 211.601C325.359 234.215 332.461 262.956 338.962 305.459C349.89 308.133 358 317.99 358 329.742C358 343.549 346.807 354.742 333 354.742C319.193 354.742 308 343.549 308 329.742C308 318.718 315.136 309.36 325.04 306.036L325.006 305.821C318.539 265.586 311.958 239.328 303.924 218.298C295.891 197.272 286.399 181.45 274.079 162.082C273.38 160.983 273 159.696 273 158.392Z"/>
</mask>
<path d="M273 158.392C273 151.757 281.511 148.99 285.328 154.447C297.923 172.452 308.089 188.942 316.732 211.601C325.359 234.215 332.461 262.956 338.962 305.459C349.89 308.133 358 317.99 358 329.742C358 343.549 346.807 354.742 333 354.742C319.193 354.742 308 343.549 308 329.742C308 318.718 315.136 309.36 325.04 306.036L325.006 305.821C318.539 265.586 311.958 239.328 303.924 218.298C295.891 197.272 286.399 181.45 274.079 162.082C273.38 160.983 273 159.696 273 158.392Z" fill="white"/>
<path d="M273 158.392L271 158.392V158.392H273ZM285.328 154.447L286.967 153.301L286.967 153.301L285.328 154.447ZM316.732 211.601L318.601 210.888V210.888L316.732 211.601ZM338.962 305.459L336.985 305.761L337.187 307.084L338.487 307.402L338.962 305.459ZM358 329.742H360V329.742H358ZM308 329.742H306V329.742H308ZM325.04 306.036L325.676 307.932L327.281 307.394L327.015 305.722L325.04 306.036ZM325.006 305.821L326.981 305.507L326.981 305.504L325.006 305.821ZM303.924 218.298L305.792 217.584V217.584L303.924 218.298ZM274.079 162.082L272.392 163.155L272.392 163.155L274.079 162.082ZM273 158.392L275 158.392C275 153.656 281.025 151.786 283.689 155.594L285.328 154.447L286.967 153.301C281.996 146.195 271 149.858 271 158.392L273 158.392ZM285.328 154.447L283.689 155.594C296.235 173.529 306.302 189.868 314.864 212.313L316.732 211.601L318.601 210.888C309.877 188.017 299.611 171.376 286.967 153.301L285.328 154.447ZM316.732 211.601L314.864 212.313C323.42 234.743 330.495 263.33 336.985 305.761L338.962 305.459L340.939 305.157C334.427 262.581 327.298 233.687 318.601 210.888L316.732 211.601ZM338.962 305.459L338.487 307.402C348.541 309.862 356 318.933 356 329.742H358H360C360 317.047 351.24 306.404 339.437 303.516L338.962 305.459ZM358 329.742H356C356 342.445 345.703 352.742 333 352.742V354.742V356.742C347.912 356.742 360 344.654 360 329.742H358ZM333 354.742V352.742C320.297 352.742 310 342.445 310 329.742H308H306C306 344.654 318.088 356.742 333 356.742V354.742ZM308 329.742H310C310 319.603 316.562 310.991 325.676 307.932L325.04 306.036L324.404 304.14C313.709 307.73 306 317.833 306 329.742H308ZM325.04 306.036L327.015 305.722L326.981 305.507L325.006 305.821L323.031 306.136L323.065 306.35L325.04 306.036ZM325.006 305.821L326.981 305.504C320.503 265.203 313.895 238.795 305.792 217.584L303.924 218.298L302.056 219.012C310.021 239.861 316.575 265.969 323.031 306.139L325.006 305.821ZM303.924 218.298L305.792 217.584C297.684 196.361 288.102 180.4 275.767 161.009L274.079 162.082L272.392 163.155C284.697 182.5 294.098 198.182 302.056 219.012L303.924 218.298ZM274.079 162.082L275.767 161.009C275.269 160.226 275 159.311 275 158.392H273H271C271 160.082 271.492 161.741 272.392 163.155L274.079 162.082Z" fill="black" mask="url(#path-6-outside-3_108_2811)"/>
<path d="M154.374 227.657L154.144 160.231C154.148 151.576 153.73 133.953 154.713 125.976L154.714 125.966C155.405 119.868 157.627 114.044 161.173 109.039L161.174 109.038C165.532 102.865 169.832 99.6239 174.723 97.5361C179.682 95.4189 185.249 94.476 192.304 92.9473L192.305 92.9482L219.998 87.0049L219.999 87.0039L274.087 75.3535C283.946 73.2294 295.07 70.5827 304.823 68.8711C309.619 68.2735 315.181 69.7667 318.927 72.7178C328.044 79.8994 328.074 91.4232 327.873 102.594C327.809 106.169 327.835 109.831 327.85 113.442L327.856 117.033L327.822 168.167L327.791 214.363V214.364C327.807 230.858 330.012 243.846 319.516 256.933C311.175 267.331 302.559 268.52 290.48 270.981L288.018 271.494L256.674 278.153H256.672L206.056 289H206.055C198.502 290.626 185.363 293.856 178.062 294.719C172.906 294.931 168.514 294.399 164.389 291.604L163.989 291.325C158.705 287.534 156.307 282.479 155.223 276.864C154.128 271.194 154.388 265.065 154.37 259.112L154.374 227.66V227.657Z" fill="white" stroke="black" stroke-width="2"/>
<path d="M281.255 187.553C282.299 186.645 283.819 186.382 285.305 186.748C286.97 187.159 287.84 187.784 288.276 188.432C288.707 189.07 288.836 189.911 288.631 191.023C288.424 192.146 287.894 193.446 287.136 194.876C286.386 196.291 285.444 197.779 284.448 199.286C266.542 224.146 229.877 235.032 203.896 216.482C202.216 215.195 200.143 213.512 199.047 211.604C198.51 210.67 198.244 209.743 198.33 208.819C198.415 207.906 198.855 206.871 199.961 205.734C200.421 205.261 201.014 204.873 201.796 204.74C202.58 204.607 203.664 204.712 205.139 205.421L205.174 205.438L205.21 205.452C207.455 206.325 209.073 207.361 210.984 208.891L210.985 208.892C216.615 213.394 223.435 215.5 230.413 216.322L230.418 216.323C245.989 218.084 262.699 209.337 273.007 198.122V198.121C274.383 196.621 275.751 194.545 277.091 192.618C278.466 190.641 279.825 188.796 281.255 187.553Z" fill="black" stroke="black" stroke-width="2"/>
<path d="M282.003 137.936C285.786 137.557 289.074 137.695 292.086 138.585C295.098 139.475 297.896 141.135 300.665 143.892L300.705 143.933L300.75 143.968C301.751 144.759 302.893 146.21 303.901 148.026C304.902 149.829 305.728 151.913 306.145 153.906C306.565 155.92 306.545 157.726 305.995 159.057C305.478 160.307 304.452 161.247 302.52 161.539H302.519C301.38 161.712 300.565 161.57 299.941 161.271C299.311 160.967 298.782 160.458 298.299 159.739C297.81 159.012 297.396 158.115 296.975 157.086C296.569 156.097 296.133 154.923 295.657 153.836C294.69 151.627 293.373 149.32 290.936 147.963C288.481 146.596 285.109 146.308 280.293 147.616L280.289 147.618L279.815 147.748L279.725 147.773L279.641 147.815C276.163 149.527 273.938 151.228 272.466 153.51C271.016 155.756 270.369 158.458 269.807 161.981C269.658 162.521 269.52 163.266 269.393 163.819C269.24 164.483 269.085 164.977 268.904 165.268V165.269C267.915 166.867 265.865 167.859 263.964 167.832C263.032 167.819 262.203 167.559 261.58 167.076C261.01 166.634 260.55 165.957 260.354 164.945L260.319 164.738C260.011 162.679 260.393 160.429 260.89 158.208C263.197 147.9 271.317 139.788 282.003 137.936Z" fill="black" stroke="black" stroke-width="2"/>
<path d="M197.931 156.488C205.485 155.903 211.148 157.461 215.183 160.712C219.211 163.958 221.758 169.007 222.852 175.705C222.788 176.923 222.464 177.574 222.048 178.021C221.575 178.53 220.899 178.881 219.892 179.358C218.345 180.065 217.259 180.224 216.486 180.118C215.747 180.017 215.181 179.656 214.682 179.06C214.16 178.436 213.733 177.578 213.315 176.536C213.109 176.021 212.912 175.482 212.708 174.922C212.506 174.367 212.296 173.792 212.07 173.229C210.555 169.444 208.195 167.039 205.181 165.961C202.2 164.895 198.744 165.187 195.122 166.442L195.066 166.462L195.013 166.487C190.905 168.48 188.479 170.738 186.988 173.533C185.524 176.28 185.018 179.455 184.551 183.112C184.501 183.501 184.444 183.796 184.34 184.041C183.825 185.255 182.715 186.251 181.43 186.771C180.136 187.296 178.84 187.274 177.927 186.724C175.438 185.223 174.86 182.043 175.501 178.247C176.13 174.522 177.873 170.683 179.33 168.565C183.987 161.795 189.745 158.165 197.931 156.488Z" fill="black" stroke="black" stroke-width="2"/>
<path d="M41.6182 50.873C46.0572 50.6636 49.449 52.4512 53.6602 54.5576V54.5566L102.03 79.3184V79.3193C106.536 81.6376 110.785 83.5744 114.636 85.4541C118.509 87.3449 122.018 89.196 125.168 91.3887C131.421 95.741 136.322 101.48 139.66 111.666L139.661 111.67C141.171 116.215 142.093 120.93 142.405 125.707H142.406C142.853 132.525 142.701 141.026 142.654 148.395L142.643 151.475L142.606 197.869L142.533 244.713V244.714C142.526 253.611 142.677 262.592 142.315 271.419C142.148 275.501 141.429 279.26 139.771 282.299C138.147 285.273 135.598 287.605 131.638 288.878C128.603 288.994 125.679 288.182 122.775 286.943C119.803 285.676 116.979 284.027 114.054 282.521L97.4727 273.911L51.4775 250.023C48.5231 248.466 46.345 247.146 44.4385 245.545C42.5376 243.948 40.8718 242.041 38.9854 239.276H38.9844C28.1725 223.438 30.1352 206.656 30.1553 187.857L30.2393 139.729L30.376 92.6436C30.4033 87.3909 30.3296 82.1912 30.415 76.9717C30.5019 71.685 30.4629 65.9583 31.877 61.0967C33.2581 56.3482 35.9935 52.5347 41.6182 50.873Z" fill="white" stroke="black" stroke-width="2"/>
<path d="M41.6182 50.873C46.0572 50.6636 49.449 52.4512 53.6602 54.5576V54.5566L102.03 79.3184V79.3193C106.536 81.6376 110.785 83.5744 114.636 85.4541C118.509 87.3449 122.018 89.196 125.168 91.3887C131.421 95.741 136.322 101.48 139.66 111.666L139.661 111.67C141.171 116.215 142.093 120.93 142.405 125.707H142.406C142.853 132.525 142.701 141.026 142.654 148.395L142.643 151.475L142.606 197.869L142.533 244.713V244.714C142.526 253.611 142.677 262.592 142.315 271.419C142.148 275.501 141.429 279.26 139.771 282.299C138.147 285.273 135.598 287.605 131.638 288.878C128.603 288.994 125.679 288.182 122.775 286.943C119.803 285.676 116.979 284.027 114.054 282.521L97.4727 273.911L51.4775 250.023C48.5231 248.466 46.345 247.146 44.4385 245.545C42.5376 243.948 40.8718 242.041 38.9854 239.276H38.9844C28.1725 223.438 30.1352 206.656 30.1553 187.857L30.2393 139.729L30.376 92.6436C30.4033 87.3909 30.3296 82.1912 30.415 76.9717C30.5019 71.685 30.4629 65.9583 31.877 61.0967C33.2581 56.3482 35.9935 52.5347 41.6182 50.873Z" fill="white" stroke="black" stroke-width="2"/>
<path d="M53.1475 191.429C56.9299 191.505 60.3244 193.721 63.1035 197.303C65.9184 200.93 68.0099 205.851 69.1152 210.945C70.2213 216.043 70.3199 221.218 69.2432 225.343C68.179 229.419 66.0224 232.309 62.7109 233.316C59.127 233.406 55.792 231.333 52.9912 227.825C50.166 224.286 47.9959 219.412 46.8057 214.32C45.6147 209.226 45.427 204.01 46.4736 199.799C47.5036 195.655 49.6817 192.619 53.1475 191.429Z" fill="black" stroke="black" stroke-width="2"/>
<path d="M109.503 106.167C113.349 106.043 116.787 108.034 119.612 111.384C122.491 114.797 124.654 119.538 125.834 124.536C127.014 129.535 127.191 134.701 126.186 138.942C125.189 143.143 123.076 146.296 119.779 147.662C116.645 148.118 113.492 146.48 110.676 143.304C107.84 140.106 105.495 135.498 104.081 130.528C102.667 125.559 102.208 120.32 103.057 115.876C103.889 111.517 105.951 108.021 109.503 106.167Z" fill="black" stroke="black" stroke-width="2"/>
<path d="M195.371 1.13379C204.536 0.662839 213.74 1.38155 222.483 4.1123C227.307 5.61841 232.465 8.54031 237.224 10.9131L237.227 10.9141C245.474 14.996 253.689 19.1406 261.873 23.3467L261.88 23.3496L291.561 38.3193V38.3203C296.445 40.8023 301.698 43.1999 306.155 46.0762C308.541 47.6157 309.449 48.9435 309.654 49.9619C309.848 50.9257 309.465 51.9107 308.47 52.9414C307.471 53.9754 305.97 54.9237 304.288 55.7275C302.618 56.5256 300.833 57.1508 299.321 57.5625C292.145 59.5171 284.996 60.9227 277.747 62.4492L274.634 63.1133L228.214 73.1289H228.213L191.46 81.1025C182.301 83.0637 173.417 85.2579 164.203 85.9043H164.191L164.18 85.9053C156.412 86.6313 143.647 85.3436 136.422 82.9414H136.421C130.712 81.0461 122.367 76.4706 116.572 73.5264L83.2451 56.5273L83.2412 56.5254L63.833 46.7236C60.3031 44.9412 56.4461 43.2306 53.2979 41.1514C50.9278 39.586 49.9781 38.212 49.7422 37.127C49.5177 36.0942 49.8875 35.0573 50.8516 33.9922C51.8239 32.918 53.3119 31.9267 55.0225 31.0859C56.7212 30.251 58.5765 29.5947 60.2256 29.165C67.8338 27.1833 75.5302 25.7115 83.291 24.0742L125.82 15.0898H125.822L165.343 6.65625H165.344C175.189 4.54311 185.52 2.04094 195.371 1.13379Z" fill="white" stroke="black" stroke-width="2"/>
<path d="M177.532 36.5791C180.455 36.4257 186.421 36.4093 191.856 37.3447C194.576 37.8128 197.131 38.5148 199.1 39.5361C200.949 40.4959 202.214 41.7012 202.68 43.2002L202.763 43.5039C203.002 44.5318 202.453 45.4617 201.134 46.3389C199.823 47.2109 197.896 47.9198 195.781 48.4844C191.579 49.6065 186.816 50.1114 185.205 50.2656C181.819 50.4251 177.472 50.3642 173.25 49.8027C169.012 49.2392 164.956 48.1781 162.117 46.375C160.74 45.4998 160.035 44.6692 159.757 43.9414C159.488 43.2391 159.591 42.5661 159.985 41.9131C160.39 41.2434 161.101 40.6026 162.018 40.0391C162.929 39.4787 164.015 39.0138 165.131 38.6836C169.712 37.3273 172.762 36.9259 177.531 36.5781L177.532 36.5791Z" fill="black" stroke="black"/>
<mask id="path-18-outside-4_108_2811" maskUnits="userSpaceOnUse" x="-0.00585938" y="158.547" width="90" height="209" fill="black">
<rect fill="white" x="-0.00585938" y="158.547" width="90" height="209"/>
<path d="M87.9941 168.44C87.9934 161.778 79.4622 158.979 75.5977 164.437C62.8355 182.462 52.5352 198.957 43.7803 221.624C35.0648 244.189 27.8898 272.853 21.3203 315.211C10.2418 317.839 2.00012 327.795 2 339.678C2 353.566 13.2585 364.824 27.1465 364.824C41.0346 364.824 52.293 353.566 52.293 339.678C52.2929 328.672 45.2225 319.318 35.376 315.909V315.904C41.9177 275.677 48.5749 249.422 56.7012 228.395C64.826 207.371 74.4273 191.551 86.8877 172.189C87.6041 171.076 87.9941 169.767 87.9941 168.44Z"/>
</mask>
<path d="M87.9941 168.44C87.9934 161.778 79.4622 158.979 75.5977 164.437C62.8355 182.462 52.5352 198.957 43.7803 221.624C35.0648 244.189 27.8898 272.853 21.3203 315.211C10.2418 317.839 2.00012 327.795 2 339.678C2 353.566 13.2585 364.824 27.1465 364.824C41.0346 364.824 52.293 353.566 52.293 339.678C52.2929 328.672 45.2225 319.318 35.376 315.909V315.904C41.9177 275.677 48.5749 249.422 56.7012 228.395C64.826 207.371 74.4273 191.551 86.8877 172.189C87.6041 171.076 87.9941 169.767 87.9941 168.44Z" fill="white"/>
<path d="M87.9941 168.44L89.9941 168.44V168.44H87.9941ZM75.5977 164.437L73.9654 163.281L73.9654 163.281L75.5977 164.437ZM43.7803 221.624L41.9146 220.903L41.9146 220.903L43.7803 221.624ZM21.3203 315.211L23.2967 315.517L23.0906 316.846L21.782 317.157L21.3203 315.211ZM2 339.678H0V339.678L2 339.678ZM27.1465 364.824V366.824H27.1465L27.1465 364.824ZM52.293 339.678L54.293 339.678V339.678H52.293ZM35.376 315.909L34.7217 317.799L33.376 317.333V315.909H35.376ZM35.376 315.904H33.376V315.743L33.4019 315.583L35.376 315.904ZM56.7012 228.395L54.8356 227.674V227.674L56.7012 228.395ZM86.8877 172.189L88.5696 173.272L88.5695 173.272L86.8877 172.189ZM87.9941 168.44L85.9941 168.441C85.9936 163.673 79.9359 161.771 77.2299 165.592L75.5977 164.437L73.9654 163.281C78.9886 156.187 89.9932 159.883 89.9941 168.44L87.9941 168.44ZM75.5977 164.437L77.2299 165.592C64.5169 183.548 54.3181 199.892 45.6459 222.345L43.7803 221.624L41.9146 220.903C50.7523 198.022 61.1541 181.375 73.9654 163.281L75.5977 164.437ZM43.7803 221.624L45.646 222.345C37.0023 244.724 29.8549 273.232 23.2967 315.517L21.3203 315.211L19.3439 314.904C25.9248 272.473 33.1274 243.654 41.9146 220.903L43.7803 221.624ZM21.3203 315.211L21.782 317.157C11.5845 319.576 4.00011 328.743 4 339.678L2 339.678L0 339.678C0.00012207 326.848 8.89911 316.102 20.8587 313.265L21.3203 315.211ZM2 339.678H4C4 352.461 14.363 362.824 27.1465 362.824L27.1465 364.824L27.1465 366.824C12.1539 366.824 0 354.67 0 339.678H2ZM27.1465 364.824V362.824C39.93 362.824 50.293 352.461 50.293 339.678H52.293H54.293C54.293 354.67 42.1392 366.824 27.1465 366.824V364.824ZM52.293 339.678L50.293 339.678C50.2929 329.55 43.7877 320.938 34.7217 317.799L35.376 315.909L36.0302 314.019C46.6573 317.698 54.2929 327.793 54.293 339.678L52.293 339.678ZM35.376 315.909H33.376V315.904H35.376H37.376V315.909H35.376ZM35.376 315.904L33.4019 315.583C39.9545 275.29 46.639 248.883 54.8356 227.674L56.7012 228.395L58.5667 229.115C50.5107 249.961 43.881 276.065 37.35 316.225L35.376 315.904ZM56.7012 228.395L54.8356 227.674C63.0369 206.452 72.7305 190.492 85.2059 171.107L86.8877 172.189L88.5695 173.272C76.1242 192.61 66.615 208.289 58.5667 229.115L56.7012 228.395ZM86.8877 172.189L85.2058 171.107C85.7172 170.312 85.9941 169.378 85.9941 168.44H87.9941H89.9941C89.9941 170.156 89.491 171.84 88.5696 173.272L86.8877 172.189Z" fill="black" mask="url(#path-18-outside-4_108_2811)"/>
</svg>
