<svg width="337" height="447" viewBox="0 0 337 447" fill="none" xmlns="http://www.w3.org/2000/svg">
<path d="M97.6286 283.564L62.2506 268.314C28.308 253.683 6.7617 219.787 7.92067 182.843L9.5 132.5L8.53294 102.107C7.14726 58.5567 42.0749 22.5 85.6469 22.5C91.1994 22.5 96.7357 21.9006 102.16 20.7122L155.237 9.08297C173.306 5.12402 192.156 6.8288 209.221 13.9653L238 26C277.861 36.8445 305.055 73.6465 303.717 114.935L302.5 152.5L303.486 182.642C304.933 226.925 273.936 265.674 230.417 273.985L150.138 289.317C132.453 292.695 114.162 290.69 97.6286 283.564Z" fill="black"/>
<mask id="path-2-outside-1_108_2890" maskUnits="userSpaceOnUse" x="175" y="261" width="58" height="186" fill="black">
<rect fill="white" x="175" y="261" width="58" height="186"/>
<path d="M189.575 264.167C193.463 263.27 197.227 266.093 197.497 270.074C200.649 316.632 204.287 342.651 194.535 410.291C194.351 411.567 193.858 412.773 193.122 413.807C196.45 412.938 200.13 412.454 204 412.454C218.912 412.454 231 419.618 231 428.454C231 437.291 218.912 444.454 204 444.454C189.088 444.454 177 437.291 177 428.454C177 426.176 177.804 424.01 179.252 422.049C190.385 360.042 190.231 326.218 184.594 271.148C184.261 267.899 186.393 264.901 189.575 264.167Z"/>
</mask>
<path d="M189.575 264.167C193.463 263.27 197.227 266.093 197.497 270.074C200.649 316.632 204.287 342.651 194.535 410.291C194.351 411.567 193.858 412.773 193.122 413.807C196.45 412.938 200.13 412.454 204 412.454C218.912 412.454 231 419.618 231 428.454C231 437.291 218.912 444.454 204 444.454C189.088 444.454 177 437.291 177 428.454C177 426.176 177.804 424.01 179.252 422.049C190.385 360.042 190.231 326.218 184.594 271.148C184.261 267.899 186.393 264.901 189.575 264.167Z" fill="white"/>
<path d="M189.575 264.167L189.125 262.218L189.125 262.218L189.575 264.167ZM197.497 270.074L199.493 269.939L199.493 269.939L197.497 270.074ZM194.535 410.291L192.556 410.006V410.006L194.535 410.291ZM193.122 413.807L191.493 412.647L188.298 417.134L193.627 415.742L193.122 413.807ZM179.252 422.049L180.861 423.237L181.138 422.861L181.22 422.402L179.252 422.049ZM184.594 271.148L186.583 270.945V270.945L184.594 271.148ZM189.575 264.167L190.025 266.116C192.699 265.499 195.314 267.443 195.502 270.209L197.497 270.074L199.493 269.939C199.141 264.744 194.226 261.041 189.125 262.218L189.575 264.167ZM197.497 270.074L195.502 270.209C198.654 316.761 202.275 342.594 192.556 410.006L194.535 410.291L196.515 410.576C206.299 342.708 202.645 316.504 199.493 269.939L197.497 270.074ZM194.535 410.291L192.556 410.006C192.418 410.959 192.049 411.866 191.493 412.647L193.122 413.807L194.751 414.967C195.668 413.68 196.284 412.175 196.515 410.576L194.535 410.291ZM193.122 413.807L193.627 415.742C196.784 414.917 200.294 414.454 204 414.454V412.454V410.454C199.965 410.454 196.115 410.958 192.617 411.872L193.122 413.807ZM204 412.454V414.454C211.16 414.454 217.545 416.178 222.072 418.861C226.643 421.57 229 425.027 229 428.454H231H233C233 423.045 229.312 418.502 224.111 415.42C218.867 412.312 211.752 410.454 204 410.454V412.454ZM231 428.454H229C229 431.882 226.643 435.338 222.072 438.047C217.545 440.73 211.16 442.454 204 442.454V444.454V446.454C211.752 446.454 218.867 444.596 224.111 441.488C229.312 438.406 233 433.863 233 428.454H231ZM204 444.454V442.454C196.84 442.454 190.455 440.73 185.928 438.047C181.357 435.338 179 431.882 179 428.454H177H175C175 433.863 178.688 438.406 183.889 441.488C189.133 444.596 196.248 446.454 204 446.454V444.454ZM177 428.454H179C179 426.67 179.625 424.912 180.861 423.237L179.252 422.049L177.643 420.861C175.984 423.109 175 425.682 175 428.454H177ZM179.252 422.049L181.22 422.402C192.391 360.187 192.237 326.173 186.583 270.945L184.594 271.148L182.604 271.352C188.225 326.263 188.379 359.898 177.283 421.695L179.252 422.049ZM184.594 271.148L186.583 270.945C186.353 268.693 187.831 266.622 190.025 266.116L189.575 264.167L189.125 262.218C184.955 263.181 182.169 267.106 182.604 271.352L184.594 271.148Z" fill="black" mask="url(#path-2-outside-1_108_2890)"/>
<mask id="path-4-outside-2_108_2890" maskUnits="userSpaceOnUse" x="47" y="258" width="58" height="186" fill="black">
<rect fill="white" x="47" y="258" width="58" height="186"/>
<path d="M90.4248 261.167C86.5371 260.27 82.7725 263.093 82.5029 267.074C79.3506 313.632 75.713 339.651 85.4648 407.291C85.6489 408.567 86.1418 409.773 86.8779 410.807C83.5501 409.938 79.8702 409.454 76 409.454C61.0883 409.454 49 416.618 49 425.454C49 434.291 61.0883 441.454 76 441.454C90.9117 441.454 103 434.291 103 425.454C103 423.176 102.196 421.01 100.748 419.049C89.6149 357.042 89.7688 323.218 95.4062 268.148C95.7389 264.899 93.6073 261.901 90.4248 261.167Z"/>
</mask>
<path d="M90.4248 261.167C86.5371 260.27 82.7725 263.093 82.5029 267.074C79.3506 313.632 75.713 339.651 85.4648 407.291C85.6489 408.567 86.1418 409.773 86.8779 410.807C83.5501 409.938 79.8702 409.454 76 409.454C61.0883 409.454 49 416.618 49 425.454C49 434.291 61.0883 441.454 76 441.454C90.9117 441.454 103 434.291 103 425.454C103 423.176 102.196 421.01 100.748 419.049C89.6149 357.042 89.7688 323.218 95.4062 268.148C95.7389 264.899 93.6073 261.901 90.4248 261.167Z" fill="white"/>
<path d="M90.4248 261.167L90.8745 259.218L90.8746 259.218L90.4248 261.167ZM82.5029 267.074L80.5075 266.939L80.5075 266.939L82.5029 267.074ZM85.4648 407.291L87.4444 407.006V407.006L85.4648 407.291ZM86.8779 410.807L88.5071 409.647L91.7023 414.134L86.3726 412.742L86.8779 410.807ZM100.748 419.049L99.1389 420.237L98.8619 419.861L98.7795 419.402L100.748 419.049ZM95.4062 268.148L93.4166 267.945V267.945L95.4062 268.148ZM90.4248 261.167L89.9751 263.116C87.3007 262.499 84.6857 264.443 84.4984 267.209L82.5029 267.074L80.5075 266.939C80.8593 261.744 85.7735 258.041 90.8745 259.218L90.4248 261.167ZM82.5029 267.074L84.4984 267.209C81.3465 313.761 77.7255 339.594 87.4444 407.006L85.4648 407.291L83.4853 407.576C73.7006 339.708 77.3548 313.504 80.5075 266.939L82.5029 267.074ZM85.4648 407.291L87.4444 407.006C87.5819 407.959 87.9514 408.866 88.5071 409.647L86.8779 410.807L85.2488 411.967C84.3322 410.68 83.7158 409.175 83.4853 407.576L85.4648 407.291ZM86.8779 410.807L86.3726 412.742C83.2156 411.917 79.7059 411.454 76 411.454V409.454V407.454C80.0346 407.454 83.8846 407.958 87.3833 408.872L86.8779 410.807ZM76 409.454V411.454C68.84 411.454 62.4551 413.178 57.9277 415.861C53.3565 418.57 51 422.027 51 425.454H49H47C47 420.045 50.6876 415.502 55.8885 412.42C61.1332 409.312 68.2483 407.454 76 407.454V409.454ZM49 425.454H51C51 428.882 53.3565 432.338 57.9277 435.047C62.4551 437.73 68.84 439.454 76 439.454V441.454V443.454C68.2483 443.454 61.1332 441.596 55.8885 438.488C50.6876 435.406 47 430.863 47 425.454H49ZM76 441.454V439.454C83.16 439.454 89.5449 437.73 94.0723 435.047C98.6435 432.338 101 428.882 101 425.454H103H105C105 430.863 101.312 435.406 96.1115 438.488C90.8668 441.596 83.7517 443.454 76 443.454V441.454ZM103 425.454H101C101 423.67 100.375 421.912 99.1389 420.237L100.748 419.049L102.357 417.861C104.016 420.109 105 422.682 105 425.454H103ZM100.748 419.049L98.7795 419.402C87.6089 357.187 87.7629 323.173 93.4166 267.945L95.4062 268.148L97.3959 268.352C91.7746 323.263 91.6209 356.898 102.717 418.695L100.748 419.049ZM95.4062 268.148L93.4166 267.945C93.6472 265.693 92.1691 263.622 89.975 263.116L90.4248 261.167L90.8746 259.218C95.0455 260.181 97.8305 264.106 97.3959 268.352L95.4062 268.148Z" fill="black" mask="url(#path-4-outside-2_108_2890)"/>
<mask id="path-6-outside-3_108_2890" maskUnits="userSpaceOnUse" x="248" y="148.547" width="89" height="209" fill="black">
<rect fill="white" x="248" y="148.547" width="89" height="209"/>
<path d="M250 158.392C250 151.757 258.511 148.99 262.328 154.447C274.923 172.452 285.089 188.942 293.732 211.601C302.359 234.215 309.461 262.956 315.962 305.459C326.89 308.133 335 317.99 335 329.742C335 343.549 323.807 354.742 310 354.742C296.193 354.742 285 343.549 285 329.742C285 318.718 292.136 309.36 302.04 306.036L302.006 305.821C295.539 265.586 288.958 239.328 280.924 218.298C272.891 197.272 263.399 181.45 251.079 162.082C250.38 160.983 250 159.696 250 158.392Z"/>
</mask>
<path d="M250 158.392C250 151.757 258.511 148.99 262.328 154.447C274.923 172.452 285.089 188.942 293.732 211.601C302.359 234.215 309.461 262.956 315.962 305.459C326.89 308.133 335 317.99 335 329.742C335 343.549 323.807 354.742 310 354.742C296.193 354.742 285 343.549 285 329.742C285 318.718 292.136 309.36 302.04 306.036L302.006 305.821C295.539 265.586 288.958 239.328 280.924 218.298C272.891 197.272 263.399 181.45 251.079 162.082C250.38 160.983 250 159.696 250 158.392Z" fill="white"/>
<path d="M250 158.392L248 158.392V158.392H250ZM262.328 154.447L263.967 153.301L263.967 153.301L262.328 154.447ZM293.732 211.601L295.601 210.888V210.888L293.732 211.601ZM315.962 305.459L313.985 305.761L314.187 307.084L315.487 307.402L315.962 305.459ZM335 329.742H337V329.742H335ZM285 329.742H283V329.742H285ZM302.04 306.036L302.676 307.932L304.281 307.394L304.015 305.722L302.04 306.036ZM302.006 305.821L303.981 305.507L303.981 305.504L302.006 305.821ZM280.924 218.298L282.792 217.584V217.584L280.924 218.298ZM251.079 162.082L249.392 163.155L249.392 163.155L251.079 162.082ZM250 158.392L252 158.392C252 153.656 258.025 151.786 260.689 155.594L262.328 154.447L263.967 153.301C258.996 146.195 248 149.858 248 158.392L250 158.392ZM262.328 154.447L260.689 155.594C273.235 173.529 283.302 189.868 291.864 212.313L293.732 211.601L295.601 210.888C286.877 188.017 276.611 171.376 263.967 153.301L262.328 154.447ZM293.732 211.601L291.864 212.313C300.42 234.743 307.495 263.33 313.985 305.761L315.962 305.459L317.939 305.157C311.427 262.581 304.298 233.687 295.601 210.888L293.732 211.601ZM315.962 305.459L315.487 307.402C325.541 309.862 333 318.933 333 329.742H335H337C337 317.047 328.24 306.404 316.437 303.516L315.962 305.459ZM335 329.742H333C333 342.445 322.703 352.742 310 352.742V354.742V356.742C324.912 356.742 337 344.654 337 329.742H335ZM310 354.742V352.742C297.297 352.742 287 342.445 287 329.742H285H283C283 344.654 295.088 356.742 310 356.742V354.742ZM285 329.742H287C287 319.603 293.562 310.991 302.676 307.932L302.04 306.036L301.404 304.14C290.709 307.73 283 317.833 283 329.742H285ZM302.04 306.036L304.015 305.722L303.981 305.507L302.006 305.821L300.031 306.136L300.065 306.35L302.04 306.036ZM302.006 305.821L303.981 305.504C297.503 265.203 290.895 238.795 282.792 217.584L280.924 218.298L279.056 219.012C287.021 239.861 293.575 265.969 300.031 306.139L302.006 305.821ZM280.924 218.298L282.792 217.584C274.684 196.361 265.102 180.4 252.767 161.009L251.079 162.082L249.392 163.155C261.697 182.5 271.098 198.182 279.056 219.012L280.924 218.298ZM251.079 162.082L252.767 161.009C252.269 160.226 252 159.311 252 158.392H250H248C248 160.082 248.492 161.741 249.392 163.155L251.079 162.082Z" fill="black" mask="url(#path-6-outside-3_108_2890)"/>
<path d="M131.376 227.657L131.146 160.231C131.15 151.576 130.732 133.953 131.715 125.976L131.716 125.966C132.407 119.868 134.628 114.044 138.175 109.039L138.176 109.038C142.534 102.865 146.834 99.6239 151.725 97.5361C156.684 95.4189 162.251 94.476 169.306 92.9473L169.307 92.9482L197 87.0049L197.001 87.0039L251.089 75.3535C260.948 73.2294 272.072 70.5827 281.825 68.8711C286.621 68.2735 292.183 69.7667 295.929 72.7178C305.046 79.8994 305.075 91.4232 304.875 102.594C304.811 106.169 304.837 109.831 304.852 113.442L304.858 117.033L304.824 168.167L304.793 214.363V214.364C304.809 230.858 307.014 243.846 296.518 256.933C288.177 267.331 279.561 268.52 267.482 270.981L265.02 271.494L233.676 278.153H233.674L183.058 289H183.057C175.504 290.626 162.365 293.856 155.064 294.719C149.908 294.931 145.516 294.399 141.391 291.604L140.991 291.325C135.707 287.534 133.309 282.479 132.225 276.864C131.13 271.194 131.39 265.065 131.372 259.112L131.376 227.66V227.657Z" fill="white" stroke="black" stroke-width="2"/>
<path d="M254.604 230.703C227.929 212.845 212.528 217.727 187.008 243.456C185.71 244.765 184.003 245.679 182.159 245.709C178.678 245.765 176.874 244.786 176.255 241.736C175.839 239.693 176.836 237.648 178.318 236.181C212.404 202.447 231.754 200.815 261.575 223.168C264.504 225.364 265.825 230.148 262.404 231.451C261.415 231.827 260.239 232.006 258.788 232.041C257.296 232.077 255.845 231.534 254.604 230.703Z" fill="black" stroke="black"/>
<path d="M162.858 174.843C174.486 172.797 182.392 170.644 192.971 163.578C195.994 161.559 200.483 161.28 202.128 164.523C202.857 165.962 203.161 167.597 203.109 169.751C203.081 170.904 202.699 172.031 202.108 173.021C189.244 194.555 179.484 195.184 160.932 182.812C159.667 181.969 158.549 180.697 158.301 179.197C157.901 176.777 160.442 175.268 162.858 174.843Z" fill="black" stroke="black"/>
<path d="M276.335 160.661C264.611 159.717 256.568 158.32 245.419 152.304C242.219 150.578 237.721 150.72 236.395 154.106C235.812 155.595 235.666 157.24 235.917 159.361C236.052 160.506 236.538 161.592 237.22 162.523C251.993 182.686 261.737 182.398 278.99 168.389C280.167 167.434 281.157 166.068 281.263 164.557C281.434 162.118 278.772 160.858 276.335 160.661Z" fill="black" stroke="black"/>
<path d="M280.346 130.226C263.777 130.946 257.919 126.691 249.374 120.181C247.55 118.791 245.124 118.057 243.058 119.053C241.144 119.976 240.261 121.388 240.233 123.94C240.212 125.919 241.354 127.691 242.888 128.941C254.921 138.742 262.588 144.857 282.485 139.821C284.426 139.33 286.306 138.119 286.774 136.173C287.061 134.978 286.907 133.929 286.302 132.828C285.185 130.791 282.666 130.125 280.346 130.226Z" fill="black" stroke="black"/>
<path d="M154.749 148.849C170.775 146.611 175.684 141.351 182.709 133.393C184.265 131.63 186.587 130.404 188.834 131.097C190.797 131.702 191.875 132.979 192.351 135.527C192.709 137.445 191.947 139.37 190.705 140.875C180.841 152.818 174.543 160.305 154.368 158.841C152.357 158.695 150.29 157.811 149.481 155.964C148.989 154.84 148.937 153.781 149.298 152.598C149.99 150.329 152.399 149.177 154.749 148.849Z" fill="black" stroke="black"/>
<mask id="path-14-inside-4_108_2890" fill="white">
<path d="M161.992 195.163C162.313 194.958 162.736 195.171 162.761 195.551L163.285 203.515C164.169 205.932 163.563 208.748 161.535 210.577C158.87 212.982 154.76 212.77 152.355 210.105C149.95 207.44 150.162 203.33 152.827 200.925C153.486 200.33 154.234 199.895 155.022 199.617L161.992 195.163Z"/>
</mask>
<path d="M161.992 195.163C162.313 194.958 162.736 195.171 162.761 195.551L163.285 203.515C164.169 205.932 163.563 208.748 161.535 210.577C158.87 212.982 154.76 212.77 152.355 210.105C149.95 207.44 150.162 203.33 152.827 200.925C153.486 200.33 154.234 199.895 155.022 199.617L161.992 195.163Z" fill="black"/>
<path d="M161.992 195.163L162.531 196.005L162.531 196.005L161.992 195.163ZM162.761 195.551L163.759 195.485L163.759 195.485L162.761 195.551ZM163.285 203.515L162.287 203.581L162.296 203.724L162.346 203.859L163.285 203.515ZM161.535 210.577L162.205 211.32L162.205 211.32L161.535 210.577ZM152.355 210.105L151.613 210.775L152.355 210.105ZM152.827 200.925L152.157 200.182L152.157 200.182L152.827 200.925ZM155.022 199.617L155.354 200.561L155.463 200.522L155.561 200.46L155.022 199.617ZM161.992 195.163L162.531 196.005C162.212 196.209 161.788 195.997 161.763 195.616L162.761 195.551L163.759 195.485C163.684 194.345 162.414 193.706 161.454 194.32L161.992 195.163ZM162.761 195.551L161.763 195.616L162.287 203.581L163.285 203.515L164.283 203.45L163.759 195.485L162.761 195.551ZM163.285 203.515L162.346 203.859C163.095 205.906 162.58 208.288 160.865 209.835L161.535 210.577L162.205 211.32C164.546 209.207 165.243 205.958 164.224 203.172L163.285 203.515ZM161.535 210.577L160.865 209.835C158.61 211.869 155.132 211.691 153.098 209.435L152.355 210.105L151.613 210.775C154.387 213.85 159.13 214.094 162.205 211.32L161.535 210.577ZM152.355 210.105L153.098 209.435C151.063 207.18 151.242 203.702 153.497 201.667L152.827 200.925L152.157 200.182C149.082 202.957 148.838 207.699 151.613 210.775L152.355 210.105ZM152.827 200.925L153.497 201.667C154.057 201.162 154.689 200.795 155.354 200.561L155.022 199.617L154.691 198.674C153.779 198.994 152.916 199.497 152.157 200.182L152.827 200.925ZM155.022 199.617L155.561 200.46L162.531 196.005L161.992 195.163L161.454 194.32L154.484 198.775L155.022 199.617Z" fill="black" mask="url(#path-14-inside-4_108_2890)"/>
<mask id="path-16-inside-5_108_2890" fill="white">
<path d="M275.906 178.787C275.905 178.407 276.311 178.164 276.645 178.346L283.654 182.169C286.168 182.717 288.221 184.736 288.68 187.428C289.284 190.966 286.904 194.325 283.366 194.928C279.827 195.532 276.469 193.152 275.866 189.614C275.717 188.74 275.749 187.877 275.936 187.065L275.906 178.787Z"/>
</mask>
<path d="M275.906 178.787C275.905 178.407 276.311 178.164 276.645 178.346L283.654 182.169C286.168 182.717 288.221 184.736 288.68 187.428C289.284 190.966 286.904 194.325 283.366 194.928C279.827 195.532 276.469 193.152 275.866 189.614C275.717 188.74 275.749 187.877 275.936 187.065L275.906 178.787Z" fill="black"/>
<path d="M275.906 178.787L274.906 178.79L274.906 178.79L275.906 178.787ZM276.645 178.346L277.124 177.468L277.124 177.468L276.645 178.346ZM283.654 182.169L283.176 183.047L283.301 183.115L283.441 183.146L283.654 182.169ZM288.68 187.428L289.666 187.26L289.666 187.26L288.68 187.428ZM283.366 194.928L283.534 195.914L283.534 195.914L283.366 194.928ZM275.866 189.614L274.88 189.782L274.88 189.782L275.866 189.614ZM275.936 187.065L276.911 187.289L276.936 187.176L276.936 187.061L275.936 187.065ZM275.906 178.787L276.906 178.783C276.907 179.162 276.502 179.406 276.167 179.224L276.645 178.346L277.124 177.468C276.121 176.921 274.902 177.651 274.906 178.79L275.906 178.787ZM276.645 178.346L276.166 179.224L283.176 183.047L283.654 182.169L284.133 181.291L277.124 177.468L276.645 178.346ZM283.654 182.169L283.441 183.146C285.571 183.61 287.307 185.321 287.695 187.596L288.68 187.428L289.666 187.26C289.136 184.152 286.765 181.823 283.867 181.192L283.654 182.169ZM288.68 187.428L287.695 187.596C288.205 190.59 286.192 193.432 283.198 193.943L283.366 194.928L283.534 195.914C287.617 195.217 290.362 191.343 289.666 187.26L288.68 187.428ZM283.366 194.928L283.198 193.943C280.204 194.453 277.362 192.44 276.851 189.445L275.866 189.614L274.88 189.782C275.576 193.865 279.451 196.61 283.534 195.914L283.366 194.928ZM275.866 189.614L276.851 189.446C276.725 188.704 276.753 187.975 276.911 187.289L275.936 187.065L274.962 186.84C274.745 187.78 274.708 188.776 274.88 189.782L275.866 189.614ZM275.936 187.065L276.936 187.061L276.906 178.783L275.906 178.787L274.906 178.79L274.936 187.068L275.936 187.065Z" fill="black" mask="url(#path-16-inside-5_108_2890)"/>
<path d="M18.4508 49.8793C23.2557 49.6169 26.9102 51.5637 31.1072 53.663L79.4882 78.4305C97.4747 87.6848 110.798 90.5667 117.61 111.355C119.147 115.981 120.086 120.78 120.404 125.642C120.918 133.477 120.645 143.535 120.643 151.475L120.607 197.869L120.534 244.715C120.526 253.588 120.678 262.606 120.315 271.459C119.974 279.777 117.379 287.187 108.812 289.873C102.232 290.182 96.3203 286.358 90.5965 283.41L74.0116 274.799L28.0169 250.911C22.0588 247.77 19.0041 245.475 15.1589 239.84C4.12786 223.681 6.13512 206.493 6.15499 187.855L6.23916 139.727L6.37632 92.6383C6.40344 87.4168 6.32998 82.1764 6.41543 76.9549C6.58727 66.4986 6.23633 53.4032 18.4508 49.8793Z" fill="white"/>
<path d="M18.6182 50.873C23.0572 50.6636 26.449 52.4512 30.6602 54.5576V54.5566L79.0303 79.3184V79.3193C83.536 81.6376 87.785 83.5744 91.6357 85.4541C95.5091 87.3449 99.0177 89.196 102.168 91.3887C108.421 95.741 113.322 101.48 116.66 111.666L116.661 111.67C118.171 116.215 119.093 120.93 119.405 125.707H119.406C119.853 132.525 119.701 141.026 119.654 148.395L119.643 151.475L119.606 197.869L119.533 244.713V244.714C119.526 253.611 119.677 262.592 119.315 271.419C119.148 275.501 118.429 279.26 116.771 282.299C115.147 285.273 112.598 287.605 108.638 288.878C105.603 288.994 102.679 288.182 99.7754 286.943C96.8029 285.676 93.9792 284.027 91.0537 282.521L74.4727 273.911L28.4775 250.023C25.5231 248.466 23.345 247.146 21.4385 245.545C19.5376 243.948 17.8718 242.041 15.9854 239.276H15.9844C5.17246 223.438 7.13516 206.656 7.15527 187.857L7.23926 139.729L7.37598 92.6436C7.40325 87.3909 7.32963 82.1912 7.41504 76.9717C7.50192 71.685 7.46288 65.9583 8.87695 61.0967C10.2581 56.3482 12.9935 52.5347 18.6182 50.873Z" fill="white" stroke="black" stroke-width="2"/>
<path d="M29.992 190.426C47.0511 190.497 55.24 229.879 39.8718 234.313C23.5858 234.942 14.0103 195.606 29.992 190.426Z" fill="black"/>
<path d="M86.2445 105.176C103.608 104.278 112.114 142.603 97.0493 148.634C82.4336 150.99 70.1192 113.213 86.2445 105.176Z" fill="black"/>
<g filter="url(#filter0_d_108_2890)">
<path d="M172.371 1.13379C181.536 0.662839 190.74 1.38155 199.483 4.1123C204.307 5.61841 209.465 8.54031 214.224 10.9131L214.227 10.9141C222.474 14.996 230.689 19.1406 238.873 23.3467L238.88 23.3496L268.561 38.3193V38.3203C273.445 40.8023 278.698 43.1999 283.155 46.0762C285.541 47.6157 286.449 48.9435 286.654 49.9619C286.848 50.9257 286.465 51.9107 285.47 52.9414C284.471 53.9754 282.97 54.9237 281.288 55.7275C279.618 56.5256 277.833 57.1508 276.321 57.5625C269.145 59.5171 261.996 60.9227 254.747 62.4492L251.634 63.1133L205.214 73.1289H205.213L168.46 81.1025C159.301 83.0637 150.417 85.2579 141.203 85.9043H141.191L141.18 85.9053C133.412 86.6313 120.647 85.3436 113.422 82.9414H113.421C107.712 81.0461 99.3666 76.4706 93.5723 73.5264L60.2451 56.5273L60.2412 56.5254L40.833 46.7236C37.3031 44.9412 33.4461 43.2306 30.2979 41.1514C27.9278 39.586 26.9781 38.212 26.7422 37.127C26.5177 36.0942 26.8875 35.0573 27.8516 33.9922C28.8239 32.918 30.3119 31.9267 32.0225 31.0859C33.7212 30.251 35.5765 29.5947 37.2256 29.165C44.8338 27.1833 52.5302 25.7115 60.291 24.0742L102.82 15.0898H102.822L142.343 6.65625H142.344C152.189 4.54311 162.52 2.04094 172.371 1.13379Z" fill="white" stroke="black" stroke-width="2"/>
<path d="M154.506 36.0796C160.393 35.7707 178.532 36.0123 180.249 43.3904C181.496 48.7368 165.437 50.4593 162.237 50.7648C155.418 51.087 144.71 50.5202 138.849 46.7973C133.155 43.18 137.386 39.5664 141.988 38.2038C146.62 36.8328 149.709 36.4292 154.506 36.0796Z" fill="black"/>
</g>
<mask id="path-24-outside-6_108_2890" maskUnits="userSpaceOnUse" x="5" y="160.367" width="127" height="118" fill="black">
<rect fill="white" x="5" y="160.367" width="127" height="118"/>
<path d="M61.7221 163.897C65.3336 160.289 71.2569 160.588 74.5355 164.491C77.4204 167.925 77.2249 172.997 74.1557 176.254C58.7313 192.624 47.0164 206.219 39.2885 217.198C35.4247 222.687 32.5664 227.509 30.7396 231.686C28.9105 235.869 28.1327 239.368 28.3793 242.224C28.6237 245.054 29.875 247.283 32.1889 248.963C34.5242 250.66 37.9676 251.815 42.6068 252.407C51.3052 253.516 64.0319 252.623 81.059 249.827C82.0451 236.922 92.8287 226.758 105.986 226.758C119.793 226.759 130.986 237.952 130.986 251.758C130.986 265.565 119.793 276.758 105.986 276.758C98.1186 276.758 91.1016 273.123 86.5189 267.442C59.308 272.585 39.6935 273.235 26.6439 270.194C19.9845 268.642 14.9997 266.121 11.5941 262.714C8.18056 259.3 6.38613 255.027 6.05605 250.044C5.39897 240.121 10.5442 227.372 20.1879 212.758C29.8463 198.122 44.0752 181.53 61.7221 163.897Z"/>
</mask>
<path d="M61.7221 163.897C65.3336 160.289 71.2569 160.588 74.5355 164.491C77.4204 167.925 77.2249 172.997 74.1557 176.254C58.7313 192.624 47.0164 206.219 39.2885 217.198C35.4247 222.687 32.5664 227.509 30.7396 231.686C28.9105 235.869 28.1327 239.368 28.3793 242.224C28.6237 245.054 29.875 247.283 32.1889 248.963C34.5242 250.66 37.9676 251.815 42.6068 252.407C51.3052 253.516 64.0319 252.623 81.059 249.827C82.0451 236.922 92.8287 226.758 105.986 226.758C119.793 226.759 130.986 237.952 130.986 251.758C130.986 265.565 119.793 276.758 105.986 276.758C98.1186 276.758 91.1016 273.123 86.5189 267.442C59.308 272.585 39.6935 273.235 26.6439 270.194C19.9845 268.642 14.9997 266.121 11.5941 262.714C8.18056 259.3 6.38613 255.027 6.05605 250.044C5.39897 240.121 10.5442 227.372 20.1879 212.758C29.8463 198.122 44.0752 181.53 61.7221 163.897Z" fill="white"/>
<path d="M61.7221 163.897L61.0153 163.19L61.0152 163.19L61.7221 163.897ZM74.5355 164.491L75.3013 163.848L75.3012 163.848L74.5355 164.491ZM74.1557 176.254L74.8835 176.94V176.94L74.1557 176.254ZM39.2885 217.198L38.4707 216.622L38.4707 216.622L39.2885 217.198ZM30.7396 231.686L29.8234 231.285L29.8234 231.285L30.7396 231.686ZM28.3793 242.224L27.383 242.31L27.383 242.31L28.3793 242.224ZM32.1889 248.963L31.6012 249.773L31.6012 249.773L32.1889 248.963ZM42.6068 252.407L42.4803 253.399H42.4803L42.6068 252.407ZM81.059 249.827L81.221 250.814L81.9962 250.686L82.0561 249.903L81.059 249.827ZM105.986 226.758L105.986 225.758H105.986L105.986 226.758ZM130.986 251.758L131.986 251.758V251.758L130.986 251.758ZM105.986 276.758L105.986 277.758H105.986L105.986 276.758ZM86.5189 267.442L87.2973 266.814L86.9214 266.348L86.3332 266.459L86.5189 267.442ZM26.6439 270.194L26.417 271.168H26.417L26.6439 270.194ZM11.5941 262.714L10.8869 263.421H10.8869L11.5941 262.714ZM6.05605 250.044L5.05823 250.11L5.05823 250.11L6.05605 250.044ZM20.1879 212.758L19.3532 212.208L19.3532 212.208L20.1879 212.758ZM61.7221 163.897L62.4289 164.604C65.62 161.416 70.8632 161.674 73.7698 165.134L74.5355 164.491L75.3012 163.848C71.6506 159.502 65.0471 159.161 61.0153 163.19L61.7221 163.897ZM74.5355 164.491L73.7698 165.134C76.322 168.172 76.1561 172.673 73.4278 175.569L74.1557 176.254L74.8835 176.94C78.2937 173.321 78.5189 167.678 75.3013 163.848L74.5355 164.491ZM74.1557 176.254L73.4278 175.569C57.9946 191.948 46.2405 205.584 38.4707 216.622L39.2885 217.198L40.1062 217.773C47.7923 206.854 59.4679 193.301 74.8835 176.94L74.1557 176.254ZM39.2885 217.198L38.4707 216.622C34.5861 222.141 31.6871 227.024 29.8234 231.285L30.7396 231.686L31.6559 232.087C33.4457 227.994 36.2634 223.233 40.1062 217.773L39.2885 217.198ZM30.7396 231.686L29.8234 231.285C27.9622 235.542 27.1161 239.219 27.383 242.31L28.3793 242.224L29.3756 242.138C29.1493 239.518 29.8588 236.197 31.6559 232.087L30.7396 231.686ZM28.3793 242.224L27.383 242.31C27.6523 245.428 29.052 247.921 31.6012 249.773L32.1889 248.963L32.7766 248.154C30.698 246.645 29.5951 244.68 29.3756 242.138L28.3793 242.224ZM32.1889 248.963L31.6012 249.773C34.129 251.609 37.7612 252.797 42.4803 253.399L42.6068 252.407L42.7333 251.415C38.174 250.833 34.9195 249.711 32.7765 248.154L32.1889 248.963ZM42.6068 252.407L42.4803 253.399C51.3298 254.527 64.1761 253.613 81.221 250.814L81.059 249.827L80.8969 248.84C63.8878 251.633 51.2806 252.505 42.7333 251.415L42.6068 252.407ZM81.059 249.827L82.0561 249.903C83.0027 237.516 93.3554 227.758 105.986 227.758L105.986 226.758L105.986 225.758C92.3019 225.758 81.0875 236.329 80.0619 249.751L81.059 249.827ZM105.986 226.758L105.986 227.758C119.24 227.759 129.986 238.504 129.986 251.758L130.986 251.758L131.986 251.758C131.985 237.399 120.345 225.759 105.986 225.758L105.986 226.758ZM130.986 251.758L129.986 251.758C129.986 265.013 119.24 275.758 105.986 275.758L105.986 276.758L105.986 277.758C120.345 277.758 131.986 266.118 131.986 251.758L130.986 251.758ZM105.986 276.758L105.986 275.758C98.4339 275.758 91.6984 272.27 87.2973 266.814L86.5189 267.442L85.7406 268.07C90.5049 273.976 97.8032 277.758 105.986 277.758L105.986 276.758ZM86.5189 267.442L86.3332 266.459C59.1606 271.595 39.7131 272.213 26.8709 269.22L26.6439 270.194L26.417 271.168C39.6738 274.257 59.4554 273.575 86.7047 268.425L86.5189 267.442ZM26.6439 270.194L26.8709 269.22C20.3289 267.695 15.5348 265.242 12.3014 262.007L11.5941 262.714L10.8869 263.421C14.4645 267 19.6401 269.589 26.417 271.168L26.6439 270.194ZM11.5941 262.714L12.3014 262.007C9.07609 258.781 7.36959 254.744 7.05386 249.977L6.05605 250.044L5.05823 250.11C5.40267 255.309 7.28504 259.818 10.8869 263.421L11.5941 262.714ZM6.05605 250.044L7.05386 249.977C6.4197 240.401 11.4011 227.89 21.0225 213.309L20.1879 212.758L19.3532 212.208C9.68743 226.855 4.37824 239.841 5.05823 250.11L6.05605 250.044ZM20.1879 212.758L21.0225 213.309C30.6298 198.75 44.8078 182.211 62.4289 164.604L61.7221 163.897L61.0152 163.19C43.3426 180.848 29.0628 197.494 19.3532 212.208L20.1879 212.758Z" fill="black" mask="url(#path-24-outside-6_108_2890)"/>
<defs>
<filter id="filter0_d_108_2890" x="21.6777" y="0" width="270.025" height="95.1094" filterUnits="userSpaceOnUse" color-interpolation-filters="sRGB">
<feFlood flood-opacity="0" result="BackgroundImageFix"/>
<feColorMatrix in="SourceAlpha" type="matrix" values="0 0 0 0 0 0 0 0 0 0 0 0 0 0 0 0 0 0 127 0" result="hardAlpha"/>
<feOffset dy="4"/>
<feGaussianBlur stdDeviation="2"/>
<feComposite in2="hardAlpha" operator="out"/>
<feColorMatrix type="matrix" values="0 0 0 0 0 0 0 0 0 0 0 0 0 0 0 0 0 0 0.25 0"/>
<feBlend mode="normal" in2="BackgroundImageFix" result="effect1_dropShadow_108_2890"/>
<feBlend mode="normal" in="SourceGraphic" in2="effect1_dropShadow_108_2890" result="shape"/>
</filter>
</defs>
</svg>
