<svg width="406" height="447" viewBox="0 0 406 447" fill="none" xmlns="http://www.w3.org/2000/svg">
<mask id="path-1-outside-1_108_2927" maskUnits="userSpaceOnUse" x="245.277" y="200.293" width="161" height="88" fill="black">
<rect fill="white" x="245.277" y="200.293" width="161" height="88"/>
<path d="M251.866 205.01C256.332 201.058 263.258 201.408 266.983 206.12C272.644 213.28 278.249 218.189 284.012 223.302C289.771 228.412 295.679 233.72 301.886 241.65C309.616 250.962 316.393 256.625 323.739 259.641C331.08 262.654 339.05 263.048 349.218 261.702C350.316 261.557 351.414 261.267 352.455 260.868C352.717 260.768 352.976 260.665 353.233 260.565C353.081 259.447 353.001 258.306 353.001 257.146C353.001 243.258 364.259 231.999 378.147 231.999C392.036 231.999 403.294 243.257 403.294 257.146C403.294 271.034 392.036 282.292 378.147 282.292C374.174 282.292 370.417 281.369 367.076 279.729C365.566 280.637 363.981 281.585 362.313 282.571C360.244 283.796 357.911 284.554 355.513 284.766C345.692 285.63 338.3 285.89 330.777 284.658C323.252 283.426 315.627 280.709 305.323 275.663C303.583 274.811 302.008 273.619 300.686 272.213C276.736 246.74 265.655 236.526 249.998 221.43C247.657 219.173 246.95 216.089 247.41 213.079C247.869 210.076 249.492 207.111 251.866 205.01Z"/>
</mask>
<path d="M251.866 205.01C256.332 201.058 263.258 201.408 266.983 206.12C272.644 213.28 278.249 218.189 284.012 223.302C289.771 228.412 295.679 233.72 301.886 241.65C309.616 250.962 316.393 256.625 323.739 259.641C331.08 262.654 339.05 263.048 349.218 261.702C350.316 261.557 351.414 261.267 352.455 260.868C352.717 260.768 352.976 260.665 353.233 260.565C353.081 259.447 353.001 258.306 353.001 257.146C353.001 243.258 364.259 231.999 378.147 231.999C392.036 231.999 403.294 243.257 403.294 257.146C403.294 271.034 392.036 282.292 378.147 282.292C374.174 282.292 370.417 281.369 367.076 279.729C365.566 280.637 363.981 281.585 362.313 282.571C360.244 283.796 357.911 284.554 355.513 284.766C345.692 285.63 338.3 285.89 330.777 284.658C323.252 283.426 315.627 280.709 305.323 275.663C303.583 274.811 302.008 273.619 300.686 272.213C276.736 246.74 265.655 236.526 249.998 221.43C247.657 219.173 246.95 216.089 247.41 213.079C247.869 210.076 249.492 207.111 251.866 205.01Z" fill="white"/>
<path d="M251.866 205.01L250.541 203.512L250.541 203.512L251.866 205.01ZM266.983 206.12L268.552 204.88L268.552 204.88L266.983 206.12ZM284.012 223.302L285.339 221.806H285.339L284.012 223.302ZM301.886 241.65L300.311 242.883L300.329 242.906L300.347 242.928L301.886 241.65ZM323.739 259.641L322.98 261.491L322.98 261.491L323.739 259.641ZM349.218 261.702L349.48 263.685L349.48 263.685L349.218 261.702ZM352.455 260.868L353.171 262.736L353.171 262.736L352.455 260.868ZM353.233 260.565L353.953 262.431L355.428 261.862L355.215 260.296L353.233 260.565ZM353.001 257.146L351.001 257.145V257.146H353.001ZM378.147 231.999V229.999H378.147L378.147 231.999ZM403.294 257.146H405.294V257.145L403.294 257.146ZM378.147 282.292L378.147 284.292H378.147V282.292ZM367.076 279.729L367.958 277.933L366.98 277.453L366.046 278.014L367.076 279.729ZM362.313 282.571L361.295 280.85H361.295L362.313 282.571ZM355.513 284.766L355.688 286.758L355.688 286.758L355.513 284.766ZM330.777 284.658L330.454 286.632H330.454L330.777 284.658ZM305.323 275.663L304.444 277.459H304.444L305.323 275.663ZM300.686 272.213L302.143 270.843H302.143L300.686 272.213ZM249.998 221.43L248.61 222.869H248.61L249.998 221.43ZM247.41 213.079L245.433 212.777L245.433 212.777L247.41 213.079ZM251.866 205.01L253.192 206.508C256.864 203.258 262.455 203.617 265.415 207.361L266.983 206.12L268.552 204.88C264.061 199.2 255.801 198.857 250.541 203.512L251.866 205.01ZM266.983 206.12L265.414 207.36C271.2 214.679 276.934 219.696 282.684 224.798L284.012 223.302L285.339 221.806C279.565 216.683 274.089 211.882 268.552 204.88L266.983 206.12ZM284.012 223.302L282.684 224.798C288.433 229.898 294.223 235.105 300.311 242.883L301.886 241.65L303.461 240.418C297.135 232.334 291.109 226.925 285.339 221.806L284.012 223.302ZM301.886 241.65L300.347 242.928C308.175 252.358 315.203 258.299 322.98 261.491L323.739 259.641L324.499 257.79C317.583 254.952 311.057 249.566 303.425 240.373L301.886 241.65ZM323.739 259.641L322.98 261.491C330.771 264.689 339.135 265.055 349.48 263.685L349.218 261.702L348.955 259.719C338.966 261.042 331.389 260.619 324.499 257.79L323.739 259.641ZM349.218 261.702L349.48 263.685C350.746 263.517 351.996 263.186 353.171 262.736L352.455 260.868L351.739 259.001C350.833 259.348 349.886 259.596 348.955 259.719L349.218 261.702ZM352.455 260.868L353.171 262.736C353.41 262.644 353.747 262.511 353.953 262.431L353.233 260.565L352.514 258.699C352.205 258.819 352.024 258.892 351.739 259.001L352.455 260.868ZM353.233 260.565L355.215 260.296C355.075 259.265 355.001 258.213 355.001 257.146H353.001H351.001C351.001 258.398 351.088 259.63 351.252 260.835L353.233 260.565ZM353.001 257.146L355.001 257.146C355.001 244.362 365.364 233.999 378.147 233.999L378.147 231.999L378.147 229.999C363.155 229.999 351.001 242.153 351.001 257.145L353.001 257.146ZM378.147 231.999V233.999C390.931 233.999 401.294 244.362 401.294 257.146L403.294 257.146L405.294 257.145C405.294 242.153 393.14 229.999 378.147 229.999V231.999ZM403.294 257.146H401.294C401.294 269.929 390.931 280.292 378.147 280.292V282.292V284.292C393.14 284.292 405.294 272.138 405.294 257.146H403.294ZM378.147 282.292L378.147 280.292C374.487 280.292 371.031 279.443 367.958 277.933L367.076 279.729L366.194 281.524C369.803 283.296 373.861 284.292 378.147 284.292L378.147 282.292ZM367.076 279.729L366.046 278.014C364.537 278.921 362.957 279.867 361.295 280.85L362.313 282.571L363.332 284.293C365.005 283.303 366.594 282.352 368.107 281.443L367.076 279.729ZM362.313 282.571L361.295 280.85C359.478 281.925 357.433 282.589 355.337 282.773L355.513 284.766L355.688 286.758C358.388 286.52 361.009 285.667 363.332 284.293L362.313 282.571ZM355.513 284.766L355.337 282.773C345.552 283.635 338.365 283.874 331.1 282.684L330.777 284.658L330.454 286.632C338.234 287.905 345.832 287.626 355.688 286.758L355.513 284.766ZM330.777 284.658L331.1 282.684C323.843 281.496 316.415 278.868 306.203 273.867L305.323 275.663L304.444 277.459C314.839 282.55 322.661 285.356 330.454 286.632L330.777 284.658ZM305.323 275.663L306.203 273.867C304.693 273.128 303.311 272.085 302.143 270.843L300.686 272.213L299.228 273.583C300.705 275.153 302.473 276.494 304.444 277.459L305.323 275.663ZM300.686 272.213L302.143 270.843C278.154 245.328 267.036 235.079 251.386 219.99L249.998 221.43L248.61 222.869C264.273 237.972 275.319 248.152 299.228 273.583L300.686 272.213ZM249.998 221.43L251.386 219.99C249.607 218.274 249.004 215.89 249.387 213.381L247.41 213.079L245.433 212.777C244.896 216.288 245.708 220.072 248.61 222.869L249.998 221.43ZM247.41 213.079L249.387 213.381C249.774 210.853 251.158 208.307 253.192 206.507L251.866 205.01L250.541 203.512C247.826 205.915 245.965 209.299 245.433 212.777L247.41 213.079Z" fill="black" mask="url(#path-1-outside-1_108_2927)"/>
<path d="M117.629 283.564L82.2506 268.314C48.308 253.683 26.7617 219.787 27.9207 182.843L29.5 132.5L28.5329 102.107C27.1473 58.5567 62.0749 22.5 105.647 22.5C111.199 22.5 116.736 21.9006 122.16 20.7122L175.237 9.08297C193.306 5.12402 212.156 6.8288 229.221 13.9653L258 26C297.93 36.8633 325.328 73.5607 324.37 114.931L323.5 152.547L324.22 183.345C325.247 227.322 294.335 265.598 251.127 273.85L170.138 289.317C152.453 292.695 134.162 290.69 117.629 283.564Z" fill="black"/>
<mask id="path-4-outside-2_108_2927" maskUnits="userSpaceOnUse" x="195" y="261" width="58" height="186" fill="black">
<rect fill="white" x="195" y="261" width="58" height="186"/>
<path d="M209.575 264.167C213.463 263.27 217.227 266.093 217.497 270.074C220.649 316.632 224.287 342.651 214.535 410.291C214.351 411.567 213.858 412.773 213.122 413.807C216.45 412.938 220.13 412.454 224 412.454C238.912 412.454 251 419.618 251 428.454C251 437.291 238.912 444.454 224 444.454C209.088 444.454 197 437.291 197 428.454C197 426.176 197.804 424.01 199.252 422.049C210.385 360.042 210.231 326.218 204.594 271.148C204.261 267.899 206.393 264.901 209.575 264.167Z"/>
</mask>
<path d="M209.575 264.167C213.463 263.27 217.227 266.093 217.497 270.074C220.649 316.632 224.287 342.651 214.535 410.291C214.351 411.567 213.858 412.773 213.122 413.807C216.45 412.938 220.13 412.454 224 412.454C238.912 412.454 251 419.618 251 428.454C251 437.291 238.912 444.454 224 444.454C209.088 444.454 197 437.291 197 428.454C197 426.176 197.804 424.01 199.252 422.049C210.385 360.042 210.231 326.218 204.594 271.148C204.261 267.899 206.393 264.901 209.575 264.167Z" fill="white"/>
<path d="M209.575 264.167L209.125 262.218L209.125 262.218L209.575 264.167ZM217.497 270.074L219.493 269.939L219.493 269.939L217.497 270.074ZM214.535 410.291L212.556 410.006V410.006L214.535 410.291ZM213.122 413.807L211.493 412.647L208.298 417.134L213.627 415.742L213.122 413.807ZM199.252 422.049L200.861 423.237L201.138 422.861L201.22 422.402L199.252 422.049ZM204.594 271.148L206.583 270.945V270.945L204.594 271.148ZM209.575 264.167L210.025 266.116C212.699 265.499 215.314 267.443 215.502 270.209L217.497 270.074L219.493 269.939C219.141 264.744 214.226 261.041 209.125 262.218L209.575 264.167ZM217.497 270.074L215.502 270.209C218.654 316.761 222.275 342.594 212.556 410.006L214.535 410.291L216.515 410.576C226.299 342.708 222.645 316.504 219.493 269.939L217.497 270.074ZM214.535 410.291L212.556 410.006C212.418 410.959 212.049 411.866 211.493 412.647L213.122 413.807L214.751 414.967C215.668 413.68 216.284 412.175 216.515 410.576L214.535 410.291ZM213.122 413.807L213.627 415.742C216.784 414.917 220.294 414.454 224 414.454V412.454V410.454C219.965 410.454 216.115 410.958 212.617 411.872L213.122 413.807ZM224 412.454V414.454C231.16 414.454 237.545 416.178 242.072 418.861C246.643 421.57 249 425.027 249 428.454H251H253C253 423.045 249.312 418.502 244.111 415.42C238.867 412.312 231.752 410.454 224 410.454V412.454ZM251 428.454H249C249 431.882 246.643 435.338 242.072 438.047C237.545 440.73 231.16 442.454 224 442.454V444.454V446.454C231.752 446.454 238.867 444.596 244.111 441.488C249.312 438.406 253 433.863 253 428.454H251ZM224 444.454V442.454C216.84 442.454 210.455 440.73 205.928 438.047C201.357 435.338 199 431.882 199 428.454H197H195C195 433.863 198.688 438.406 203.889 441.488C209.133 444.596 216.248 446.454 224 446.454V444.454ZM197 428.454H199C199 426.67 199.625 424.912 200.861 423.237L199.252 422.049L197.643 420.861C195.984 423.109 195 425.682 195 428.454H197ZM199.252 422.049L201.22 422.402C212.391 360.187 212.237 326.173 206.583 270.945L204.594 271.148L202.604 271.352C208.225 326.263 208.379 359.898 197.283 421.695L199.252 422.049ZM204.594 271.148L206.583 270.945C206.353 268.693 207.831 266.622 210.025 266.116L209.575 264.167L209.125 262.218C204.955 263.181 202.169 267.106 202.604 271.352L204.594 271.148Z" fill="black" mask="url(#path-4-outside-2_108_2927)"/>
<mask id="path-6-outside-3_108_2927" maskUnits="userSpaceOnUse" x="67" y="258" width="58" height="186" fill="black">
<rect fill="white" x="67" y="258" width="58" height="186"/>
<path d="M110.425 261.167C106.537 260.27 102.773 263.093 102.503 267.074C99.3506 313.632 95.713 339.651 105.465 407.291C105.649 408.567 106.142 409.773 106.878 410.807C103.55 409.938 99.8702 409.454 96 409.454C81.0883 409.454 69 416.618 69 425.454C69 434.291 81.0883 441.454 96 441.454C110.912 441.454 123 434.291 123 425.454C123 423.176 122.196 421.01 120.748 419.049C109.615 357.042 109.769 323.218 115.406 268.148C115.739 264.899 113.607 261.901 110.425 261.167Z"/>
</mask>
<path d="M110.425 261.167C106.537 260.27 102.773 263.093 102.503 267.074C99.3506 313.632 95.713 339.651 105.465 407.291C105.649 408.567 106.142 409.773 106.878 410.807C103.55 409.938 99.8702 409.454 96 409.454C81.0883 409.454 69 416.618 69 425.454C69 434.291 81.0883 441.454 96 441.454C110.912 441.454 123 434.291 123 425.454C123 423.176 122.196 421.01 120.748 419.049C109.615 357.042 109.769 323.218 115.406 268.148C115.739 264.899 113.607 261.901 110.425 261.167Z" fill="white"/>
<path d="M110.425 261.167L110.875 259.218L110.875 259.218L110.425 261.167ZM102.503 267.074L100.507 266.939L100.507 266.939L102.503 267.074ZM105.465 407.291L107.444 407.006V407.006L105.465 407.291ZM106.878 410.807L108.507 409.647L111.702 414.134L106.373 412.742L106.878 410.807ZM120.748 419.049L119.139 420.237L118.862 419.861L118.78 419.402L120.748 419.049ZM115.406 268.148L113.417 267.945V267.945L115.406 268.148ZM110.425 261.167L109.975 263.116C107.301 262.499 104.686 264.443 104.498 267.209L102.503 267.074L100.507 266.939C100.859 261.744 105.774 258.041 110.875 259.218L110.425 261.167ZM102.503 267.074L104.498 267.209C101.346 313.761 97.7255 339.594 107.444 407.006L105.465 407.291L103.485 407.576C93.7006 339.708 97.3548 313.504 100.507 266.939L102.503 267.074ZM105.465 407.291L107.444 407.006C107.582 407.959 107.951 408.866 108.507 409.647L106.878 410.807L105.249 411.967C104.332 410.68 103.716 409.175 103.485 407.576L105.465 407.291ZM106.878 410.807L106.373 412.742C103.216 411.917 99.7059 411.454 96 411.454V409.454V407.454C100.035 407.454 103.885 407.958 107.383 408.872L106.878 410.807ZM96 409.454V411.454C88.84 411.454 82.4551 413.178 77.9277 415.861C73.3565 418.57 71 422.027 71 425.454H69H67C67 420.045 70.6876 415.502 75.8885 412.42C81.1332 409.312 88.2483 407.454 96 407.454V409.454ZM69 425.454H71C71 428.882 73.3565 432.338 77.9277 435.047C82.4551 437.73 88.84 439.454 96 439.454V441.454V443.454C88.2483 443.454 81.1332 441.596 75.8885 438.488C70.6876 435.406 67 430.863 67 425.454H69ZM96 441.454V439.454C103.16 439.454 109.545 437.73 114.072 435.047C118.643 432.338 121 428.882 121 425.454H123H125C125 430.863 121.312 435.406 116.111 438.488C110.867 441.596 103.752 443.454 96 443.454V441.454ZM123 425.454H121C121 423.67 120.375 421.912 119.139 420.237L120.748 419.049L122.357 417.861C124.016 420.109 125 422.682 125 425.454H123ZM120.748 419.049L118.78 419.402C107.609 357.187 107.763 323.173 113.417 267.945L115.406 268.148L117.396 268.352C111.775 323.263 111.621 356.898 122.717 418.695L120.748 419.049ZM115.406 268.148L113.417 267.945C113.647 265.693 112.169 263.622 109.975 263.116L110.425 261.167L110.875 259.218C115.045 260.181 117.831 264.106 117.396 268.352L115.406 268.148Z" fill="black" mask="url(#path-6-outside-3_108_2927)"/>
<path d="M151.374 227.657L151.144 160.231C151.148 151.576 150.73 133.953 151.713 125.976L151.714 125.966C152.405 119.868 154.627 114.044 158.173 109.039L158.174 109.038C162.532 102.865 166.832 99.6239 171.723 97.5361C176.682 95.4189 182.249 94.476 189.304 92.9473L189.305 92.9482L216.998 87.0049L216.999 87.0039L271.087 75.3535C280.946 73.2294 292.07 70.5827 301.823 68.8711C306.619 68.2735 312.181 69.7667 315.927 72.7178C325.044 79.8994 325.074 91.4232 324.873 102.594C324.809 106.169 324.835 109.831 324.85 113.442L324.856 117.033L324.822 168.167L324.791 214.363H324.79L324.791 214.364C324.807 230.858 327.012 243.846 316.516 256.933C308.175 267.331 299.559 268.52 287.48 270.981L285.018 271.494L253.674 278.153H253.672L203.056 289H203.055C195.502 290.626 182.363 293.856 175.062 294.719C169.906 294.931 165.514 294.399 161.389 291.604L160.989 291.325C155.705 287.534 153.307 282.479 152.223 276.864C151.128 271.194 151.388 265.065 151.37 259.112L151.374 227.66V227.657Z" fill="white" stroke="black" stroke-width="2"/>
<path d="M38.4508 49.8793C43.2557 49.6169 46.9102 51.5637 51.1072 53.663L99.4882 78.4305C117.475 87.6848 130.798 90.5667 137.61 111.355C139.147 115.981 140.086 120.78 140.404 125.642C140.918 133.477 140.645 143.535 140.643 151.475L140.607 197.87L140.534 244.715C140.526 253.588 140.678 262.606 140.315 271.459C139.974 279.777 137.379 287.187 128.812 289.873C122.232 290.182 116.32 286.358 110.597 283.41L94.0116 274.799L48.0169 250.911C42.0588 247.77 39.0041 245.475 35.1589 239.84C24.1279 223.681 26.1351 206.493 26.155 187.855L26.2392 139.727L26.3763 92.6383C26.4034 87.4168 26.33 82.1764 26.4154 76.9549C26.5873 66.4986 26.2363 53.4032 38.4508 49.8793Z" fill="white"/>
<path d="M38.6182 50.873C43.0572 50.6636 46.449 52.4512 50.6602 54.5576V54.5566L99.0303 79.3184V79.3193C103.536 81.6376 107.785 83.5744 111.636 85.4541C115.509 87.3449 119.018 89.196 122.168 91.3887C128.421 95.741 133.322 101.48 136.66 111.666L136.661 111.67C138.171 116.215 139.093 120.93 139.405 125.707H139.406C139.853 132.525 139.701 141.026 139.654 148.395L139.643 151.475L139.606 197.869L139.533 244.713V244.714C139.526 253.611 139.677 262.592 139.315 271.419C139.148 275.501 138.429 279.26 136.771 282.299C135.147 285.273 132.598 287.605 128.638 288.878C125.603 288.994 122.679 288.182 119.775 286.943C116.803 285.676 113.979 284.027 111.054 282.521L94.4727 273.911L48.4775 250.023C45.5231 248.466 43.345 247.146 41.4385 245.545C39.5376 243.948 37.8718 242.041 35.9854 239.276H35.9844C25.1725 223.438 27.1352 206.656 27.1553 187.857L27.2393 139.729L27.376 92.6436C27.4033 87.3909 27.3296 82.1912 27.415 76.9717C27.5019 71.685 27.4629 65.9583 28.877 61.0967C30.2581 56.3482 32.9935 52.5347 38.6182 50.873Z" fill="white" stroke="black" stroke-width="2"/>
<path d="M49.992 190.426C67.0511 190.497 75.24 229.879 59.8718 234.313C43.5858 234.942 34.0103 195.606 49.992 190.426Z" fill="black"/>
<path d="M106.245 105.176C123.608 104.278 132.114 142.603 117.049 148.634C102.434 150.99 90.1192 113.213 106.245 105.176Z" fill="black"/>
<g filter="url(#filter0_d_108_2927)">
<path d="M192.371 1.13379C201.536 0.662839 210.74 1.38155 219.483 4.1123C224.307 5.61841 229.465 8.54031 234.224 10.9131L234.227 10.9141C242.474 14.996 250.689 19.1406 258.873 23.3467L258.88 23.3496L288.561 38.3193V38.3203C293.445 40.8023 298.698 43.1999 303.155 46.0762C305.541 47.6157 306.449 48.9435 306.654 49.9619C306.848 50.9257 306.465 51.9107 305.47 52.9414C304.471 53.9754 302.97 54.9237 301.288 55.7275C299.618 56.5256 297.833 57.1508 296.321 57.5625C289.145 59.5171 281.996 60.9227 274.747 62.4492L271.634 63.1133L225.214 73.1289H225.213L188.46 81.1025C179.301 83.0637 170.417 85.2579 161.203 85.9043H161.191L161.18 85.9053C153.412 86.6313 140.647 85.3436 133.422 82.9414H133.421C127.712 81.0461 119.367 76.4706 113.572 73.5264L80.2451 56.5273L80.2412 56.5254L60.833 46.7236C57.3031 44.9412 53.4461 43.2306 50.2979 41.1514C47.9278 39.586 46.9781 38.212 46.7422 37.127C46.5177 36.0942 46.8875 35.0573 47.8516 33.9922C48.8239 32.918 50.3119 31.9267 52.0225 31.0859C53.7212 30.251 55.5765 29.5947 57.2256 29.165C64.8338 27.1833 72.5302 25.7115 80.291 24.0742L122.82 15.0898H122.822L162.343 6.65625H162.344C172.189 4.54311 182.52 2.04094 192.371 1.13379Z" fill="white" stroke="black" stroke-width="2"/>
<path d="M174.506 36.0796C180.393 35.7707 198.532 36.0123 200.249 43.3904C201.496 48.7368 185.437 50.4593 182.237 50.7648C175.418 51.087 164.71 50.5202 158.849 46.7973C153.155 43.18 157.386 39.5664 161.988 38.2038C166.62 36.8328 169.709 36.4292 174.506 36.0796Z" fill="black"/>
</g>
<mask id="path-15-outside-4_108_2927" maskUnits="userSpaceOnUse" x="-0.00585938" y="156" width="90" height="209" fill="black">
<rect fill="white" x="-0.00585938" y="156" width="90" height="209"/>
<path d="M87.9941 165.894C87.9934 159.231 79.4622 156.432 75.5977 161.89C62.8355 179.915 52.5352 196.41 43.7803 219.077C35.0648 241.642 27.8898 270.306 21.3203 312.664C10.2418 315.292 2.00012 325.249 2 337.131C2 351.019 13.2585 362.277 27.1465 362.277C41.0346 362.277 52.293 351.019 52.293 337.131C52.2929 326.125 45.2225 316.771 35.376 313.362V313.357C41.9177 273.13 48.5749 246.876 56.7012 225.848C64.826 204.824 74.4274 189.004 86.8877 169.643C87.6041 168.529 87.9941 167.22 87.9941 165.894Z"/>
</mask>
<path d="M87.9941 165.894C87.9934 159.231 79.4622 156.432 75.5977 161.89C62.8355 179.915 52.5352 196.41 43.7803 219.077C35.0648 241.642 27.8898 270.306 21.3203 312.664C10.2418 315.292 2.00012 325.249 2 337.131C2 351.019 13.2585 362.277 27.1465 362.277C41.0346 362.277 52.293 351.019 52.293 337.131C52.2929 326.125 45.2225 316.771 35.376 313.362V313.357C41.9177 273.13 48.5749 246.876 56.7012 225.848C64.826 204.824 74.4274 189.004 86.8877 169.643C87.6041 168.529 87.9941 167.22 87.9941 165.894Z" fill="white"/>
<path d="M87.9941 165.894L89.9941 165.893V165.894H87.9941ZM75.5977 161.89L73.9654 160.734L73.9654 160.734L75.5977 161.89ZM43.7803 219.077L41.9146 218.357L41.9146 218.357L43.7803 219.077ZM21.3203 312.664L23.2967 312.971L23.0906 314.3L21.782 314.61L21.3203 312.664ZM2 337.131H0V337.131L2 337.131ZM27.1465 362.277V364.277H27.1465L27.1465 362.277ZM52.293 337.131L54.293 337.131V337.131H52.293ZM35.376 313.362L34.7217 315.252L33.376 314.786V313.362H35.376ZM35.376 313.357H33.376V313.196L33.4019 313.036L35.376 313.357ZM56.7012 225.848L54.8356 225.127V225.127L56.7012 225.848ZM86.8877 169.643L88.5696 170.725L88.5695 170.725L86.8877 169.643ZM87.9941 165.894L85.9941 165.894C85.9936 161.126 79.9359 159.224 77.2299 163.045L75.5977 161.89L73.9654 160.734C78.9886 153.64 89.9932 157.336 89.9941 165.893L87.9941 165.894ZM75.5977 161.89L77.2299 163.045C64.5169 181.001 54.3181 197.345 45.6459 219.798L43.7803 219.077L41.9146 218.357C50.7523 195.475 61.1541 178.828 73.9654 160.734L75.5977 161.89ZM43.7803 219.077L45.646 219.798C37.0023 242.177 29.8549 270.685 23.2967 312.971L21.3203 312.664L19.3439 312.358C25.9248 269.927 33.1274 241.107 41.9146 218.357L43.7803 219.077ZM21.3203 312.664L21.782 314.61C11.5845 317.029 4.00011 326.196 4 337.131L2 337.131L0 337.131C0.00012207 324.301 8.89911 313.555 20.8587 310.718L21.3203 312.664ZM2 337.131H4C4 349.914 14.363 360.277 27.1465 360.277L27.1465 362.277L27.1465 364.277C12.1539 364.277 0 352.123 0 337.131H2ZM27.1465 362.277V360.277C39.93 360.277 50.293 349.914 50.293 337.131H52.293H54.293C54.293 352.124 42.1392 364.277 27.1465 364.277V362.277ZM52.293 337.131L50.293 337.131C50.2929 327.003 43.7877 318.391 34.7217 315.252L35.376 313.362L36.0302 311.472C46.6573 315.151 54.2929 325.246 54.293 337.131L52.293 337.131ZM35.376 313.362H33.376V313.357H35.376H37.376V313.362H35.376ZM35.376 313.357L33.4019 313.036C39.9545 272.743 46.639 246.337 54.8356 225.127L56.7012 225.848L58.5667 226.569C50.5107 247.415 43.881 273.518 37.35 313.678L35.376 313.357ZM56.7012 225.848L54.8356 225.127C63.0369 203.905 72.7305 187.945 85.2059 168.56L86.8877 169.643L88.5695 170.725C76.1242 190.063 66.6151 205.743 58.5667 226.569L56.7012 225.848ZM86.8877 169.643L85.2058 168.56C85.7172 167.766 85.9941 166.831 85.9941 165.894H87.9941H89.9941C89.9941 167.609 89.491 169.293 88.5696 170.725L86.8877 169.643Z" fill="black" mask="url(#path-15-outside-4_108_2927)"/>
<path d="M308.989 128.015C308.959 127.551 308.873 127.094 308.726 126.627C307.934 124.119 305.073 123.071 302.445 123.199C289.118 123.85 279.775 124.566 263.01 127.603C260.094 128.131 257.413 130.238 257.349 133.2C257.315 134.76 257.678 136.055 258.488 137.327C259.681 139.202 262.025 139.88 264.24 139.712C281.06 138.438 290.376 136.362 304.17 132.96C306.662 132.346 309.151 130.576 308.989 128.015Z" fill="black"/>
<path d="M170.902 132.397C190.344 120.835 201.927 121.929 218.204 130.587C220.97 132.059 221.675 135.671 219.772 138.159C218.131 140.305 215.128 140.811 212.761 139.508C199.468 132.192 190.487 133.452 177.514 141.948C174.732 143.77 170.961 143.1 169.148 140.312C167.407 137.633 168.156 134.03 170.902 132.397Z" fill="black"/>
<path d="M203.619 233.482L276.302 223.814C279.557 223.381 281.835 220.38 281.379 217.129C280.925 213.897 277.938 211.643 274.705 212.095L202.086 222.237C198.966 222.673 196.798 225.567 197.258 228.684C197.71 231.754 200.544 233.891 203.619 233.482Z" fill="black"/>
<path fill-rule="evenodd" clip-rule="evenodd" d="M305.063 145.924C291.882 145.793 281.899 146.107 265.929 146.749C263.479 146.848 261.606 149.134 261.586 151.587C261.582 152.066 261.571 152.548 261.553 153.025C261.527 153.764 261.689 154.47 261.997 155.09C261.515 156.544 261.26 158.157 261.26 159.906C261.26 168.169 266.961 176.365 275.224 176.365C283.488 176.365 290.186 169.665 290.186 161.402C290.186 159.135 289.681 156.985 288.778 155.059C293.783 154.354 298.89 153.633 304.784 153.116C306.237 152.989 307.587 152.117 308.001 150.719C308.499 149.034 308.321 148.027 307.699 147.121C307.123 146.283 306.08 145.934 305.063 145.924Z" fill="black"/>
<path fill-rule="evenodd" clip-rule="evenodd" d="M217.136 157.443C203.954 157.313 193.972 157.626 178.002 158.268C175.551 158.367 173.678 160.653 173.658 163.106C173.654 163.585 173.643 164.067 173.626 164.545C173.599 165.283 173.761 165.99 174.069 166.609C173.588 168.064 173.332 169.676 173.332 171.425C173.332 179.688 179.033 187.883 187.297 187.883C195.56 187.882 202.259 181.184 202.259 172.921C202.259 170.654 201.754 168.505 200.851 166.579C205.856 165.874 210.962 165.152 216.856 164.636C218.309 164.508 219.659 163.637 220.073 162.238C220.571 160.553 220.394 159.547 219.771 158.64C219.196 157.802 218.152 157.453 217.136 157.443Z" fill="black"/>
<defs>
<filter id="filter0_d_108_2927" x="41.6777" y="0" width="270.025" height="95.1094" filterUnits="userSpaceOnUse" color-interpolation-filters="sRGB">
<feFlood flood-opacity="0" result="BackgroundImageFix"/>
<feColorMatrix in="SourceAlpha" type="matrix" values="0 0 0 0 0 0 0 0 0 0 0 0 0 0 0 0 0 0 127 0" result="hardAlpha"/>
<feOffset dy="4"/>
<feGaussianBlur stdDeviation="2"/>
<feComposite in2="hardAlpha" operator="out"/>
<feColorMatrix type="matrix" values="0 0 0 0 0 0 0 0 0 0 0 0 0 0 0 0 0 0 0.25 0"/>
<feBlend mode="normal" in2="BackgroundImageFix" result="effect1_dropShadow_108_2927"/>
<feBlend mode="normal" in="SourceGraphic" in2="effect1_dropShadow_108_2927" result="shape"/>
</filter>
</defs>
</svg>
