<svg width="451" height="465" viewBox="0 0 451 465" fill="none" xmlns="http://www.w3.org/2000/svg">
<path d="M188.629 294.017L153.251 278.767C119.308 264.136 97.7617 230.24 98.9207 193.296L100.5 142.953L99.5329 112.56C98.1473 69.0098 133.075 32.9531 176.647 32.9531C182.199 32.9531 187.736 32.3537 193.16 31.1654L246.237 19.5361C264.306 15.5771 283.156 17.2819 300.221 24.4184L329 36.4531C368.635 47.2362 396.598 83.6653 396.022 124.737L395.5 161.953L395.952 194.514C396.558 238.177 365.735 275.974 322.844 284.166L241.138 299.77C223.453 303.148 205.162 301.144 188.629 294.017Z" fill="black"/>
<g filter="url(#filter0_d_108_2784)">
<mask id="path-2-outside-1_108_2784" maskUnits="userSpaceOnUse" x="266" y="271.453" width="58" height="186" fill="black">
<rect fill="white" x="266" y="271.453" width="58" height="186"/>
<path d="M280.575 274.62C284.463 273.723 288.227 276.547 288.497 280.527C291.649 327.086 295.287 353.104 285.535 420.744C285.351 422.02 284.858 423.226 284.122 424.26C287.45 423.391 291.13 422.907 295 422.907C309.912 422.907 322 430.071 322 438.907C322 447.744 309.912 454.907 295 454.907C280.088 454.907 268 447.744 268 438.907C268 436.629 268.804 434.463 270.252 432.502C281.385 370.495 281.231 336.671 275.594 281.602C275.261 278.352 277.393 275.355 280.575 274.62Z"/>
</mask>
<path d="M280.575 274.62C284.463 273.723 288.227 276.547 288.497 280.527C291.649 327.086 295.287 353.104 285.535 420.744C285.351 422.02 284.858 423.226 284.122 424.26C287.45 423.391 291.13 422.907 295 422.907C309.912 422.907 322 430.071 322 438.907C322 447.744 309.912 454.907 295 454.907C280.088 454.907 268 447.744 268 438.907C268 436.629 268.804 434.463 270.252 432.502C281.385 370.495 281.231 336.671 275.594 281.602C275.261 278.352 277.393 275.355 280.575 274.62Z" fill="white"/>
<path d="M280.575 274.62L280.125 272.671L280.125 272.671L280.575 274.62ZM288.497 280.527L290.493 280.392L290.493 280.392L288.497 280.527ZM285.535 420.744L283.556 420.459V420.459L285.535 420.744ZM284.122 424.26L282.493 423.1L279.298 427.587L284.627 426.195L284.122 424.26ZM270.252 432.502L271.861 433.69L272.138 433.314L272.22 432.855L270.252 432.502ZM275.594 281.602L277.583 281.398V281.398L275.594 281.602ZM280.575 274.62L281.025 276.569C283.699 275.952 286.314 277.896 286.502 280.662L288.497 280.527L290.493 280.392C290.141 275.197 285.226 271.494 280.125 272.671L280.575 274.62ZM288.497 280.527L286.502 280.662C289.654 327.214 293.275 353.047 283.556 420.459L285.535 420.744L287.515 421.03C297.299 353.161 293.645 326.957 290.493 280.392L288.497 280.527ZM285.535 420.744L283.556 420.459C283.418 421.412 283.049 422.319 282.493 423.1L284.122 424.26L285.751 425.42C286.668 424.133 287.284 422.628 287.515 421.03L285.535 420.744ZM284.122 424.26L284.627 426.195C287.784 425.37 291.294 424.907 295 424.907V422.907V420.907C290.965 420.907 287.115 421.411 283.617 422.325L284.122 424.26ZM295 422.907V424.907C302.16 424.907 308.545 426.631 313.072 429.314C317.643 432.023 320 435.48 320 438.907H322H324C324 433.498 320.312 428.955 315.111 425.873C309.867 422.765 302.752 420.907 295 420.907V422.907ZM322 438.907H320C320 442.335 317.643 445.792 313.072 448.5C308.545 451.183 302.16 452.907 295 452.907V454.907V456.907C302.752 456.907 309.867 455.049 315.111 451.942C320.312 448.859 324 444.316 324 438.907H322ZM295 454.907V452.907C287.84 452.907 281.455 451.183 276.928 448.5C272.357 445.792 270 442.335 270 438.907H268H266C266 444.316 269.688 448.859 274.889 451.942C280.133 455.049 287.248 456.907 295 456.907V454.907ZM268 438.907H270C270 437.123 270.625 435.365 271.861 433.69L270.252 432.502L268.643 431.314C266.984 433.562 266 436.135 266 438.907H268ZM270.252 432.502L272.22 432.855C283.391 370.64 283.237 336.626 277.583 281.398L275.594 281.602L273.604 281.805C279.225 336.716 279.379 370.351 268.283 432.149L270.252 432.502ZM275.594 281.602L277.583 281.398C277.353 279.146 278.831 277.075 281.025 276.569L280.575 274.62L280.125 272.671C275.955 273.634 273.169 277.559 273.604 281.805L275.594 281.602Z" fill="black" mask="url(#path-2-outside-1_108_2784)"/>
</g>
<mask id="path-4-outside-2_108_2784" maskUnits="userSpaceOnUse" x="138" y="268.453" width="58" height="186" fill="black">
<rect fill="white" x="138" y="268.453" width="58" height="186"/>
<path d="M181.425 271.62C177.537 270.723 173.773 273.547 173.503 277.527C170.351 324.086 166.713 350.104 176.465 417.744C176.649 419.02 177.142 420.226 177.878 421.26C174.55 420.391 170.87 419.907 167 419.907C152.088 419.907 140 427.071 140 435.907C140 444.744 152.088 451.907 167 451.907C181.912 451.907 194 444.744 194 435.907C194 433.629 193.196 431.463 191.748 429.502C180.615 367.495 180.769 333.671 186.406 278.602C186.739 275.352 184.607 272.355 181.425 271.62Z"/>
</mask>
<path d="M181.425 271.62C177.537 270.723 173.773 273.547 173.503 277.527C170.351 324.086 166.713 350.104 176.465 417.744C176.649 419.02 177.142 420.226 177.878 421.26C174.55 420.391 170.87 419.907 167 419.907C152.088 419.907 140 427.071 140 435.907C140 444.744 152.088 451.907 167 451.907C181.912 451.907 194 444.744 194 435.907C194 433.629 193.196 431.463 191.748 429.502C180.615 367.495 180.769 333.671 186.406 278.602C186.739 275.352 184.607 272.355 181.425 271.62Z" fill="white"/>
<path d="M181.425 271.62L181.875 269.671L181.875 269.671L181.425 271.62ZM173.503 277.527L171.507 277.392L171.507 277.392L173.503 277.527ZM176.465 417.744L178.444 417.459V417.459L176.465 417.744ZM177.878 421.26L179.507 420.1L182.702 424.587L177.373 423.195L177.878 421.26ZM191.748 429.502L190.139 430.69L189.862 430.314L189.78 429.855L191.748 429.502ZM186.406 278.602L184.417 278.398V278.398L186.406 278.602ZM181.425 271.62L180.975 273.569C178.301 272.952 175.686 274.896 175.498 277.662L173.503 277.527L171.507 277.392C171.859 272.197 176.774 268.494 181.875 269.671L181.425 271.62ZM173.503 277.527L175.498 277.662C172.346 324.214 168.725 350.047 178.444 417.459L176.465 417.744L174.485 418.03C164.701 350.161 168.355 323.957 171.507 277.392L173.503 277.527ZM176.465 417.744L178.444 417.459C178.582 418.412 178.951 419.319 179.507 420.1L177.878 421.26L176.249 422.42C175.332 421.133 174.716 419.628 174.485 418.03L176.465 417.744ZM177.878 421.26L177.373 423.195C174.216 422.37 170.706 421.907 167 421.907V419.907V417.907C171.035 417.907 174.885 418.411 178.383 419.325L177.878 421.26ZM167 419.907V421.907C159.84 421.907 153.455 423.631 148.928 426.314C144.357 429.023 142 432.48 142 435.907H140H138C138 430.498 141.688 425.955 146.889 422.873C152.133 419.765 159.248 417.907 167 417.907V419.907ZM140 435.907H142C142 439.335 144.357 442.792 148.928 445.5C153.455 448.183 159.84 449.907 167 449.907V451.907V453.907C159.248 453.907 152.133 452.049 146.889 448.942C141.688 445.859 138 441.316 138 435.907H140ZM167 451.907V449.907C174.16 449.907 180.545 448.183 185.072 445.5C189.643 442.792 192 439.335 192 435.907H194H196C196 441.316 192.312 445.859 187.111 448.942C181.867 452.049 174.752 453.907 167 453.907V451.907ZM194 435.907H192C192 434.123 191.375 432.365 190.139 430.69L191.748 429.502L193.357 428.314C195.016 430.562 196 433.135 196 435.907H194ZM191.748 429.502L189.78 429.855C178.609 367.64 178.763 333.626 184.417 278.398L186.406 278.602L188.396 278.805C182.775 333.716 182.621 367.351 193.717 429.149L191.748 429.502ZM186.406 278.602L184.417 278.398C184.647 276.146 183.169 274.075 180.975 273.569L181.425 271.62L181.875 269.671C186.045 270.634 188.831 274.559 188.396 278.805L186.406 278.602Z" fill="black" mask="url(#path-4-outside-2_108_2784)"/>
<mask id="path-6-outside-3_108_2784" maskUnits="userSpaceOnUse" x="362" y="162.453" width="89" height="209" fill="black">
<rect fill="white" x="362" y="162.453" width="89" height="209"/>
<path d="M364 172.298C364 165.664 372.511 162.897 376.328 168.354C388.923 186.359 399.089 202.849 407.732 225.507C416.359 248.121 423.461 276.862 429.962 319.365C440.89 322.039 449 331.896 449 343.648C449 357.456 437.807 368.648 424 368.648C410.193 368.648 399 357.456 399 343.648C399 332.624 406.136 323.267 416.04 319.942L416.006 319.728C409.539 279.492 402.958 253.234 394.924 232.204C386.891 211.178 377.399 195.356 365.079 175.988C364.38 174.89 364 173.603 364 172.298Z"/>
</mask>
<path d="M364 172.298C364 165.664 372.511 162.897 376.328 168.354C388.923 186.359 399.089 202.849 407.732 225.507C416.359 248.121 423.461 276.862 429.962 319.365C440.89 322.039 449 331.896 449 343.648C449 357.456 437.807 368.648 424 368.648C410.193 368.648 399 357.456 399 343.648C399 332.624 406.136 323.267 416.04 319.942L416.006 319.728C409.539 279.492 402.958 253.234 394.924 232.204C386.891 211.178 377.399 195.356 365.079 175.988C364.38 174.89 364 173.603 364 172.298Z" fill="white"/>
<path d="M364 172.298L362 172.298V172.298H364ZM376.328 168.354L377.967 167.207L377.967 167.207L376.328 168.354ZM407.732 225.507L409.601 224.794V224.794L407.732 225.507ZM429.962 319.365L427.985 319.668L428.187 320.99L429.487 321.308L429.962 319.365ZM449 343.648H451V343.648H449ZM399 343.648H397V343.648H399ZM416.04 319.942L416.676 321.838L418.281 321.3L418.015 319.628L416.04 319.942ZM416.006 319.728L417.981 319.413L417.981 319.41L416.006 319.728ZM394.924 232.204L396.792 231.49V231.49L394.924 232.204ZM365.079 175.988L363.392 177.062L363.392 177.062L365.079 175.988ZM364 172.298L366 172.298C366 167.563 372.025 165.692 374.689 169.5L376.328 168.354L377.967 167.207C372.996 160.101 362 163.765 362 172.298L364 172.298ZM376.328 168.354L374.689 169.5C387.235 187.435 397.302 203.774 405.864 226.22L407.732 225.507L409.601 224.794C400.877 201.923 390.611 185.282 377.967 167.207L376.328 168.354ZM407.732 225.507L405.864 226.22C414.42 248.65 421.495 277.236 427.985 319.668L429.962 319.365L431.939 319.063C425.427 276.488 418.298 247.593 409.601 224.794L407.732 225.507ZM429.962 319.365L429.487 321.308C439.541 323.768 447 332.839 447 343.648H449H451C451 330.953 442.24 320.31 430.437 317.423L429.962 319.365ZM449 343.648H447C447 356.351 436.703 366.648 424 366.648V368.648V370.648C438.912 370.648 451 358.56 451 343.648H449ZM424 368.648V366.648C411.297 366.648 401 356.351 401 343.648H399H397C397 358.56 409.088 370.648 424 370.648V368.648ZM399 343.648H401C401 333.509 407.562 324.898 416.676 321.838L416.04 319.942L415.404 318.046C404.709 321.636 397 331.739 397 343.648H399ZM416.04 319.942L418.015 319.628L417.981 319.413L416.006 319.728L414.031 320.042L414.065 320.257L416.04 319.942ZM416.006 319.728L417.981 319.41C411.503 279.109 404.895 252.701 396.792 231.49L394.924 232.204L393.056 232.918C401.021 253.768 407.575 279.875 414.031 320.045L416.006 319.728ZM394.924 232.204L396.792 231.49C388.684 210.267 379.102 194.306 366.767 174.915L365.079 175.988L363.392 177.062C375.697 196.406 385.098 212.088 393.056 232.918L394.924 232.204ZM365.079 175.988L366.767 174.915C366.269 174.132 366 173.217 366 172.298H364H362C362 173.988 362.492 175.647 363.392 177.062L365.079 175.988Z" fill="black" mask="url(#path-6-outside-3_108_2784)"/>
<path d="M222.374 238.11L222.144 170.685C222.148 162.029 221.73 144.406 222.713 136.429L222.714 136.419C223.405 130.321 225.627 124.497 229.173 119.492L229.174 119.491C233.532 113.318 237.832 110.077 242.723 107.989C247.682 105.872 253.249 104.929 260.304 103.4L260.305 103.401L287.998 97.458L287.999 97.457L342.087 85.8066C351.946 83.6825 363.07 81.0358 372.823 79.3242C377.619 78.7266 383.181 80.2198 386.927 83.1709C396.044 90.3526 396.074 101.876 395.873 113.047C395.809 116.623 395.835 120.284 395.85 123.896L395.856 127.486L395.822 178.62L395.791 224.816V224.817C395.807 241.311 398.012 254.299 387.516 267.386C379.175 277.784 370.559 278.973 358.48 281.435L356.018 281.947L324.674 288.606H324.672L274.056 299.453H274.055C266.502 301.079 253.363 304.309 246.062 305.172C240.906 305.384 236.514 304.853 232.389 302.057L231.989 301.778C226.705 297.987 224.307 292.932 223.223 287.317C222.128 281.647 222.388 275.518 222.37 269.565L222.374 238.113V238.11Z" fill="white" stroke="black" stroke-width="2"/>
<path d="M348.599 197.252C349.941 196.084 351.817 195.805 353.544 196.231C360.748 198.008 357.287 204.231 353.268 210.314C335.122 235.518 297.843 246.701 271.303 227.741C267.974 225.191 262.324 220.549 267.244 215.491C268.391 214.312 270.345 213.421 273.572 214.973C275.937 215.893 277.643 216.989 279.61 218.563C285.046 222.912 291.666 224.973 298.53 225.782C313.688 227.497 330.104 218.96 340.27 207.899C342.905 205.027 345.525 199.925 348.599 197.252Z" fill="black"/>
<path d="M349.86 147.399C357.616 146.615 363.625 147.918 369.37 153.636C373.952 157.257 379.698 171.616 370.669 172.981C360.295 174.553 367.275 153.949 348.555 159.035L348.082 159.165C341.283 162.511 339.91 165.568 338.786 172.641C338.491 173.673 338.309 175.354 337.754 176.248C335.356 180.12 328.149 180.776 327.33 175.34C326.992 173.081 327.416 170.671 327.914 168.443C330.308 157.745 338.747 149.314 349.86 147.399Z" fill="black"/>
<path d="M265.789 165.949C281.306 164.723 289.64 172.287 291.858 186.108C291.741 189.02 290.281 189.786 288.32 190.715C281.727 193.734 280.891 188.422 279.142 184.053C276.279 176.901 270.442 175.416 263.449 177.84C255.51 181.692 254.481 186.349 253.543 193.692C253.491 194.098 253.42 194.507 253.26 194.884C251.992 197.877 247.932 199.554 245.41 198.034C239.298 194.349 243.437 182.914 246.506 178.452C251.332 171.437 257.337 167.669 265.789 165.949Z" fill="black"/>
<path d="M109.618 61.3262C114.057 61.1168 117.449 62.9044 121.66 65.0107V65.0098L170.03 89.7715V89.7725C174.536 92.0907 178.785 94.0275 182.636 95.9072C186.509 97.798 190.018 99.6491 193.168 101.842C199.421 106.194 204.322 111.933 207.66 122.119L207.661 122.123C209.171 126.668 210.093 131.383 210.405 136.16H210.406C210.853 142.978 210.701 151.479 210.654 158.848L210.643 161.928L210.606 208.322L210.533 255.166V255.167C210.526 264.064 210.677 273.045 210.315 281.872C210.148 285.955 209.429 289.713 207.771 292.752C206.147 295.726 203.598 298.058 199.638 299.331C196.603 299.448 193.679 298.635 190.775 297.396C187.803 296.129 184.979 294.48 182.054 292.974L165.473 284.364L119.478 260.477C116.523 258.919 114.345 257.599 112.438 255.998C110.538 254.401 108.872 252.494 106.985 249.729H106.984C96.1725 233.891 98.1352 217.109 98.1553 198.311L98.2393 150.183L98.376 103.097C98.4033 97.8441 98.3296 92.6443 98.415 87.4248C98.5019 82.1381 98.4629 76.4114 99.877 71.5498C101.258 66.8013 103.994 62.9878 109.618 61.3262Z" fill="white" stroke="black" stroke-width="2"/>
<path d="M109.618 61.3262C114.057 61.1168 117.449 62.9044 121.66 65.0107V65.0098L170.03 89.7715V89.7725C174.536 92.0907 178.785 94.0275 182.636 95.9072C186.509 97.798 190.018 99.6491 193.168 101.842C199.421 106.194 204.322 111.933 207.66 122.119L207.661 122.123C209.171 126.668 210.093 131.383 210.405 136.16H210.406C210.853 142.978 210.701 151.479 210.654 158.848L210.643 161.928L210.606 208.322L210.533 255.166V255.167C210.526 264.064 210.677 273.045 210.315 281.872C210.148 285.955 209.429 289.713 207.771 292.752C206.147 295.726 203.598 298.058 199.638 299.331C196.603 299.448 193.679 298.635 190.775 297.396C187.803 296.129 184.979 294.48 182.054 292.974L165.473 284.364L119.478 260.477C116.523 258.919 114.345 257.599 112.438 255.998C110.538 254.401 108.872 252.494 106.985 249.729H106.984C96.1725 233.891 98.1352 217.109 98.1553 198.311L98.2393 150.183L98.376 103.097C98.4033 97.8441 98.3296 92.6443 98.415 87.4248C98.5019 82.1381 98.4629 76.4114 99.877 71.5498C101.258 66.8013 103.994 62.9878 109.618 61.3262Z" fill="white" stroke="black" stroke-width="2"/>
<path d="M121.147 201.882C124.93 201.958 128.324 204.175 131.104 207.756C133.918 211.383 136.01 216.305 137.115 221.398C138.221 226.496 138.32 231.671 137.243 235.796C136.179 239.872 134.022 242.762 130.711 243.77C127.127 243.859 123.792 241.786 120.991 238.278C118.166 234.739 115.996 229.865 114.806 224.773C113.615 219.679 113.427 214.463 114.474 210.252C115.504 206.108 117.682 203.072 121.147 201.882Z" fill="black" stroke="black" stroke-width="2"/>
<path d="M177.503 116.62C181.349 116.496 184.787 118.487 187.612 121.837C190.491 125.25 192.654 129.991 193.834 134.989C195.014 139.988 195.191 145.154 194.186 149.396C193.189 153.597 191.076 156.749 187.779 158.115C184.645 158.571 181.492 156.933 178.676 153.757C175.84 150.559 173.495 145.951 172.081 140.981C170.667 136.012 170.208 130.773 171.057 126.329C171.889 121.97 173.951 118.474 177.503 116.62Z" fill="black" stroke="black" stroke-width="2"/>
<g filter="url(#filter1_d_108_2784)">
<path d="M263.371 11.5869C272.536 11.116 281.74 11.8347 290.483 14.5654C295.307 16.0715 300.465 18.9934 305.224 21.3662L305.227 21.3672C313.474 25.4491 321.689 29.5937 329.873 33.7998L329.88 33.8027L359.561 48.7725V48.7734C364.445 51.2554 369.698 53.653 374.155 56.5293C376.541 58.0688 377.449 59.3966 377.654 60.415C377.848 61.3789 377.465 62.3639 376.47 63.3945C375.471 64.4286 373.97 65.3768 372.288 66.1807C370.618 66.9787 368.833 67.6039 367.321 68.0156C360.145 69.9702 352.996 71.3758 345.747 72.9023L342.634 73.5664L296.214 83.582H296.213L259.46 91.5557C250.301 93.5168 241.417 95.7111 232.203 96.3574H232.191L232.18 96.3584C224.412 97.0845 211.647 95.7967 204.422 93.3945H204.421C198.712 91.4992 190.367 86.9237 184.572 83.9795L151.245 66.9805L151.241 66.9785L131.833 57.1768C128.303 55.3943 124.446 53.6838 121.298 51.6045C118.928 50.0391 117.978 48.6652 117.742 47.5801C117.518 46.5474 117.887 45.5104 118.852 44.4453C119.824 43.3711 121.312 42.3799 123.022 41.5391C124.721 40.7041 126.576 40.0478 128.226 39.6182C135.834 37.6364 143.53 36.1646 151.291 34.5273L193.82 25.543H193.822L233.343 17.1094H233.344C243.189 14.9962 253.52 12.4941 263.371 11.5869Z" fill="white" stroke="black" stroke-width="2"/>
<path d="M245.574 47.5303C248.481 47.3788 254.395 47.3658 259.771 48.291C262.469 48.7552 264.967 49.4452 266.87 50.4326C268.663 51.3628 269.793 52.4831 270.203 53.8037L270.275 54.0703C270.443 54.7896 270.114 55.5396 268.856 56.376C267.615 57.2019 265.752 57.8946 263.652 58.4551C259.508 59.5616 254.801 60.0629 253.176 60.2188C249.813 60.3768 245.499 60.3161 241.315 59.7598C237.102 59.1994 233.132 58.151 230.386 56.4062C229.054 55.56 228.449 54.8029 228.225 54.2158C228.02 53.6798 228.086 53.1682 228.414 52.625C228.762 52.0485 229.4 51.4582 230.279 50.918C231.148 50.3841 232.192 49.936 233.272 49.6162C237.81 48.2729 240.822 47.8766 245.574 47.5303Z" fill="black" stroke="black" stroke-width="2"/>
</g>
<path d="M24.7434 21.3361C25.2865 21.2108 25.8427 21.2197 26.4316 21.3305C28.973 21.8089 30.5355 24.0581 31.3013 26.1136L36.9684 41.3248C37.4924 42.7307 38.8641 43.6208 40.3403 43.5494L40.636 43.5221L40.6846 43.5155L40.7334 43.5139C42.1314 43.4622 43.2091 42.2636 43.1138 40.8679L42.2418 28.0994C42.1264 26.4103 42.5114 24.588 43.3823 23.1517C44.263 21.6994 45.7009 20.5659 47.6444 20.5413C49.4558 20.5184 50.809 21.4923 51.6766 22.7903C52.5289 24.0655 52.9557 25.6987 53.0023 27.2389L53.4878 43.3119C53.5509 45.3976 54.5418 47.3459 56.1893 48.6265L56.7674 49.0771L56.7796 49.0862L56.7921 49.0963C58.4881 50.5021 61.0316 50.1095 62.2252 48.2579L64.4952 44.7357C65.6916 42.8798 67.7485 41.0521 70.3545 41.2781C71.9091 41.413 73.2074 41.9886 74.1829 43.0003C75.1445 43.9976 75.398 45.2594 75.2903 46.4439C75.1841 47.6117 74.7268 48.7704 74.1738 49.7346L64.6083 66.4097C64.709 66.7346 64.7471 67.1346 64.7552 67.5281C64.7746 68.4631 64.6331 69.8151 64.2384 71.3978C63.4905 74.396 61.8065 78.3202 58.4333 81.9148L58.4436 81.9284L58.3897 81.9804C62.9787 89.5922 92.1347 144.685 152.825 174.826C157.947 177.37 159.799 183.963 156.37 188.639L155.32 190.072C152.722 193.614 147.902 194.807 144.029 192.615C96.3526 165.618 58.8554 110.835 47.9167 93.7328C46.1882 91.0305 42.6951 89.6784 39.1657 88.8854C34.8671 87.9196 30.2154 85.3925 26.4147 82.1769C22.6277 78.9731 19.5478 74.9676 18.581 70.9562C18.345 69.9769 18.1439 68.9437 17.9391 67.9409C17.7319 66.9269 17.5179 65.931 17.2506 64.9748C16.7135 63.0531 15.9851 61.3925 14.772 60.1783C11.9687 57.3728 10.1618 55.2466 7.09353 52.3529C6.14964 51.4627 5.24101 50.3097 4.73617 49.0435C4.22547 47.7625 4.10165 46.2791 4.90484 44.8964C5.34012 44.1472 5.95352 43.54 6.77709 43.1263C7.95733 42.5336 9.17982 42.643 10.24 43.0273C11.287 43.4069 12.2498 44.0772 13.0299 44.743C14.6168 46.0974 15.9791 47.1303 17.38 48.1791C18.7801 49.2274 20.2242 50.2956 21.9407 51.7026C23.2559 52.7807 25.1876 52.5379 26.1265 51.1995L26.1452 51.1729L26.1652 51.1471C27.5057 49.4807 27.879 47.2351 27.1498 45.2246L24.3013 37.3711L24.2972 37.358L24.2919 37.3442L21.9152 30.1603C21.4117 28.6386 21.1945 26.7436 21.5176 25.09C21.8414 23.4329 22.7762 21.7904 24.7434 21.3361ZM63.6975 66.9017C63.7235 67.047 63.7415 67.2276 63.7495 67.4404C63.7633 67.4362 63.7774 67.4334 63.7909 67.4286C63.9758 67.3622 64.083 67.2556 64.1235 67.2108L63.6975 66.9017Z" fill="white" stroke="black" stroke-width="2"/>
<defs>
<filter id="filter0_d_108_2784" x="262" y="272.453" width="66" height="192.453" filterUnits="userSpaceOnUse" color-interpolation-filters="sRGB">
<feFlood flood-opacity="0" result="BackgroundImageFix"/>
<feColorMatrix in="SourceAlpha" type="matrix" values="0 0 0 0 0 0 0 0 0 0 0 0 0 0 0 0 0 0 127 0" result="hardAlpha"/>
<feOffset dy="4"/>
<feGaussianBlur stdDeviation="2"/>
<feComposite in2="hardAlpha" operator="out"/>
<feColorMatrix type="matrix" values="0 0 0 0 0 0 0 0 0 0 0 0 0 0 0 0 0 0 0.25 0"/>
<feBlend mode="normal" in2="BackgroundImageFix" result="effect1_dropShadow_108_2784"/>
<feBlend mode="normal" in="SourceGraphic" in2="effect1_dropShadow_108_2784" result="shape"/>
</filter>
<filter id="filter1_d_108_2784" x="112.678" y="10.4531" width="270.025" height="95.1094" filterUnits="userSpaceOnUse" color-interpolation-filters="sRGB">
<feFlood flood-opacity="0" result="BackgroundImageFix"/>
<feColorMatrix in="SourceAlpha" type="matrix" values="0 0 0 0 0 0 0 0 0 0 0 0 0 0 0 0 0 0 127 0" result="hardAlpha"/>
<feOffset dy="4"/>
<feGaussianBlur stdDeviation="2"/>
<feComposite in2="hardAlpha" operator="out"/>
<feColorMatrix type="matrix" values="0 0 0 0 0 0 0 0 0 0 0 0 0 0 0 0 0 0 0.25 0"/>
<feBlend mode="normal" in2="BackgroundImageFix" result="effect1_dropShadow_108_2784"/>
<feBlend mode="normal" in="SourceGraphic" in2="effect1_dropShadow_108_2784" result="shape"/>
</filter>
</defs>
</svg>
