<svg width="360" height="447" viewBox="0 0 360 447" fill="none" xmlns="http://www.w3.org/2000/svg">
<path d="M120.629 283.564L85.2506 268.314C51.308 253.683 29.7617 219.787 30.9207 182.843L32.5 132.5L31.5329 102.107C30.1473 58.5567 65.0749 22.5 108.647 22.5C114.199 22.5 119.736 21.9006 125.16 20.7122L178.237 9.08297C196.306 5.12402 215.156 6.8288 232.221 13.9653L261 26C300.93 36.8633 328.328 73.5607 327.37 114.931L326.5 152.547L327.22 183.345C328.247 227.322 297.335 265.598 254.127 273.85L173.138 289.317C155.453 292.695 137.162 290.69 120.629 283.564Z" fill="black"/>
<mask id="path-2-outside-1_108_3024" maskUnits="userSpaceOnUse" x="198" y="261" width="58" height="186" fill="black">
<rect fill="white" x="198" y="261" width="58" height="186"/>
<path d="M212.575 264.167C216.463 263.27 220.227 266.093 220.497 270.074C223.649 316.632 227.287 342.651 217.535 410.291C217.351 411.567 216.858 412.773 216.122 413.807C219.45 412.938 223.13 412.454 227 412.454C241.912 412.454 254 419.618 254 428.454C254 437.291 241.912 444.454 227 444.454C212.088 444.454 200 437.291 200 428.454C200 426.176 200.804 424.01 202.252 422.049C213.385 360.042 213.231 326.218 207.594 271.148C207.261 267.899 209.393 264.901 212.575 264.167Z"/>
</mask>
<path d="M212.575 264.167C216.463 263.27 220.227 266.093 220.497 270.074C223.649 316.632 227.287 342.651 217.535 410.291C217.351 411.567 216.858 412.773 216.122 413.807C219.45 412.938 223.13 412.454 227 412.454C241.912 412.454 254 419.618 254 428.454C254 437.291 241.912 444.454 227 444.454C212.088 444.454 200 437.291 200 428.454C200 426.176 200.804 424.01 202.252 422.049C213.385 360.042 213.231 326.218 207.594 271.148C207.261 267.899 209.393 264.901 212.575 264.167Z" fill="white"/>
<path d="M212.575 264.167L212.125 262.218L212.125 262.218L212.575 264.167ZM220.497 270.074L222.493 269.939L222.493 269.939L220.497 270.074ZM217.535 410.291L215.556 410.006V410.006L217.535 410.291ZM216.122 413.807L214.493 412.647L211.298 417.134L216.627 415.742L216.122 413.807ZM202.252 422.049L203.861 423.237L204.138 422.861L204.22 422.402L202.252 422.049ZM207.594 271.148L209.583 270.945V270.945L207.594 271.148ZM212.575 264.167L213.025 266.116C215.699 265.499 218.314 267.443 218.502 270.209L220.497 270.074L222.493 269.939C222.141 264.744 217.226 261.041 212.125 262.218L212.575 264.167ZM220.497 270.074L218.502 270.209C221.654 316.761 225.275 342.594 215.556 410.006L217.535 410.291L219.515 410.576C229.299 342.708 225.645 316.504 222.493 269.939L220.497 270.074ZM217.535 410.291L215.556 410.006C215.418 410.959 215.049 411.866 214.493 412.647L216.122 413.807L217.751 414.967C218.668 413.68 219.284 412.175 219.515 410.576L217.535 410.291ZM216.122 413.807L216.627 415.742C219.784 414.917 223.294 414.454 227 414.454V412.454V410.454C222.965 410.454 219.115 410.958 215.617 411.872L216.122 413.807ZM227 412.454V414.454C234.16 414.454 240.545 416.178 245.072 418.861C249.643 421.57 252 425.027 252 428.454H254H256C256 423.045 252.312 418.502 247.111 415.42C241.867 412.312 234.752 410.454 227 410.454V412.454ZM254 428.454H252C252 431.882 249.643 435.338 245.072 438.047C240.545 440.73 234.16 442.454 227 442.454V444.454V446.454C234.752 446.454 241.867 444.596 247.111 441.488C252.312 438.406 256 433.863 256 428.454H254ZM227 444.454V442.454C219.84 442.454 213.455 440.73 208.928 438.047C204.357 435.338 202 431.882 202 428.454H200H198C198 433.863 201.688 438.406 206.889 441.488C212.133 444.596 219.248 446.454 227 446.454V444.454ZM200 428.454H202C202 426.67 202.625 424.912 203.861 423.237L202.252 422.049L200.643 420.861C198.984 423.109 198 425.682 198 428.454H200ZM202.252 422.049L204.22 422.402C215.391 360.187 215.237 326.173 209.583 270.945L207.594 271.148L205.604 271.352C211.225 326.263 211.379 359.898 200.283 421.695L202.252 422.049ZM207.594 271.148L209.583 270.945C209.353 268.693 210.831 266.622 213.025 266.116L212.575 264.167L212.125 262.218C207.955 263.181 205.169 267.106 205.604 271.352L207.594 271.148Z" fill="black" mask="url(#path-2-outside-1_108_3024)"/>
<mask id="path-4-outside-2_108_3024" maskUnits="userSpaceOnUse" x="70" y="258" width="58" height="186" fill="black">
<rect fill="white" x="70" y="258" width="58" height="186"/>
<path d="M113.425 261.167C109.537 260.27 105.773 263.093 105.503 267.074C102.351 313.632 98.713 339.651 108.465 407.291C108.649 408.567 109.142 409.773 109.878 410.807C106.55 409.938 102.87 409.454 99 409.454C84.0883 409.454 72 416.618 72 425.454C72 434.291 84.0883 441.454 99 441.454C113.912 441.454 126 434.291 126 425.454C126 423.176 125.196 421.01 123.748 419.049C112.615 357.042 112.769 323.218 118.406 268.148C118.739 264.899 116.607 261.901 113.425 261.167Z"/>
</mask>
<path d="M113.425 261.167C109.537 260.27 105.773 263.093 105.503 267.074C102.351 313.632 98.713 339.651 108.465 407.291C108.649 408.567 109.142 409.773 109.878 410.807C106.55 409.938 102.87 409.454 99 409.454C84.0883 409.454 72 416.618 72 425.454C72 434.291 84.0883 441.454 99 441.454C113.912 441.454 126 434.291 126 425.454C126 423.176 125.196 421.01 123.748 419.049C112.615 357.042 112.769 323.218 118.406 268.148C118.739 264.899 116.607 261.901 113.425 261.167Z" fill="white"/>
<path d="M113.425 261.167L113.875 259.218L113.875 259.218L113.425 261.167ZM105.503 267.074L103.507 266.939L103.507 266.939L105.503 267.074ZM108.465 407.291L110.444 407.006V407.006L108.465 407.291ZM109.878 410.807L111.507 409.647L114.702 414.134L109.373 412.742L109.878 410.807ZM123.748 419.049L122.139 420.237L121.862 419.861L121.78 419.402L123.748 419.049ZM118.406 268.148L116.417 267.945V267.945L118.406 268.148ZM113.425 261.167L112.975 263.116C110.301 262.499 107.686 264.443 107.498 267.209L105.503 267.074L103.507 266.939C103.859 261.744 108.774 258.041 113.875 259.218L113.425 261.167ZM105.503 267.074L107.498 267.209C104.346 313.761 100.725 339.594 110.444 407.006L108.465 407.291L106.485 407.576C96.7006 339.708 100.355 313.504 103.507 266.939L105.503 267.074ZM108.465 407.291L110.444 407.006C110.582 407.959 110.951 408.866 111.507 409.647L109.878 410.807L108.249 411.967C107.332 410.68 106.716 409.175 106.485 407.576L108.465 407.291ZM109.878 410.807L109.373 412.742C106.216 411.917 102.706 411.454 99 411.454V409.454V407.454C103.035 407.454 106.885 407.958 110.383 408.872L109.878 410.807ZM99 409.454V411.454C91.84 411.454 85.4551 413.178 80.9277 415.861C76.3565 418.57 74 422.027 74 425.454H72H70C70 420.045 73.6876 415.502 78.8885 412.42C84.1332 409.312 91.2483 407.454 99 407.454V409.454ZM72 425.454H74C74 428.882 76.3565 432.338 80.9277 435.047C85.4551 437.73 91.84 439.454 99 439.454V441.454V443.454C91.2483 443.454 84.1332 441.596 78.8885 438.488C73.6876 435.406 70 430.863 70 425.454H72ZM99 441.454V439.454C106.16 439.454 112.545 437.73 117.072 435.047C121.643 432.338 124 428.882 124 425.454H126H128C128 430.863 124.312 435.406 119.111 438.488C113.867 441.596 106.752 443.454 99 443.454V441.454ZM126 425.454H124C124 423.67 123.375 421.912 122.139 420.237L123.748 419.049L125.357 417.861C127.016 420.109 128 422.682 128 425.454H126ZM123.748 419.049L121.78 419.402C110.609 357.187 110.763 323.173 116.417 267.945L118.406 268.148L120.396 268.352C114.775 323.263 114.621 356.898 125.717 418.695L123.748 419.049ZM118.406 268.148L116.417 267.945C116.647 265.693 115.169 263.622 112.975 263.116L113.425 261.167L113.875 259.218C118.045 260.181 120.831 264.106 120.396 268.352L118.406 268.148Z" fill="black" mask="url(#path-4-outside-2_108_3024)"/>
<mask id="path-6-outside-3_108_3024" maskUnits="userSpaceOnUse" x="271" y="148.547" width="89" height="209" fill="black">
<rect fill="white" x="271" y="148.547" width="89" height="209"/>
<path d="M273 158.392C273 151.757 281.511 148.99 285.328 154.447C297.923 172.452 308.089 188.942 316.732 211.601C325.359 234.215 332.461 262.956 338.962 305.459C349.89 308.133 358 317.99 358 329.742C358 343.549 346.807 354.742 333 354.742C319.193 354.742 308 343.549 308 329.742C308 318.718 315.136 309.36 325.04 306.036L325.006 305.821C318.539 265.586 311.958 239.328 303.924 218.298C295.891 197.272 286.399 181.45 274.079 162.082C273.38 160.983 273 159.696 273 158.392Z"/>
</mask>
<path d="M273 158.392C273 151.757 281.511 148.99 285.328 154.447C297.923 172.452 308.089 188.942 316.732 211.601C325.359 234.215 332.461 262.956 338.962 305.459C349.89 308.133 358 317.99 358 329.742C358 343.549 346.807 354.742 333 354.742C319.193 354.742 308 343.549 308 329.742C308 318.718 315.136 309.36 325.04 306.036L325.006 305.821C318.539 265.586 311.958 239.328 303.924 218.298C295.891 197.272 286.399 181.45 274.079 162.082C273.38 160.983 273 159.696 273 158.392Z" fill="white"/>
<path d="M273 158.392L271 158.392V158.392H273ZM285.328 154.447L286.967 153.301L286.967 153.301L285.328 154.447ZM316.732 211.601L318.601 210.888V210.888L316.732 211.601ZM338.962 305.459L336.985 305.761L337.187 307.084L338.487 307.402L338.962 305.459ZM358 329.742H360V329.742H358ZM308 329.742H306V329.742H308ZM325.04 306.036L325.676 307.932L327.281 307.394L327.015 305.722L325.04 306.036ZM325.006 305.821L326.981 305.507L326.981 305.504L325.006 305.821ZM303.924 218.298L305.792 217.584V217.584L303.924 218.298ZM274.079 162.082L272.392 163.155L272.392 163.155L274.079 162.082ZM273 158.392L275 158.392C275 153.656 281.025 151.786 283.689 155.594L285.328 154.447L286.967 153.301C281.996 146.195 271 149.858 271 158.392L273 158.392ZM285.328 154.447L283.689 155.594C296.235 173.529 306.302 189.868 314.864 212.313L316.732 211.601L318.601 210.888C309.877 188.017 299.611 171.376 286.967 153.301L285.328 154.447ZM316.732 211.601L314.864 212.313C323.42 234.743 330.495 263.33 336.985 305.761L338.962 305.459L340.939 305.157C334.427 262.581 327.298 233.687 318.601 210.888L316.732 211.601ZM338.962 305.459L338.487 307.402C348.541 309.862 356 318.933 356 329.742H358H360C360 317.047 351.24 306.404 339.437 303.516L338.962 305.459ZM358 329.742H356C356 342.445 345.703 352.742 333 352.742V354.742V356.742C347.912 356.742 360 344.654 360 329.742H358ZM333 354.742V352.742C320.297 352.742 310 342.445 310 329.742H308H306C306 344.654 318.088 356.742 333 356.742V354.742ZM308 329.742H310C310 319.603 316.562 310.991 325.676 307.932L325.04 306.036L324.404 304.14C313.709 307.73 306 317.833 306 329.742H308ZM325.04 306.036L327.015 305.722L326.981 305.507L325.006 305.821L323.031 306.136L323.065 306.35L325.04 306.036ZM325.006 305.821L326.981 305.504C320.503 265.203 313.895 238.795 305.792 217.584L303.924 218.298L302.056 219.012C310.021 239.861 316.575 265.969 323.031 306.139L325.006 305.821ZM303.924 218.298L305.792 217.584C297.684 196.361 288.102 180.4 275.767 161.009L274.079 162.082L272.392 163.155C284.697 182.5 294.098 198.182 302.056 219.012L303.924 218.298ZM274.079 162.082L275.767 161.009C275.269 160.226 275 159.311 275 158.392H273H271C271 160.082 271.492 161.741 272.392 163.155L274.079 162.082Z" fill="black" mask="url(#path-6-outside-3_108_3024)"/>
<path d="M154.374 227.657L154.144 160.231C154.148 151.576 153.73 133.953 154.713 125.976L154.714 125.966C155.405 119.868 157.627 114.044 161.173 109.039L161.174 109.038C165.532 102.865 169.832 99.6239 174.723 97.5361C179.682 95.4189 185.249 94.476 192.304 92.9473L192.305 92.9482L219.998 87.0049L219.999 87.0039L274.087 75.3535C283.946 73.2294 295.07 70.5827 304.823 68.8711C309.619 68.2735 315.181 69.7667 318.927 72.7178C328.044 79.8994 328.074 91.4232 327.873 102.594C327.809 106.169 327.835 109.831 327.85 113.442L327.856 117.033L327.822 168.167L327.791 214.363V214.364C327.807 230.858 330.012 243.846 319.516 256.933C311.175 267.331 302.559 268.52 290.48 270.981L288.018 271.494L256.674 278.153H256.672L206.056 289H206.055C198.502 290.626 185.363 293.856 178.062 294.719C172.906 294.931 168.514 294.399 164.389 291.604L163.989 291.325C158.705 287.534 156.307 282.479 155.223 276.864C154.128 271.194 154.388 265.065 154.37 259.112L154.374 227.66V227.657Z" fill="white" stroke="black" stroke-width="2"/>
<path d="M277.602 230.703C250.927 212.845 235.526 217.727 210.007 243.456C208.708 244.765 207.001 245.679 205.157 245.709C201.676 245.765 199.872 244.786 199.253 241.736C198.838 239.693 199.835 237.648 201.316 236.181C235.402 202.447 254.752 200.815 284.573 223.168C287.502 225.364 288.823 230.148 285.402 231.451C284.413 231.827 283.237 232.006 281.786 232.041C280.294 232.077 278.843 231.534 277.602 230.703Z" fill="black"/>
<path d="M41.4508 49.8793C46.2557 49.6169 49.9102 51.5637 54.1072 53.663L102.488 78.4305C120.475 87.6848 133.798 90.5667 140.61 111.355C142.147 115.981 143.086 120.78 143.404 125.642C143.918 133.477 143.645 143.535 143.643 151.475L143.607 197.87L143.534 244.715C143.526 253.588 143.678 262.606 143.315 271.459C142.974 279.777 140.379 287.187 131.812 289.873C125.232 290.182 119.32 286.358 113.597 283.41L97.0116 274.799L51.0169 250.911C45.0588 247.77 42.0041 245.475 38.1589 239.84C27.1279 223.681 29.1351 206.493 29.155 187.855L29.2392 139.727L29.3763 92.6383C29.4034 87.4168 29.33 82.1764 29.4154 76.9549C29.5873 66.4986 29.2363 53.4032 41.4508 49.8793Z" fill="white"/>
<path d="M41.6182 50.873C46.0572 50.6636 49.449 52.4512 53.6602 54.5576V54.5566L102.03 79.3184V79.3193C106.536 81.6376 110.785 83.5744 114.636 85.4541C118.509 87.3449 122.018 89.196 125.168 91.3887C131.421 95.741 136.322 101.48 139.66 111.666L139.661 111.67C141.171 116.215 142.093 120.93 142.405 125.707H142.406C142.853 132.525 142.701 141.026 142.654 148.395L142.643 151.475L142.606 197.869L142.533 244.713V244.714C142.526 253.611 142.677 262.592 142.315 271.419C142.148 275.501 141.429 279.26 139.771 282.299C138.147 285.273 135.598 287.605 131.638 288.878C128.603 288.994 125.679 288.182 122.775 286.943C119.803 285.676 116.979 284.027 114.054 282.521L97.4727 273.911L51.4775 250.023C48.5231 248.466 46.345 247.146 44.4385 245.545C42.5376 243.948 40.8718 242.041 38.9854 239.276H38.9844C28.1725 223.438 30.1352 206.656 30.1553 187.857L30.2393 139.729L30.376 92.6436C30.4033 87.3909 30.3296 82.1912 30.415 76.9717C30.5019 71.685 30.4629 65.9583 31.877 61.0967C33.2581 56.3482 35.9935 52.5347 41.6182 50.873Z" fill="white" stroke="black" stroke-width="2"/>
<path d="M52.992 190.426C70.0511 190.497 78.24 229.879 62.8718 234.313C46.5858 234.942 37.0103 195.606 52.992 190.426Z" fill="black"/>
<path d="M109.245 105.176C126.608 104.278 135.114 142.603 120.049 148.634C105.434 150.99 93.1192 113.213 109.245 105.176Z" fill="black"/>
<g filter="url(#filter0_d_108_3024)">
<path d="M195.371 1.13379C204.536 0.662839 213.74 1.38155 222.483 4.1123C227.307 5.61841 232.465 8.54031 237.224 10.9131L237.227 10.9141C245.474 14.996 253.689 19.1406 261.873 23.3467L261.88 23.3496L291.561 38.3193V38.3203C296.445 40.8023 301.698 43.1999 306.155 46.0762C308.541 47.6157 309.449 48.9435 309.654 49.9619C309.848 50.9257 309.465 51.9107 308.47 52.9414C307.471 53.9754 305.97 54.9237 304.288 55.7275C302.618 56.5256 300.833 57.1508 299.321 57.5625C292.145 59.5171 284.996 60.9227 277.747 62.4492L274.634 63.1133L228.214 73.1289H228.213L191.46 81.1025C182.301 83.0637 173.417 85.2579 164.203 85.9043H164.191L164.18 85.9053C156.412 86.6313 143.647 85.3436 136.422 82.9414H136.421C130.712 81.0461 122.367 76.4706 116.572 73.5264L83.2451 56.5273L83.2412 56.5254L63.833 46.7236C60.3031 44.9412 56.4461 43.2306 53.2979 41.1514C50.9278 39.586 49.9781 38.212 49.7422 37.127C49.5177 36.0942 49.8875 35.0573 50.8516 33.9922C51.8239 32.918 53.3119 31.9267 55.0225 31.0859C56.7212 30.251 58.5765 29.5947 60.2256 29.165C67.8338 27.1833 75.5302 25.7115 83.291 24.0742L125.82 15.0898H125.822L165.343 6.65625H165.344C175.189 4.54311 185.52 2.04094 195.371 1.13379Z" fill="white" stroke="black" stroke-width="2"/>
<path d="M177.506 36.0796C183.393 35.7707 201.532 36.0123 203.249 43.3904C204.496 48.7368 188.437 50.4593 185.237 50.7648C178.418 51.087 167.71 50.5202 161.849 46.7973C156.155 43.18 160.386 39.5664 164.988 38.2038C169.62 36.8328 172.709 36.4292 177.506 36.0796Z" fill="black"/>
</g>
<mask id="path-16-outside-4_108_3024" maskUnits="userSpaceOnUse" x="-0.00585938" y="158.547" width="90" height="209" fill="black">
<rect fill="white" x="-0.00585938" y="158.547" width="90" height="209"/>
<path d="M87.9941 168.44C87.9934 161.778 79.4622 158.979 75.5977 164.437C62.8355 182.462 52.5352 198.957 43.7803 221.624C35.0648 244.189 27.8898 272.853 21.3203 315.211C10.2418 317.839 2.00012 327.795 2 339.678C2 353.566 13.2585 364.824 27.1465 364.824C41.0346 364.824 52.293 353.566 52.293 339.678C52.2929 328.672 45.2225 319.318 35.376 315.909V315.904C41.9177 275.677 48.5749 249.422 56.7012 228.395C64.826 207.371 74.4273 191.551 86.8877 172.189C87.6041 171.076 87.9941 169.767 87.9941 168.44Z"/>
</mask>
<path d="M87.9941 168.44C87.9934 161.778 79.4622 158.979 75.5977 164.437C62.8355 182.462 52.5352 198.957 43.7803 221.624C35.0648 244.189 27.8898 272.853 21.3203 315.211C10.2418 317.839 2.00012 327.795 2 339.678C2 353.566 13.2585 364.824 27.1465 364.824C41.0346 364.824 52.293 353.566 52.293 339.678C52.2929 328.672 45.2225 319.318 35.376 315.909V315.904C41.9177 275.677 48.5749 249.422 56.7012 228.395C64.826 207.371 74.4273 191.551 86.8877 172.189C87.6041 171.076 87.9941 169.767 87.9941 168.44Z" fill="white"/>
<path d="M87.9941 168.44L89.9941 168.44V168.44H87.9941ZM75.5977 164.437L73.9654 163.281L73.9654 163.281L75.5977 164.437ZM43.7803 221.624L41.9146 220.903L41.9146 220.903L43.7803 221.624ZM21.3203 315.211L23.2967 315.517L23.0906 316.846L21.782 317.157L21.3203 315.211ZM2 339.678H0V339.678L2 339.678ZM27.1465 364.824V366.824H27.1465L27.1465 364.824ZM52.293 339.678L54.293 339.678V339.678H52.293ZM35.376 315.909L34.7217 317.799L33.376 317.333V315.909H35.376ZM35.376 315.904H33.376V315.743L33.4019 315.583L35.376 315.904ZM56.7012 228.395L54.8356 227.674V227.674L56.7012 228.395ZM86.8877 172.189L88.5696 173.272L88.5695 173.272L86.8877 172.189ZM87.9941 168.44L85.9941 168.441C85.9936 163.673 79.9359 161.771 77.2299 165.592L75.5977 164.437L73.9654 163.281C78.9886 156.187 89.9932 159.883 89.9941 168.44L87.9941 168.44ZM75.5977 164.437L77.2299 165.592C64.5169 183.548 54.3181 199.892 45.6459 222.345L43.7803 221.624L41.9146 220.903C50.7523 198.022 61.1541 181.375 73.9654 163.281L75.5977 164.437ZM43.7803 221.624L45.646 222.345C37.0023 244.724 29.8549 273.232 23.2967 315.517L21.3203 315.211L19.3439 314.904C25.9248 272.473 33.1274 243.654 41.9146 220.903L43.7803 221.624ZM21.3203 315.211L21.782 317.157C11.5845 319.576 4.00011 328.743 4 339.678L2 339.678L0 339.678C0.00012207 326.848 8.89911 316.102 20.8587 313.265L21.3203 315.211ZM2 339.678H4C4 352.461 14.363 362.824 27.1465 362.824L27.1465 364.824L27.1465 366.824C12.1539 366.824 0 354.67 0 339.678H2ZM27.1465 364.824V362.824C39.93 362.824 50.293 352.461 50.293 339.678H52.293H54.293C54.293 354.67 42.1392 366.824 27.1465 366.824V364.824ZM52.293 339.678L50.293 339.678C50.2929 329.55 43.7877 320.938 34.7217 317.799L35.376 315.909L36.0302 314.019C46.6573 317.698 54.2929 327.793 54.293 339.678L52.293 339.678ZM35.376 315.909H33.376V315.904H35.376H37.376V315.909H35.376ZM35.376 315.904L33.4019 315.583C39.9545 275.29 46.639 248.883 54.8356 227.674L56.7012 228.395L58.5667 229.115C50.5107 249.961 43.881 276.065 37.35 316.225L35.376 315.904ZM56.7012 228.395L54.8356 227.674C63.0369 206.452 72.7305 190.492 85.2059 171.107L86.8877 172.189L88.5695 173.272C76.1242 192.61 66.615 208.289 58.5667 229.115L56.7012 228.395ZM86.8877 172.189L85.2058 171.107C85.7172 170.312 85.9941 169.378 85.9941 168.44H87.9941H89.9941C89.9941 170.156 89.491 171.84 88.5696 173.272L86.8877 172.189Z" fill="black" mask="url(#path-16-outside-4_108_3024)"/>
<path d="M196.343 190.654C195.351 190.407 193.183 189.409 191.641 188.2C189.512 186.532 187.513 183.659 185.231 180.38C182.954 177.109 181.098 173.834 180.266 171.669C179.055 168.519 178.843 164.079 179.092 162.12C179.398 159.712 180.918 157.084 182.546 155.16C184.279 153.112 186.668 150.994 189.665 148.622C192.229 146.591 195.911 145.824 200.307 145.283C203.123 144.936 207.178 144.989 209.55 145.029C213.826 145.101 215.588 146.819 219.577 149.185C222.007 150.627 222.923 152.149 224.213 153.773C224.697 154.381 225.421 156.057 226.42 158.842C227.359 161.462 227.343 164.389 227.137 167.217C226.838 171.322 225.098 172.314 222.893 174.645C221.373 176.253 219.018 178.064 216.977 179.15C213.803 180.84 209.853 180.654 208.308 180.862C205.868 181.189 204.188 180.324 202.101 179.367C199.601 178.22 196.608 175.419 194.557 172.04C193.428 170.18 194.753 166.419 195.715 164.825C196.827 162.982 199.328 161.744 200.922 160.907C202.348 160.157 203.588 160.154 204.631 159.864C205.293 159.68 206.336 159.404 207.667 159.445C208.676 159.477 209.506 159.984 210.255 160.649C211.176 161.902 211.838 163.064 212.301 164.315C212.343 164.732 212.343 165.309 212.343 165.904" stroke="black" stroke-width="6" stroke-linecap="round"/>
<path d="M293.747 179C294.734 178.751 296.891 177.746 298.425 176.528C300.543 174.847 302.531 171.952 304.802 168.648C307.067 165.352 308.913 162.053 309.741 159.871C310.946 156.697 311.156 152.224 310.908 150.25C310.604 147.823 309.092 145.176 307.473 143.237C305.749 141.173 303.372 139.039 300.391 136.649C297.84 134.603 294.177 133.83 289.804 133.285C287.003 132.936 282.969 132.989 280.61 133.029C276.356 133.102 274.602 134.833 270.635 137.217C268.217 138.669 267.306 140.203 266.022 141.839C265.542 142.452 264.821 144.14 263.828 146.946C262.893 149.587 262.909 152.536 263.114 155.385C263.412 159.522 265.142 160.521 267.336 162.87C268.848 164.49 271.19 166.315 273.221 167.409C276.379 169.111 280.308 168.924 281.844 169.133C284.273 169.464 285.943 168.592 288.02 167.627C290.507 166.472 293.483 163.65 295.524 160.245C296.647 158.371 295.329 154.581 294.373 152.976C293.266 151.118 290.778 149.871 289.192 149.027C287.773 148.272 286.54 148.269 285.503 147.977C284.845 147.791 283.807 147.513 282.482 147.555C281.479 147.586 280.653 148.098 279.908 148.768C278.992 150.03 278.333 151.201 277.873 152.462C277.831 152.881 277.831 153.463 277.831 154.062" stroke="black" stroke-width="6" stroke-linecap="round"/>
<defs>
<filter id="filter0_d_108_3024" x="44.6777" y="0" width="270.025" height="95.1094" filterUnits="userSpaceOnUse" color-interpolation-filters="sRGB">
<feFlood flood-opacity="0" result="BackgroundImageFix"/>
<feColorMatrix in="SourceAlpha" type="matrix" values="0 0 0 0 0 0 0 0 0 0 0 0 0 0 0 0 0 0 127 0" result="hardAlpha"/>
<feOffset dy="4"/>
<feGaussianBlur stdDeviation="2"/>
<feComposite in2="hardAlpha" operator="out"/>
<feColorMatrix type="matrix" values="0 0 0 0 0 0 0 0 0 0 0 0 0 0 0 0 0 0 0.25 0"/>
<feBlend mode="normal" in2="BackgroundImageFix" result="effect1_dropShadow_108_3024"/>
<feBlend mode="normal" in="SourceGraphic" in2="effect1_dropShadow_108_3024" result="shape"/>
</filter>
</defs>
</svg>
