<svg width="469" height="510" viewBox="0 0 469 510" fill="none" xmlns="http://www.w3.org/2000/svg">
<mask id="path-1-outside-1_108_2865" maskUnits="userSpaceOnUse" x="162" y="292.418" width="56" height="217" fill="black">
<rect fill="white" x="162" y="292.418" width="56" height="217"/>
<path d="M168.218 302.6C168.619 298.027 172.845 294.773 177.37 295.526C181.623 296.235 184.513 300.225 183.954 304.488C176.918 358.157 181.016 391.177 199.349 443.153C199.816 444.478 199.964 445.831 199.842 447.134C202.31 447.373 204.647 448.12 206.753 449.422C217.215 455.888 218.005 473.574 208.518 488.927C199.03 504.279 182.857 511.484 172.395 505.019C161.932 498.553 161.142 480.865 170.63 465.513C174.175 459.777 178.652 455.178 183.417 452.005C182.716 451.099 182.176 450.049 181.851 448.886C167.104 396.117 163.016 361.909 168.218 302.6Z"/>
</mask>
<path d="M168.218 302.6C168.619 298.027 172.845 294.773 177.37 295.526C181.623 296.235 184.513 300.225 183.954 304.488C176.918 358.157 181.016 391.177 199.349 443.153C199.816 444.478 199.964 445.831 199.842 447.134C202.31 447.373 204.647 448.12 206.753 449.422C217.215 455.888 218.005 473.574 208.518 488.927C199.03 504.279 182.857 511.484 172.395 505.019C161.932 498.553 161.142 480.865 170.63 465.513C174.175 459.777 178.652 455.178 183.417 452.005C182.716 451.099 182.176 450.049 181.851 448.886C167.104 396.117 163.016 361.909 168.218 302.6Z" fill="white"/>
<path d="M168.218 302.6L166.225 302.425L166.225 302.425L168.218 302.6ZM177.37 295.526L177.699 293.554L177.699 293.554L177.37 295.526ZM183.954 304.488L185.937 304.748L185.937 304.748L183.954 304.488ZM199.349 443.153L201.235 442.488L201.235 442.488L199.349 443.153ZM199.842 447.134L197.85 446.947L197.665 448.932L199.649 449.124L199.842 447.134ZM206.753 449.422L207.804 447.721H207.804L206.753 449.422ZM208.518 488.927L210.219 489.978L210.219 489.978L208.518 488.927ZM172.395 505.019L171.343 506.72L171.343 506.72L172.395 505.019ZM170.63 465.513L168.929 464.461H168.929L170.63 465.513ZM183.417 452.005L184.526 453.67L186.313 452.479L184.999 450.781L183.417 452.005ZM181.851 448.886L179.924 449.424L179.924 449.424L181.851 448.886ZM168.218 302.6L170.21 302.774C170.509 299.369 173.66 296.936 177.042 297.499L177.37 295.526L177.699 293.554C172.031 292.61 166.729 296.684 166.225 302.425L168.218 302.6ZM177.37 295.526L177.041 297.499C180.209 298.027 182.393 301.011 181.971 304.228L183.954 304.488L185.937 304.748C186.633 299.439 183.036 294.443 177.699 293.554L177.37 295.526ZM183.954 304.488L181.971 304.228C174.891 358.232 179.033 391.568 197.463 443.819L199.349 443.153L201.235 442.488C182.998 390.785 178.945 358.082 185.937 304.748L183.954 304.488ZM199.349 443.153L197.463 443.819C197.831 444.862 197.946 445.924 197.85 446.947L199.842 447.134L201.833 447.32C201.981 445.739 201.801 444.094 201.235 442.488L199.349 443.153ZM199.842 447.134L199.649 449.124C201.834 449.336 203.874 449.994 205.702 451.123L206.753 449.422L207.804 447.721C205.42 446.247 202.785 445.409 200.034 445.143L199.842 447.134ZM206.753 449.422L205.701 451.123C210.204 453.906 212.819 459.221 213.118 465.931C213.418 472.629 211.377 480.496 206.816 487.875L208.518 488.927L210.219 489.978C215.146 482.005 217.454 473.353 217.114 465.753C216.776 458.165 213.764 451.404 207.804 447.721L206.753 449.422ZM208.518 488.927L206.816 487.875C202.256 495.255 196.132 500.599 190.008 503.327C183.872 506.061 177.949 506.1 173.446 503.317L172.395 505.019L171.343 506.72C177.303 510.403 184.697 510.072 191.635 506.981C198.585 503.885 205.292 497.951 210.219 489.978L208.518 488.927ZM172.395 505.019L173.446 503.317C168.943 500.535 166.329 495.219 166.029 488.509C165.73 481.811 167.771 473.944 172.331 466.564L170.63 465.513L168.929 464.461C164.001 472.434 161.693 481.087 162.033 488.687C162.372 496.276 165.383 503.037 171.343 506.72L172.395 505.019ZM170.63 465.513L172.331 466.564C175.735 461.057 180.016 456.673 184.526 453.67L183.417 452.005L182.308 450.34C177.289 453.683 172.615 458.497 168.929 464.461L170.63 465.513ZM183.417 452.005L184.999 450.781C184.452 450.074 184.031 449.256 183.777 448.347L181.851 448.886L179.924 449.424C180.321 450.842 180.98 452.124 181.835 453.229L183.417 452.005ZM181.851 448.886L183.777 448.347C169.091 395.796 165.031 361.83 170.21 302.774L168.218 302.6L166.225 302.425C161.002 361.988 165.117 396.437 179.924 449.424L181.851 448.886Z" fill="black" mask="url(#path-1-outside-1_108_2865)"/>
<mask id="path-3-outside-2_108_2865" maskUnits="userSpaceOnUse" x="218.414" y="281" width="88" height="165" fill="black">
<rect fill="white" x="218.414" y="281" width="88" height="165"/>
<path d="M277.15 283.274C281.037 282.303 285.134 283.969 287.164 287.436C300.649 310.459 306.761 328.363 302.385 344.723C298.135 360.61 284.035 374.88 257.686 390.937C260.729 394.754 263.296 399.421 265.065 404.698C270.802 421.81 265.998 438.852 254.337 442.761C242.676 446.67 228.572 435.966 222.836 418.854C217.1 401.743 221.902 384.702 233.563 380.793C236.521 379.802 239.635 379.751 242.73 380.506C243.609 378.63 245.11 377.007 247.149 376.002C270.284 364.597 281.601 353.75 284.58 341.443C287.563 329.12 282.239 315.137 271.521 297.307C268.284 291.921 271.021 284.807 277.15 283.274Z"/>
</mask>
<path d="M277.15 283.274C281.037 282.303 285.134 283.969 287.164 287.436C300.649 310.459 306.761 328.363 302.385 344.723C298.135 360.61 284.035 374.88 257.686 390.937C260.729 394.754 263.296 399.421 265.065 404.698C270.802 421.81 265.998 438.852 254.337 442.761C242.676 446.67 228.572 435.966 222.836 418.854C217.1 401.743 221.902 384.702 233.563 380.793C236.521 379.802 239.635 379.751 242.73 380.506C243.609 378.63 245.11 377.007 247.149 376.002C270.284 364.597 281.601 353.75 284.58 341.443C287.563 329.12 282.239 315.137 271.521 297.307C268.284 291.921 271.021 284.807 277.15 283.274Z" fill="white"/>
<path d="M277.15 283.274L276.665 281.334L276.665 281.334L277.15 283.274ZM287.164 287.436L288.89 286.425V286.425L287.164 287.436ZM302.385 344.723L304.317 345.239L304.317 345.239L302.385 344.723ZM257.686 390.937L256.645 389.229L254.707 390.409L256.122 392.183L257.686 390.937ZM265.065 404.698L266.962 404.063L266.962 404.063L265.065 404.698ZM254.337 442.761L254.973 444.657L254.973 444.657L254.337 442.761ZM222.836 418.854L220.94 419.49H220.94L222.836 418.854ZM233.563 380.793L232.928 378.897L232.928 378.897L233.563 380.793ZM242.73 380.506L242.257 382.449L243.847 382.837L244.542 381.354L242.73 380.506ZM247.149 376.002L246.265 374.208L246.265 374.208L247.149 376.002ZM284.58 341.443L286.524 341.914L286.524 341.914L284.58 341.443ZM271.521 297.307L269.807 298.337L269.807 298.337L271.521 297.307ZM277.15 283.274L277.635 285.215C280.681 284.453 283.868 285.765 285.438 288.446L287.164 287.436L288.89 286.425C286.4 282.174 281.393 280.152 276.665 281.334L277.15 283.274ZM287.164 287.436L285.438 288.446C298.895 311.423 304.603 328.691 300.453 344.206L302.385 344.723L304.317 345.239C308.918 328.036 302.402 309.496 288.89 286.425L287.164 287.436ZM302.385 344.723L300.453 344.206C296.416 359.297 282.921 373.217 256.645 389.229L257.686 390.937L258.726 392.644C285.149 376.543 299.854 361.923 304.317 345.239L302.385 344.723ZM257.686 390.937L256.122 392.183C259.014 395.811 261.471 400.269 263.169 405.334L265.065 404.698L266.962 404.063C265.121 398.572 262.444 393.697 259.249 389.69L257.686 390.937ZM265.065 404.698L263.169 405.334C265.926 413.559 266.119 421.685 264.3 428.138C262.478 434.603 258.72 439.182 253.701 440.864L254.337 442.761L254.973 444.657C261.615 442.43 266.09 436.534 268.15 429.223C270.214 421.9 269.941 412.949 266.962 404.063L265.065 404.698ZM254.337 442.761L253.701 440.864C248.683 442.547 242.924 441.158 237.574 437.097C232.233 433.044 227.49 426.444 224.732 418.219L222.836 418.854L220.94 419.49C223.919 428.377 229.095 435.684 235.155 440.284C241.206 444.875 248.33 446.884 254.973 444.657L254.337 442.761ZM222.836 418.854L224.732 418.219C221.975 409.994 221.782 401.868 223.601 395.415C225.423 388.951 229.181 384.372 234.199 382.689L233.563 380.793L232.928 378.897C226.285 381.124 221.811 387.02 219.751 394.33C217.687 401.653 217.961 410.604 220.94 419.49L222.836 418.854ZM233.563 380.793L234.199 382.689C236.761 381.831 239.488 381.774 242.257 382.449L242.73 380.506L243.204 378.563C239.783 377.729 236.281 377.773 232.928 378.897L233.563 380.793ZM242.73 380.506L244.542 381.354C245.237 379.871 246.42 378.592 248.034 377.796L247.149 376.002L246.265 374.208C243.8 375.423 241.982 377.389 240.919 379.657L242.73 380.506ZM247.149 376.002L248.034 377.796C271.257 366.348 283.32 355.148 286.524 341.914L284.58 341.443L282.636 340.973C279.882 352.352 269.311 362.847 246.265 374.208L247.149 376.002ZM284.58 341.443L286.524 341.914C289.715 328.73 283.953 314.106 273.236 296.276L271.521 297.307L269.807 298.337C280.526 316.169 285.411 329.51 282.636 340.973L284.58 341.443ZM271.521 297.307L273.236 296.276C270.654 291.982 272.877 286.404 277.636 285.215L277.15 283.274L276.665 281.334C269.165 283.209 265.914 291.859 269.807 298.337L271.521 297.307Z" fill="black" mask="url(#path-3-outside-2_108_2865)"/>
<path d="M424.028 1.46367C423.502 1.52543 423.004 1.70554 422.509 1.98341C420.249 3.25152 419.504 5.89711 419.446 8.08673L419.021 24.1789C418.982 25.6654 417.981 26.9405 416.574 27.348L416.288 27.4179L416.24 27.4274L416.193 27.4408C414.867 27.841 413.473 27.0651 413.114 25.7271L409.822 13.4518C409.386 11.8266 408.436 10.2371 407.154 9.16721C405.858 8.08554 404.14 7.48239 402.304 8.08597C400.592 8.64862 399.633 10.0012 399.236 11.5016C398.845 12.9756 398.97 14.6494 399.422 16.1124L404.134 31.342C404.751 33.3355 404.446 35.5007 403.302 37.2463L402.918 37.8329L402.901 37.86C401.763 39.723 399.252 40.1722 397.538 38.82L394.288 36.2557C392.556 34.889 390.014 33.822 387.623 34.8898C386.226 35.5137 385.203 36.4618 384.613 37.7091C384.019 38.9636 384.186 40.2414 384.672 41.3276C385.151 42.3984 385.961 43.3467 386.796 44.0793L401.133 56.6477C401.143 56.9857 401.237 57.3731 401.356 57.7446C401.639 58.6299 402.207 59.8551 403.087 61.2152C404.755 63.791 407.601 66.9349 411.926 69.226L411.919 69.2423L411.987 69.274C410.124 77.9242 400.475 139.008 353.222 186.844C349.203 190.913 349.588 197.75 354.348 201.062L355.701 202.003C359.307 204.511 364.254 204.078 367.205 200.747C403.256 160.058 420.834 96.6066 425.615 76.9788C426.375 73.8617 429.241 71.4508 432.32 69.5481C436.033 67.254 439.574 63.3954 442.101 59.1662C444.618 54.9525 446.22 50.217 445.854 46.1459C445.764 45.1415 445.622 44.0979 445.493 43.0814C445.363 42.0539 445.243 41.0414 445.186 40.049C445.073 38.0546 445.224 36.2455 445.977 34.703C447.691 31.1939 448.704 28.6236 450.638 24.9455C451.242 23.7976 451.728 22.4105 451.795 21.0485C451.862 19.6704 451.496 18.2253 450.278 17.1834C449.638 16.6362 448.882 16.2726 447.997 16.1471C446.686 15.9614 445.562 16.4605 444.683 17.168C443.815 17.8666 443.123 18.8145 442.601 19.6966C441.548 21.4744 440.603 22.8797 439.626 24.3139C438.649 25.7473 437.638 27.2143 436.481 29.0859C435.594 30.519 433.707 30.911 432.397 29.9585L432.371 29.9395L432.343 29.9216C430.549 28.7891 429.476 26.8023 429.514 24.6813L429.661 16.3864L429.661 16.3727L429.661 16.358L429.582 8.8777C429.565 7.27463 429.153 5.40466 428.31 3.94398C427.466 2.48101 426.043 1.22752 424.028 1.46367ZM402.154 56.8139C402.176 56.9603 402.217 57.1381 402.279 57.3433C402.265 57.3438 402.25 57.3458 402.235 57.3456C402.038 57.3427 401.902 57.2758 401.849 57.2466L402.154 56.8139Z" fill="white" stroke="black" stroke-width="2"/>
<path d="M185.629 304.564L150.251 289.314C116.308 274.683 94.7617 240.787 95.9207 203.843L97.5 153.5L96.5329 123.107C95.1473 79.5567 130.075 43.5 173.647 43.5C179.199 43.5 184.736 42.9006 190.16 41.7122L243.237 30.083C261.306 26.124 280.156 27.8288 297.221 34.9653L326 47C365.899 57.855 393.184 94.6105 392.025 135.944L391 172.5L391.875 204.013C393.1 248.135 362.148 286.634 318.793 294.913L238.138 310.317C220.453 313.695 202.162 311.69 185.629 304.564Z" fill="black"/>
<path d="M219.374 248.657L219.144 181.231C219.148 172.576 218.73 154.953 219.713 146.976L219.714 146.966C220.405 140.868 222.627 135.044 226.173 130.039L226.174 130.038C230.532 123.865 234.832 120.624 239.723 118.536C244.682 116.419 250.249 115.476 257.304 113.947L257.305 113.948L284.998 108.005L284.999 108.004L339.087 96.3535C348.946 94.2294 360.07 91.5827 369.823 89.8711C374.619 89.2735 380.181 90.7667 383.927 93.7178C393.044 100.899 393.074 112.423 392.873 123.594C392.809 127.169 392.835 130.831 392.85 134.442L392.856 138.033L392.822 189.167L392.791 235.363H392.79L392.791 235.364C392.807 251.858 395.012 264.846 384.516 277.933C376.175 288.331 367.559 289.52 355.48 291.981L353.018 292.494L321.674 299.153H321.672L271.056 310H271.055C263.502 311.626 250.363 314.856 243.062 315.719C237.906 315.931 233.514 315.399 229.389 312.604L228.989 312.325C223.705 308.534 221.307 303.479 220.223 297.864C219.128 292.194 219.388 286.065 219.37 280.112L219.374 248.66V248.657Z" fill="white" stroke="black" stroke-width="2"/>
<path d="M345.599 207.799C346.941 206.631 348.817 206.351 350.544 206.778C357.748 208.554 354.287 214.778 350.268 220.861C332.122 246.065 294.843 257.248 268.303 238.287C264.974 235.738 259.324 231.095 264.244 226.037C265.391 224.859 267.345 223.968 270.572 225.52C272.937 226.44 274.643 227.536 276.61 229.11C282.046 233.459 288.666 235.52 295.53 236.329C310.688 238.044 327.104 229.507 337.27 218.445C339.905 215.574 342.525 210.471 345.599 207.799Z" fill="black"/>
<path d="M346.86 157.946C354.616 157.162 360.625 158.465 366.37 164.183C370.952 167.804 376.698 182.163 367.669 183.528C357.295 185.1 364.275 164.496 345.555 169.582L345.082 169.712C338.283 173.058 336.91 176.115 335.786 183.188C335.491 184.219 335.309 185.901 334.754 186.795C332.356 190.667 325.149 191.323 324.33 185.887C323.992 183.628 324.416 181.218 324.914 178.989C327.308 168.292 335.747 159.861 346.86 157.946Z" fill="black"/>
<path d="M262.789 176.496C278.306 175.27 286.64 182.834 288.858 196.655C288.741 199.566 287.281 200.333 285.32 201.262C278.727 204.281 277.891 198.969 276.142 194.6C273.279 187.448 267.442 185.963 260.449 188.387C252.51 192.239 251.481 196.896 250.543 204.239C250.491 204.645 250.42 205.053 250.26 205.431C248.992 208.424 244.932 210.101 242.41 208.58C236.298 204.895 240.437 193.461 243.506 188.998C248.332 181.984 254.337 178.216 262.789 176.496Z" fill="black"/>
<path d="M106.451 70.8793C111.256 70.6169 114.91 72.5637 119.107 74.663L167.488 99.4305C185.475 108.685 198.798 111.567 205.61 132.355C207.147 136.981 208.086 141.78 208.404 146.642C208.918 154.477 208.645 164.535 208.643 172.475L208.607 218.87L208.534 265.715C208.526 274.588 208.678 283.606 208.315 292.459C207.974 300.777 205.379 308.187 196.812 310.873C190.232 311.182 184.32 307.358 178.597 304.41L162.012 295.799L116.017 271.911C110.059 268.77 107.004 266.475 103.159 260.84C92.1279 244.681 94.1351 227.493 94.155 208.855L94.2392 160.727L94.3763 113.638C94.4034 108.417 94.33 103.176 94.4154 97.9549C94.5873 87.4986 94.2363 74.4032 106.451 70.8793Z" fill="white"/>
<path d="M106.618 71.873C111.057 71.6636 114.449 73.4512 118.66 75.5576V75.5566L167.03 100.318V100.319C171.536 102.638 175.785 104.574 179.636 106.454C183.509 108.345 187.018 110.196 190.168 112.389C196.421 116.741 201.322 122.48 204.66 132.666L204.661 132.67C206.171 137.215 207.093 141.93 207.405 146.707H207.406C207.853 153.525 207.701 162.026 207.654 169.395L207.643 172.475L207.606 218.869L207.533 265.713V265.714C207.526 274.611 207.677 283.592 207.315 292.419C207.148 296.501 206.429 300.26 204.771 303.299C203.147 306.273 200.598 308.605 196.638 309.878C193.603 309.994 190.679 309.182 187.775 307.943C184.803 306.676 181.979 305.027 179.054 303.521L162.473 294.911L116.478 271.023C113.523 269.466 111.345 268.146 109.438 266.545C107.538 264.948 105.872 263.041 103.985 260.276H103.984C93.1725 244.438 95.1352 227.656 95.1553 208.857L95.2393 160.729L95.376 113.644C95.4033 108.391 95.3296 103.191 95.415 97.9717C95.5019 92.685 95.4629 86.9583 96.877 82.0967C98.2581 77.3482 100.994 73.5347 106.618 71.873Z" fill="white" stroke="black" stroke-width="2"/>
<path d="M117.992 211.426C135.051 211.497 143.24 250.879 127.872 255.313C111.586 255.942 102.01 216.606 117.992 211.426Z" fill="black"/>
<path d="M174.245 126.176C191.608 125.278 200.114 163.603 185.049 169.634C170.434 171.99 158.119 134.213 174.245 126.176Z" fill="black"/>
<g filter="url(#filter0_d_108_2865)">
<path d="M260.371 22.1338C269.536 21.6628 278.74 22.3815 287.483 25.1123C292.307 26.6184 297.465 29.5403 302.224 31.9131L302.227 31.9141C310.474 35.996 318.689 40.1406 326.873 44.3467L326.88 44.3496L356.561 59.3193V59.3203C361.445 61.8023 366.698 64.1999 371.155 67.0762C373.541 68.6157 374.449 69.9435 374.654 70.9619C374.848 71.9257 374.465 72.9107 373.47 73.9414C372.471 74.9754 370.97 75.9237 369.288 76.7275C367.618 77.5256 365.833 78.1508 364.321 78.5625C357.145 80.5171 349.996 81.9227 342.747 83.4492L339.634 84.1133L293.214 94.1289H293.213L256.46 102.103C247.301 104.064 238.417 106.258 229.203 106.904H229.191L229.18 106.905C221.412 107.631 208.647 106.344 201.422 103.941H201.421C195.712 102.046 187.367 97.4706 181.572 94.5264L148.245 77.5273L148.241 77.5254L128.833 67.7236C125.303 65.9412 121.446 64.2306 118.298 62.1514C115.928 60.586 114.978 59.212 114.742 58.127C114.518 57.0942 114.887 56.0573 115.852 54.9922C116.824 53.918 118.312 52.9267 120.022 52.0859C121.721 51.251 123.576 50.5947 125.226 50.165C132.834 48.1833 140.53 46.7115 148.291 45.0742L190.82 36.0898H190.822L230.343 27.6562H230.344C240.189 25.5431 250.52 23.0409 260.371 22.1338Z" fill="white" stroke="black" stroke-width="2"/>
<path d="M242.506 57.0796C248.393 56.7707 266.532 57.0123 268.249 64.3904C269.496 69.7368 253.437 71.4593 250.237 71.7648C243.418 72.087 232.71 71.5202 226.849 67.7973C221.155 64.18 225.386 60.5664 229.988 59.2038C234.62 57.8328 237.709 57.4292 242.506 57.0796Z" fill="black"/>
</g>
<path d="M24.7434 28.3361C25.2865 28.2108 25.8427 28.2197 26.4316 28.3305C28.973 28.8089 30.5355 31.0581 31.3013 33.1136L36.9684 48.3248C37.4924 49.7307 38.8641 50.6208 40.3403 50.5494L40.636 50.5221L40.6846 50.5155L40.7334 50.5139C42.1314 50.4622 43.2091 49.2636 43.1138 47.8679L42.2418 35.0994C42.1264 33.4103 42.5114 31.588 43.3823 30.1517C44.263 28.6994 45.7009 27.5659 47.6444 27.5413C49.4558 27.5184 50.809 28.4923 51.6766 29.7903C52.5289 31.0655 52.9557 32.6987 53.0023 34.2389L53.4878 50.3119C53.5509 52.3976 54.5418 54.3459 56.1893 55.6265L56.7674 56.0771L56.7796 56.0862L56.7921 56.0963C58.4881 57.5021 61.0316 57.1095 62.2252 55.2579L64.4952 51.7357C65.6916 49.8798 67.7485 48.0521 70.3545 48.2781C71.9091 48.413 73.2074 48.9886 74.1829 50.0003C75.1445 50.9976 75.398 52.2594 75.2903 53.4439C75.1841 54.6117 74.7268 55.7704 74.1738 56.7346L64.6083 73.4097C64.709 73.7346 64.7471 74.1346 64.7552 74.5281C64.7746 75.4631 64.6331 76.8151 64.2384 78.3978C63.4905 81.396 61.8065 85.3202 58.4333 88.9148L58.4436 88.9284L58.3897 88.9804C62.9787 96.5922 92.1347 151.685 152.825 181.826C157.947 184.37 159.799 190.963 156.37 195.639L155.32 197.072C152.722 200.614 147.902 201.807 144.029 199.615C96.3526 172.618 58.8554 117.835 47.9167 100.733C46.1882 98.0305 42.6951 96.6784 39.1657 95.8854C34.8671 94.9196 30.2154 92.3925 26.4147 89.1769C22.6277 85.9731 19.5478 81.9676 18.581 77.9562C18.345 76.9769 18.1439 75.9437 17.9391 74.9409C17.7319 73.9269 17.5179 72.931 17.2506 71.9748C16.7135 70.0531 15.9851 68.3925 14.772 67.1783C11.9687 64.3728 10.1618 62.2466 7.09353 59.3529C6.14964 58.4627 5.24101 57.3097 4.73617 56.0435C4.22547 54.7625 4.10165 53.2791 4.90484 51.8964C5.34012 51.1472 5.95352 50.54 6.77709 50.1263C7.95733 49.5336 9.17982 49.643 10.24 50.0273C11.287 50.4069 12.2498 51.0772 13.0299 51.743C14.6168 53.0974 15.9791 54.1303 17.38 55.1791C18.7801 56.2274 20.2242 57.2956 21.9407 58.7026C23.2559 59.7807 25.1876 59.5379 26.1265 58.1995L26.1452 58.1729L26.1652 58.1471C27.5057 56.4807 27.879 54.2351 27.1498 52.2246L24.3013 44.3711L24.2972 44.358L24.2919 44.3442L21.9152 37.1603C21.4117 35.6386 21.1945 33.7436 21.5176 32.09C21.8414 30.4329 22.7762 28.7904 24.7434 28.3361ZM63.6975 73.9017C63.7235 74.047 63.7415 74.2276 63.7495 74.4404C63.7633 74.4362 63.7774 74.4334 63.7909 74.4286C63.9758 74.3622 64.083 74.2556 64.1235 74.2108L63.6975 73.9017Z" fill="white" stroke="black" stroke-width="2"/>
<defs>
<filter id="filter0_d_108_2865" x="109.678" y="21" width="270.025" height="95.1094" filterUnits="userSpaceOnUse" color-interpolation-filters="sRGB">
<feFlood flood-opacity="0" result="BackgroundImageFix"/>
<feColorMatrix in="SourceAlpha" type="matrix" values="0 0 0 0 0 0 0 0 0 0 0 0 0 0 0 0 0 0 127 0" result="hardAlpha"/>
<feOffset dy="4"/>
<feGaussianBlur stdDeviation="2"/>
<feComposite in2="hardAlpha" operator="out"/>
<feColorMatrix type="matrix" values="0 0 0 0 0 0 0 0 0 0 0 0 0 0 0 0 0 0 0.25 0"/>
<feBlend mode="normal" in2="BackgroundImageFix" result="effect1_dropShadow_108_2865"/>
<feBlend mode="normal" in="SourceGraphic" in2="effect1_dropShadow_108_2865" result="shape"/>
</filter>
</defs>
</svg>
