<svg width="300" height="447" viewBox="0 0 300 447" fill="none" xmlns="http://www.w3.org/2000/svg">
<mask id="path-1-outside-1_108_2994" maskUnits="userSpaceOnUse" x="169" y="261" width="58" height="186" fill="black">
<rect fill="white" x="169" y="261" width="58" height="186"/>
<path d="M183.575 264.167C187.463 263.27 191.227 266.093 191.497 270.074C194.649 316.632 198.287 342.651 188.535 410.291C188.351 411.567 187.858 412.773 187.122 413.807C190.45 412.938 194.13 412.454 198 412.454C212.912 412.454 225 419.618 225 428.454C225 437.291 212.912 444.454 198 444.454C183.088 444.454 171 437.291 171 428.454C171 426.176 171.804 424.01 173.252 422.049C184.385 360.042 184.231 326.218 178.594 271.148C178.261 267.899 180.393 264.901 183.575 264.167Z"/>
</mask>
<path d="M183.575 264.167C187.463 263.27 191.227 266.093 191.497 270.074C194.649 316.632 198.287 342.651 188.535 410.291C188.351 411.567 187.858 412.773 187.122 413.807C190.45 412.938 194.13 412.454 198 412.454C212.912 412.454 225 419.618 225 428.454C225 437.291 212.912 444.454 198 444.454C183.088 444.454 171 437.291 171 428.454C171 426.176 171.804 424.01 173.252 422.049C184.385 360.042 184.231 326.218 178.594 271.148C178.261 267.899 180.393 264.901 183.575 264.167Z" fill="white"/>
<path d="M183.575 264.167L183.125 262.218L183.125 262.218L183.575 264.167ZM191.497 270.074L193.493 269.939L193.493 269.939L191.497 270.074ZM188.535 410.291L186.556 410.006V410.006L188.535 410.291ZM187.122 413.807L185.493 412.647L182.298 417.134L187.627 415.742L187.122 413.807ZM173.252 422.049L174.861 423.237L175.138 422.861L175.22 422.402L173.252 422.049ZM178.594 271.148L180.583 270.945V270.945L178.594 271.148ZM183.575 264.167L184.025 266.116C186.699 265.499 189.314 267.443 189.502 270.209L191.497 270.074L193.493 269.939C193.141 264.744 188.226 261.041 183.125 262.218L183.575 264.167ZM191.497 270.074L189.502 270.209C192.654 316.761 196.275 342.594 186.556 410.006L188.535 410.291L190.515 410.576C200.299 342.708 196.645 316.504 193.493 269.939L191.497 270.074ZM188.535 410.291L186.556 410.006C186.418 410.959 186.049 411.866 185.493 412.647L187.122 413.807L188.751 414.967C189.668 413.68 190.284 412.175 190.515 410.576L188.535 410.291ZM187.122 413.807L187.627 415.742C190.784 414.917 194.294 414.454 198 414.454V412.454V410.454C193.965 410.454 190.115 410.958 186.617 411.872L187.122 413.807ZM198 412.454V414.454C205.16 414.454 211.545 416.178 216.072 418.861C220.643 421.57 223 425.027 223 428.454H225H227C227 423.045 223.312 418.502 218.111 415.42C212.867 412.312 205.752 410.454 198 410.454V412.454ZM225 428.454H223C223 431.882 220.643 435.338 216.072 438.047C211.545 440.73 205.16 442.454 198 442.454V444.454V446.454C205.752 446.454 212.867 444.596 218.111 441.488C223.312 438.406 227 433.863 227 428.454H225ZM198 444.454V442.454C190.84 442.454 184.455 440.73 179.928 438.047C175.357 435.338 173 431.882 173 428.454H171H169C169 433.863 172.688 438.406 177.889 441.488C183.133 444.596 190.248 446.454 198 446.454V444.454ZM171 428.454H173C173 426.67 173.625 424.912 174.861 423.237L173.252 422.049L171.643 420.861C169.984 423.109 169 425.682 169 428.454H171ZM173.252 422.049L175.22 422.402C186.391 360.187 186.237 326.173 180.583 270.945L178.594 271.148L176.604 271.352C182.225 326.263 182.379 359.898 171.283 421.695L173.252 422.049ZM178.594 271.148L180.583 270.945C180.353 268.693 181.831 266.622 184.025 266.116L183.575 264.167L183.125 262.218C178.955 263.181 176.169 267.106 176.604 271.352L178.594 271.148Z" fill="black" mask="url(#path-1-outside-1_108_2994)"/>
<path d="M91.6286 283.564L56.2506 268.314C22.308 253.683 0.761701 219.787 1.92067 182.843L3.5 132.5L2.53294 102.107C1.14726 58.5567 36.0749 22.5 79.6469 22.5C85.1994 22.5 90.7357 21.9006 96.1595 20.7122L149.237 9.08297C167.306 5.12402 186.156 6.8288 203.221 13.9653L232 26C271.93 36.8633 299.328 73.5607 298.37 114.931L297.5 152.547L298.22 183.345C299.247 227.322 268.335 265.598 225.127 273.85L144.138 289.317C126.453 292.695 108.162 290.69 91.6286 283.564Z" fill="black"/>
<mask id="path-4-outside-2_108_2994" maskUnits="userSpaceOnUse" x="49" y="261" width="58" height="186" fill="black">
<rect fill="white" x="49" y="261" width="58" height="186"/>
<path d="M92.4248 264.167C88.5371 263.27 84.7725 266.093 84.5029 270.074C81.3506 316.632 77.713 342.651 87.4648 410.291C87.6489 411.567 88.1418 412.773 88.8779 413.807C85.5501 412.938 81.8702 412.454 78 412.454C63.0883 412.454 51 419.618 51 428.454C51 437.291 63.0883 444.454 78 444.454C92.9117 444.454 105 437.291 105 428.454C105 426.176 104.196 424.01 102.748 422.049C91.6149 360.042 91.7688 326.218 97.4062 271.148C97.7389 267.899 95.6073 264.901 92.4248 264.167Z"/>
</mask>
<path d="M92.4248 264.167C88.5371 263.27 84.7725 266.093 84.5029 270.074C81.3506 316.632 77.713 342.651 87.4648 410.291C87.6489 411.567 88.1418 412.773 88.8779 413.807C85.5501 412.938 81.8702 412.454 78 412.454C63.0883 412.454 51 419.618 51 428.454C51 437.291 63.0883 444.454 78 444.454C92.9117 444.454 105 437.291 105 428.454C105 426.176 104.196 424.01 102.748 422.049C91.6149 360.042 91.7688 326.218 97.4062 271.148C97.7389 267.899 95.6073 264.901 92.4248 264.167Z" fill="white"/>
<path d="M92.4248 264.167L92.8745 262.218L92.8746 262.218L92.4248 264.167ZM84.5029 270.074L82.5075 269.939L82.5075 269.939L84.5029 270.074ZM87.4648 410.291L89.4444 410.006V410.006L87.4648 410.291ZM88.8779 413.807L90.5071 412.647L93.7023 417.134L88.3726 415.742L88.8779 413.807ZM102.748 422.049L101.139 423.237L100.862 422.861L100.78 422.402L102.748 422.049ZM97.4062 271.148L95.4166 270.945V270.945L97.4062 271.148ZM92.4248 264.167L91.9751 266.116C89.3007 265.499 86.6857 267.443 86.4984 270.209L84.5029 270.074L82.5075 269.939C82.8593 264.744 87.7735 261.041 92.8745 262.218L92.4248 264.167ZM84.5029 270.074L86.4984 270.209C83.3465 316.761 79.7255 342.594 89.4444 410.006L87.4648 410.291L85.4853 410.576C75.7006 342.708 79.3548 316.504 82.5075 269.939L84.5029 270.074ZM87.4648 410.291L89.4444 410.006C89.5819 410.959 89.9514 411.866 90.5071 412.647L88.8779 413.807L87.2488 414.967C86.3322 413.68 85.7158 412.175 85.4853 410.576L87.4648 410.291ZM88.8779 413.807L88.3726 415.742C85.2156 414.917 81.7059 414.454 78 414.454V412.454V410.454C82.0346 410.454 85.8846 410.958 89.3833 411.872L88.8779 413.807ZM78 412.454V414.454C70.84 414.454 64.4551 416.178 59.9277 418.861C55.3565 421.57 53 425.027 53 428.454H51H49C49 423.045 52.6876 418.502 57.8885 415.42C63.1332 412.312 70.2483 410.454 78 410.454V412.454ZM51 428.454H53C53 431.882 55.3565 435.338 59.9277 438.047C64.4551 440.73 70.84 442.454 78 442.454V444.454V446.454C70.2483 446.454 63.1332 444.596 57.8885 441.488C52.6876 438.406 49 433.863 49 428.454H51ZM78 444.454V442.454C85.16 442.454 91.5449 440.73 96.0723 438.047C100.643 435.338 103 431.882 103 428.454H105H107C107 433.863 103.312 438.406 98.1115 441.488C92.8668 444.596 85.7517 446.454 78 446.454V444.454ZM105 428.454H103C103 426.67 102.375 424.912 101.139 423.237L102.748 422.049L104.357 420.861C106.016 423.109 107 425.682 107 428.454H105ZM102.748 422.049L100.78 422.402C89.6089 360.187 89.7629 326.173 95.4166 270.945L97.4062 271.148L99.3959 271.352C93.7746 326.263 93.6209 359.898 104.717 421.695L102.748 422.049ZM97.4062 271.148L95.4166 270.945C95.6472 268.693 94.1691 266.622 91.975 266.116L92.4248 264.167L92.8746 262.218C97.0455 263.181 99.8305 267.106 99.3959 271.352L97.4062 271.148Z" fill="black" mask="url(#path-4-outside-2_108_2994)"/>
<path d="M125.374 227.657L125.144 160.231C125.148 151.576 124.73 133.953 125.713 125.976L125.714 125.966C126.405 119.868 128.627 114.044 132.173 109.039L132.174 109.038C136.532 102.865 140.832 99.6239 145.723 97.5361C150.682 95.4189 156.249 94.476 163.304 92.9473L163.305 92.9482L190.998 87.0049L190.999 87.0039L245.087 75.3535C254.946 73.2294 266.07 70.5827 275.823 68.8711C280.619 68.2735 286.181 69.7667 289.927 72.7178C299.044 79.8994 299.074 91.4232 298.873 102.594C298.809 106.169 298.835 109.831 298.85 113.442L298.856 117.033L298.822 168.167L298.791 214.363H298.79L298.791 214.364C298.807 230.858 301.012 243.846 290.516 256.933C282.175 267.331 273.559 268.52 261.48 270.981L259.018 271.494L227.674 278.153H227.672L177.056 289H177.055C169.502 290.626 156.363 293.856 149.062 294.719C143.906 294.931 139.514 294.399 135.389 291.604L134.989 291.325C129.705 287.534 127.307 282.479 126.223 276.864C125.128 271.194 125.388 265.065 125.37 259.112L125.374 227.66V227.657Z" fill="white" stroke="black" stroke-width="2"/>
<path d="M250.766 229.744C250.083 230.558 249.166 231.278 247.949 231.996C246.123 233.074 243.893 233.053 241.862 232.444C227.161 228.041 215.873 232.667 196.617 245.968C194.36 247.528 191.214 248.136 189.284 246.186C188.196 245.087 187.535 243.731 187.11 241.937C186.467 239.228 187.882 236.49 190.164 234.895C215.915 216.89 230.158 213.867 247.965 222.58C250.775 223.955 252.777 227.347 250.766 229.744Z" fill="black"/>
<path d="M195.612 161.889C195.762 162.486 195.829 163.094 195.823 163.747C195.796 166.719 193.179 168.924 190.281 169.588C174.181 173.276 163.491 175.39 147.727 177.413C144.817 177.787 141.6 176.62 140.823 173.791C140.608 173.007 140.522 172.247 140.544 171.465C140.623 168.628 143.206 166.627 145.981 166.028C162.268 162.512 173.028 160.368 189.061 158.496C191.814 158.175 194.936 159.201 195.612 161.889Z" fill="black"/>
<path d="M227.59 130.571C245.443 114.1 258.476 110.28 277.148 120.098C280.129 121.665 280.435 125.72 277.891 127.926C276.429 129.193 274.369 129.484 272.556 128.809C257.437 123.184 248.014 127.622 235.787 138.902C232.876 141.587 228.17 140.839 226.398 137.297C225.267 135.036 225.731 132.285 227.59 130.571Z" fill="black"/>
<ellipse cx="180.5" cy="186.496" rx="14.5" ry="18.5" fill="black"/>
<ellipse cx="263.5" cy="168.496" rx="14.5" ry="18.5" fill="black"/>
<path d="M12.4508 49.8793C17.2557 49.6169 20.9102 51.5637 25.1072 53.663L73.4882 78.4305C91.4747 87.6848 104.798 90.5667 111.61 111.355C113.147 115.981 114.086 120.78 114.404 125.642C114.918 133.477 114.645 143.535 114.643 151.475L114.607 197.87L114.534 244.715C114.526 253.588 114.678 262.606 114.315 271.459C113.974 279.777 111.379 287.187 102.812 289.873C96.2324 290.182 90.3203 286.358 84.5965 283.41L68.0116 274.799L22.0169 250.911C16.0588 247.77 13.0041 245.475 9.15893 239.84C-1.87214 223.681 0.135121 206.493 0.154985 187.855L0.239162 139.727L0.376321 92.6383C0.403437 87.4168 0.329978 82.1764 0.415426 76.9549C0.58727 66.4986 0.236326 53.4032 12.4508 49.8793Z" fill="white"/>
<path d="M12.6182 50.873C17.0572 50.6636 20.449 52.4512 24.6602 54.5576V54.5566L73.0303 79.3184V79.3193C77.536 81.6376 81.785 83.5744 85.6357 85.4541C89.5091 87.3449 93.0177 89.196 96.168 91.3887C102.421 95.741 107.322 101.48 110.66 111.666L110.661 111.67C112.171 116.215 113.093 120.93 113.405 125.707H113.406C113.853 132.525 113.701 141.026 113.654 148.395L113.643 151.475L113.606 197.869L113.533 244.713V244.714C113.526 253.611 113.677 262.592 113.315 271.419C113.148 275.501 112.429 279.26 110.771 282.299C109.147 285.273 106.598 287.605 102.638 288.878C99.6028 288.994 96.6792 288.182 93.7754 286.943C90.8029 285.676 87.9792 284.027 85.0537 282.521L68.4727 273.911L22.4775 250.023C19.5231 248.466 17.345 247.146 15.4385 245.545C13.5376 243.948 11.8718 242.041 9.98535 239.276H9.98438C-0.827535 223.438 1.13516 206.656 1.15527 187.857L1.23926 139.729L1.37598 92.6436C1.40325 87.3909 1.32963 82.1912 1.41504 76.9717C1.50192 71.685 1.46288 65.9583 2.87695 61.0967C4.25812 56.3482 6.99353 52.5347 12.6182 50.873Z" fill="white" stroke="black" stroke-width="2"/>
<path d="M23.992 190.426C41.0511 190.497 49.24 229.879 33.8718 234.313C17.5858 234.942 8.01031 195.606 23.992 190.426Z" fill="black"/>
<path d="M80.2445 105.176C97.6077 104.278 106.114 142.603 91.0493 148.634C76.4336 150.99 64.1192 113.213 80.2445 105.176Z" fill="black"/>
<g filter="url(#filter0_d_108_2994)">
<path d="M166.371 1.13379C175.536 0.662839 184.74 1.38155 193.483 4.1123C198.307 5.61841 203.465 8.54031 208.224 10.9131L208.227 10.9141C216.474 14.996 224.689 19.1406 232.873 23.3467L232.88 23.3496L262.561 38.3193V38.3203C267.445 40.8023 272.698 43.1999 277.155 46.0762C279.541 47.6157 280.449 48.9435 280.654 49.9619C280.848 50.9257 280.465 51.9107 279.47 52.9414C278.471 53.9754 276.97 54.9237 275.288 55.7275C273.618 56.5256 271.833 57.1508 270.321 57.5625C263.145 59.5171 255.996 60.9227 248.747 62.4492L245.634 63.1133L199.214 73.1289H199.213L162.46 81.1025C153.301 83.0637 144.417 85.2579 135.203 85.9043H135.191L135.18 85.9053C127.412 86.6313 114.647 85.3436 107.422 82.9414H107.421C101.712 81.0461 93.3666 76.4706 87.5723 73.5264L54.2451 56.5273L54.2412 56.5254L34.833 46.7236C31.3031 44.9412 27.4461 43.2306 24.2979 41.1514C21.9278 39.586 20.9781 38.212 20.7422 37.127C20.5177 36.0942 20.8875 35.0573 21.8516 33.9922C22.8239 32.918 24.3119 31.9267 26.0225 31.0859C27.7212 30.251 29.5765 29.5947 31.2256 29.165C38.8338 27.1833 46.5302 25.7115 54.291 24.0742L96.8203 15.0898H96.8223L136.343 6.65625H136.344C146.189 4.54311 156.52 2.04094 166.371 1.13379Z" fill="white" stroke="black" stroke-width="2"/>
<path d="M148.506 36.0796C154.393 35.7707 172.532 36.0123 174.249 43.3904C175.496 48.7368 159.437 50.4593 156.237 50.7648C149.418 51.087 138.71 50.5202 132.849 46.7973C127.155 43.18 131.386 39.5664 135.988 38.2038C140.62 36.8328 143.709 36.4292 148.506 36.0796Z" fill="black"/>
</g>
<mask id="path-17-outside-3_108_2994" maskUnits="userSpaceOnUse" x="71" y="245.254" width="187" height="123" fill="black">
<rect fill="white" x="71" y="245.254" width="187" height="123"/>
<path d="M240.322 247.645C244.741 246.215 249.458 248.837 250.448 253.374C268.504 336.077 236.128 357.896 119.87 353.115C115.605 360.798 107.411 365.999 98 365.999C84.1929 365.999 73 354.806 73 340.999C73 327.192 84.1929 315.999 98 315.999C109.561 315.999 119.288 323.848 122.146 334.507C212.078 339.864 248.108 328.944 233.148 257.75C232.287 253.651 234.583 249.501 238.568 248.212L240.322 247.645Z"/>
</mask>
<path d="M240.322 247.645C244.741 246.215 249.458 248.837 250.448 253.374C268.504 336.077 236.128 357.896 119.87 353.115C115.605 360.798 107.411 365.999 98 365.999C84.1929 365.999 73 354.806 73 340.999C73 327.192 84.1929 315.999 98 315.999C109.561 315.999 119.288 323.848 122.146 334.507C212.078 339.864 248.108 328.944 233.148 257.75C232.287 253.651 234.583 249.501 238.568 248.212L240.322 247.645Z" fill="white"/>
<path d="M240.322 247.645L240.938 249.547L240.938 249.547L240.322 247.645ZM250.448 253.374L252.402 252.947V252.947L250.448 253.374ZM119.87 353.115L119.952 351.117L118.72 351.066L118.122 352.144L119.87 353.115ZM73 340.999H71V340.999H73ZM122.146 334.507L120.215 335.025L120.588 336.418L122.028 336.503L122.146 334.507ZM233.148 257.75L235.106 257.339V257.339L233.148 257.75ZM238.568 248.212L237.953 246.309L237.953 246.309L238.568 248.212ZM240.322 247.645L240.938 249.547C244.266 248.471 247.763 250.453 248.494 253.801L250.448 253.374L252.402 252.947C251.152 247.221 245.215 243.959 239.707 245.742L240.322 247.645ZM250.448 253.374L248.494 253.801C257.501 295.054 253.664 320.026 234.331 334.448C224.53 341.76 210.527 346.554 191.582 349.197C172.653 351.838 148.969 352.31 119.952 351.117L119.87 353.115L119.788 355.114C148.901 356.311 172.86 355.848 192.135 353.159C211.394 350.471 226.155 345.538 236.723 337.654C258.128 321.686 261.452 294.398 252.402 252.947L250.448 253.374ZM119.87 353.115L118.122 352.144C114.194 359.218 106.655 363.999 98 363.999V365.999V367.999C108.166 367.999 117.015 362.378 121.619 354.086L119.87 353.115ZM98 365.999V363.999C85.2975 363.999 75 353.702 75 340.999H73H71C71 355.911 83.0883 367.999 98 367.999V365.999ZM73 340.999H75C75 328.296 85.2975 317.999 98 317.999V315.999V313.999C83.0883 313.999 71 326.087 71 340.999H73ZM98 315.999V317.999C108.633 317.999 117.584 325.217 120.215 335.025L122.146 334.507L124.078 333.989C120.991 322.478 110.489 313.999 98 313.999V315.999ZM122.146 334.507L122.028 336.503C144.542 337.844 163.771 338.173 179.709 336.778C195.625 335.384 208.44 332.257 218.006 326.553C227.66 320.796 233.899 312.474 236.705 301.007C239.486 289.637 238.873 275.267 235.106 257.339L233.148 257.75L231.191 258.161C234.904 275.83 235.396 289.523 232.819 300.056C230.266 310.493 224.682 317.915 215.957 323.117C207.144 328.373 195.025 331.421 179.36 332.793C163.716 334.163 144.717 333.848 122.265 332.51L122.146 334.507ZM233.148 257.75L235.106 257.339C234.446 254.198 236.213 251.076 239.184 250.115L238.568 248.212L237.953 246.309C232.953 247.927 230.128 253.104 231.191 258.161L233.148 257.75ZM238.568 248.212L239.184 250.115L240.938 249.547L240.322 247.645L239.707 245.742L237.953 246.309L238.568 248.212Z" fill="black" mask="url(#path-17-outside-3_108_2994)"/>
<mask id="path-19-outside-4_108_2994" maskUnits="userSpaceOnUse" x="38.5" y="167.5" width="173" height="136" fill="black">
<rect fill="white" x="38.5" y="167.5" width="173" height="136"/>
<path d="M50.3057 169.5C55.0307 169.5 58.7509 173.537 58.4277 178.243C56.7366 202.865 55.8699 224.017 57.3066 240.783C58.7454 257.572 62.4858 269.837 69.8896 276.811C77.2537 283.747 88.3845 285.568 104.939 281.112C118.95 277.341 136.76 269.092 159.283 255.773C159.097 254.543 159 253.283 159 252C159 238.193 170.193 227 184 227C197.807 227 209 238.193 209 252C209 265.807 197.807 277 184 277C177.921 277 172.35 274.83 168.017 271.223C135.125 287.979 110.708 297.097 92.6035 300.076C82.3298 301.767 74.0571 301.487 67.4111 299.483C60.7545 297.476 55.7534 293.745 52.0234 288.587C44.5902 278.307 42.2297 262.385 41.6553 243.225C41.3676 233.629 41.5279 223.189 41.7383 212.195C41.9487 201.198 42.209 189.643 42.1221 177.805C42.0887 173.255 45.7461 169.5 50.3057 169.5Z"/>
</mask>
<path d="M50.3057 169.5C55.0307 169.5 58.7509 173.537 58.4277 178.243C56.7366 202.865 55.8699 224.017 57.3066 240.783C58.7454 257.572 62.4858 269.837 69.8896 276.811C77.2537 283.747 88.3845 285.568 104.939 281.112C118.95 277.341 136.76 269.092 159.283 255.773C159.097 254.543 159 253.283 159 252C159 238.193 170.193 227 184 227C197.807 227 209 238.193 209 252C209 265.807 197.807 277 184 277C177.921 277 172.35 274.83 168.017 271.223C135.125 287.979 110.708 297.097 92.6035 300.076C82.3298 301.767 74.0571 301.487 67.4111 299.483C60.7545 297.476 55.7534 293.745 52.0234 288.587C44.5902 278.307 42.2297 262.385 41.6553 243.225C41.3676 233.629 41.5279 223.189 41.7383 212.195C41.9487 201.198 42.209 189.643 42.1221 177.805C42.0887 173.255 45.7461 169.5 50.3057 169.5Z" fill="white"/>
<path d="M50.3057 169.5V167.5H50.3055L50.3057 169.5ZM58.4277 178.243L60.423 178.38L60.423 178.38L58.4277 178.243ZM57.3066 240.783L55.3139 240.954V240.954L57.3066 240.783ZM69.8896 276.811L68.5183 278.266L68.5183 278.266L69.8896 276.811ZM104.939 281.112L105.459 283.044H105.459L104.939 281.112ZM159.283 255.773L160.301 257.495L161.463 256.808L161.261 255.474L159.283 255.773ZM184 227V225H184L184 227ZM184 277L184 279H184V277ZM168.017 271.223L169.296 269.686L168.283 268.842L167.109 269.441L168.017 271.223ZM92.6035 300.076L92.9283 302.05H92.9283L92.6035 300.076ZM67.4111 299.483L66.8337 301.398L66.8337 301.398L67.4111 299.483ZM52.0234 288.587L50.4027 289.759L50.4027 289.759L52.0234 288.587ZM41.6553 243.225L39.6562 243.285H39.6562L41.6553 243.225ZM41.7383 212.195L39.7386 212.157V212.157L41.7383 212.195ZM42.1221 177.805L40.1221 177.819L40.1221 177.819L42.1221 177.805ZM50.3057 169.5V171.5C53.8574 171.5 56.6772 174.541 56.4324 178.106L58.4277 178.243L60.423 178.38C60.8245 172.533 56.2039 167.5 50.3057 167.5V169.5ZM58.4277 178.243L56.4324 178.106C54.7414 202.727 53.8626 224.018 55.3139 240.954L57.3066 240.783L59.2993 240.612C57.8771 224.017 58.7318 203.003 60.423 178.38L58.4277 178.243ZM57.3066 240.783L55.3139 240.954C56.7595 257.822 60.5405 270.752 68.5183 278.266L69.8896 276.811L71.261 275.355C64.4311 268.921 60.7313 257.321 59.2993 240.612L57.3066 240.783ZM69.8896 276.811L68.5183 278.266C76.6155 285.893 88.6056 287.58 105.459 283.044L104.939 281.112L104.42 279.181C88.1635 283.557 77.892 281.601 71.2609 275.355L69.8896 276.811ZM104.939 281.112L105.459 283.044C119.728 279.203 137.72 270.848 160.301 257.495L159.283 255.773L158.265 254.052C135.8 267.336 118.172 275.479 104.42 279.181L104.939 281.112ZM159.283 255.773L161.261 255.474C161.089 254.342 161 253.182 161 252H159H157C157 253.384 157.105 254.744 157.306 256.073L159.283 255.773ZM159 252H161C161 239.298 171.298 229 184 229L184 227L184 225C169.089 225 157 237.088 157 252H159ZM184 227V229C196.703 229 207 239.297 207 252H209H211C211 237.088 198.912 225 184 225V227ZM209 252H207C207 264.703 196.703 275 184 275V277V279C198.912 279 211 266.912 211 252H209ZM184 277L184 275C178.406 275 173.284 273.005 169.296 269.686L168.017 271.223L166.737 272.76C171.416 276.655 177.437 279 184 279L184 277ZM168.017 271.223L167.109 269.441C134.273 286.169 110.075 295.174 92.2787 298.103L92.6035 300.076L92.9283 302.05C111.341 299.019 135.977 289.79 168.924 273.005L168.017 271.223ZM92.6035 300.076L92.2787 298.103C82.1927 299.763 74.249 299.456 67.9885 297.569L67.4111 299.483L66.8337 301.398C73.8652 303.518 82.4669 303.771 92.9283 302.05L92.6035 300.076ZM67.4111 299.483L67.9886 297.569C61.7611 295.691 57.123 292.226 53.6441 287.415L52.0234 288.587L50.4027 289.759C54.3838 295.265 59.7479 299.261 66.8337 301.398L67.4111 299.483ZM52.0234 288.587L53.6442 287.415C46.6061 277.681 44.2291 262.337 43.6544 243.165L41.6553 243.225L39.6562 243.285C40.2303 262.434 42.5744 278.932 50.4027 289.759L52.0234 288.587ZM41.6553 243.225L43.6544 243.165C43.3684 233.625 43.5275 223.231 43.7379 212.234L41.7383 212.195L39.7386 212.157C39.5284 223.146 39.3668 233.633 39.6562 243.285L41.6553 243.225ZM41.7383 212.195L43.7379 212.234C43.9481 201.247 44.2092 189.661 44.122 177.79L42.1221 177.805L40.1221 177.819C40.2088 189.625 39.9493 201.149 39.7386 212.157L41.7383 212.195ZM42.1221 177.805L44.122 177.79C44.0967 174.33 46.8771 171.5 50.3058 171.5L50.3057 169.5L50.3055 167.5C44.6151 167.5 40.0808 172.181 40.1221 177.819L42.1221 177.805Z" fill="black" mask="url(#path-19-outside-4_108_2994)"/>
<defs>
<filter id="filter0_d_108_2994" x="15.6777" y="0" width="270.025" height="95.1094" filterUnits="userSpaceOnUse" color-interpolation-filters="sRGB">
<feFlood flood-opacity="0" result="BackgroundImageFix"/>
<feColorMatrix in="SourceAlpha" type="matrix" values="0 0 0 0 0 0 0 0 0 0 0 0 0 0 0 0 0 0 127 0" result="hardAlpha"/>
<feOffset dy="4"/>
<feGaussianBlur stdDeviation="2"/>
<feComposite in2="hardAlpha" operator="out"/>
<feColorMatrix type="matrix" values="0 0 0 0 0 0 0 0 0 0 0 0 0 0 0 0 0 0 0.25 0"/>
<feBlend mode="normal" in2="BackgroundImageFix" result="effect1_dropShadow_108_2994"/>
<feBlend mode="normal" in="SourceGraphic" in2="effect1_dropShadow_108_2994" result="shape"/>
</filter>
</defs>
</svg>
