<svg width="469" height="468" viewBox="0 0 469 468" fill="none" xmlns="http://www.w3.org/2000/svg">
<path d="M424.028 1.46367C423.502 1.52543 423.004 1.70554 422.509 1.98341C420.249 3.25152 419.504 5.89711 419.446 8.08673L419.021 24.1789C418.982 25.6654 417.981 26.9405 416.574 27.348L416.288 27.4179L416.24 27.4274L416.193 27.4408C414.867 27.841 413.473 27.0651 413.114 25.7271L409.822 13.4518C409.386 11.8266 408.436 10.2371 407.154 9.16721C405.858 8.08554 404.14 7.48239 402.304 8.08597C400.592 8.64862 399.633 10.0012 399.236 11.5016C398.845 12.9756 398.97 14.6494 399.422 16.1124L404.134 31.342C404.751 33.3355 404.446 35.5007 403.302 37.2463L402.918 37.8329L402.901 37.86C401.763 39.723 399.252 40.1722 397.538 38.82L394.288 36.2557C392.556 34.889 390.014 33.822 387.623 34.8898C386.226 35.5137 385.203 36.4618 384.613 37.7091C384.019 38.9636 384.186 40.2414 384.672 41.3276C385.151 42.3984 385.961 43.3467 386.796 44.0793L401.133 56.6477C401.143 56.9857 401.237 57.3731 401.356 57.7446C401.639 58.6299 402.207 59.8551 403.087 61.2152C404.755 63.791 407.601 66.9349 411.926 69.226L411.919 69.2423L411.987 69.274C410.124 77.9242 400.475 139.008 353.222 186.844C349.203 190.913 349.588 197.75 354.348 201.062L355.701 202.003C359.307 204.511 364.254 204.078 367.205 200.747C403.256 160.058 420.834 96.6066 425.615 76.9788C426.375 73.8617 429.241 71.4508 432.32 69.5481C436.033 67.254 439.574 63.3954 442.101 59.1662C444.618 54.9525 446.22 50.217 445.854 46.1459C445.764 45.1415 445.622 44.0979 445.493 43.0814C445.363 42.0539 445.243 41.0414 445.186 40.049C445.073 38.0546 445.224 36.2455 445.977 34.703C447.691 31.1939 448.704 28.6236 450.638 24.9455C451.242 23.7976 451.728 22.4105 451.795 21.0485C451.862 19.6704 451.496 18.2253 450.278 17.1834C449.638 16.6362 448.882 16.2726 447.997 16.1471C446.686 15.9614 445.562 16.4605 444.683 17.168C443.815 17.8666 443.123 18.8145 442.601 19.6966C441.548 21.4744 440.603 22.8797 439.626 24.3139C438.649 25.7473 437.638 27.2143 436.481 29.0859C435.594 30.519 433.707 30.911 432.397 29.9585L432.371 29.9395L432.343 29.9216C430.549 28.7891 429.476 26.8023 429.514 24.6813L429.661 16.3864L429.661 16.3727L429.661 16.358L429.582 8.8777C429.565 7.27463 429.153 5.40466 428.31 3.94398C427.466 2.48101 426.043 1.22752 424.028 1.46367ZM402.154 56.8139C402.176 56.9603 402.217 57.1381 402.279 57.3433C402.265 57.3438 402.25 57.3458 402.235 57.3456C402.038 57.3427 401.902 57.2758 401.849 57.2466L402.154 56.8139Z" fill="white" stroke="black" stroke-width="2"/>
<path d="M185.629 304.564L150.251 289.314C116.308 274.683 94.7617 240.787 95.9207 203.843L97.5 153.5L96.5329 123.107C95.1473 79.5567 130.075 43.5 173.647 43.5C179.199 43.5 184.736 42.9006 190.16 41.7122L243.237 30.083C261.306 26.124 280.156 27.8288 297.221 34.9653L326 47C365.899 57.855 393.184 94.6105 392.025 135.944L391 172.5L391.875 204.013C393.1 248.135 362.148 286.634 318.793 294.913L238.138 310.317C220.453 313.695 202.162 311.69 185.629 304.564Z" fill="black"/>
<mask id="path-3-outside-1_108_2840" maskUnits="userSpaceOnUse" x="263" y="282" width="58" height="186" fill="black">
<rect fill="white" x="263" y="282" width="58" height="186"/>
<path d="M277.575 285.167C281.463 284.27 285.227 287.091 285.498 291.071C288.663 337.624 292.691 367.906 283.323 434.298C286.046 433.751 288.965 433.454 292 433.454C306.912 433.454 319 440.618 319 449.454C319 458.291 306.912 465.454 292 465.454C277.088 465.454 265 458.291 265 449.454C265 447.176 265.804 445.01 267.252 443.049C278.385 381.042 278.231 347.218 272.594 292.148C272.261 288.899 274.393 285.901 277.575 285.167Z"/>
</mask>
<path d="M277.575 285.167C281.463 284.27 285.227 287.091 285.498 291.071C288.663 337.624 292.691 367.906 283.323 434.298C286.046 433.751 288.965 433.454 292 433.454C306.912 433.454 319 440.618 319 449.454C319 458.291 306.912 465.454 292 465.454C277.088 465.454 265 458.291 265 449.454C265 447.176 265.804 445.01 267.252 443.049C278.385 381.042 278.231 347.218 272.594 292.148C272.261 288.899 274.393 285.901 277.575 285.167Z" fill="white"/>
<path d="M277.575 285.167L277.125 283.218L277.125 283.218L277.575 285.167ZM285.498 291.071L283.503 291.207V291.207L285.498 291.071ZM283.323 434.298L281.343 434.018L280.948 436.815L283.717 436.259L283.323 434.298ZM267.252 443.049L268.861 444.237L269.138 443.861L269.22 443.402L267.252 443.049ZM272.594 292.148L274.583 291.945V291.945L272.594 292.148ZM277.575 285.167L278.025 287.116C280.7 286.498 283.315 288.441 283.503 291.207L285.498 291.071L287.493 290.936C287.14 285.74 282.225 282.041 277.125 283.218L277.575 285.167ZM285.498 291.071L283.503 291.207C286.668 337.774 290.677 367.86 281.343 434.018L283.323 434.298L285.304 434.577C294.704 367.951 290.657 337.473 287.493 290.936L285.498 291.071ZM283.323 434.298L283.717 436.259C286.308 435.738 289.094 435.454 292 435.454V433.454V431.454C288.836 431.454 285.785 431.763 282.929 432.337L283.323 434.298ZM292 433.454V435.454C299.16 435.454 305.545 437.178 310.072 439.861C314.643 442.57 317 446.027 317 449.454H319H321C321 444.045 317.312 439.502 312.111 436.42C306.867 433.312 299.752 431.454 292 431.454V433.454ZM319 449.454H317C317 452.882 314.643 456.338 310.072 459.047C305.545 461.73 299.16 463.454 292 463.454V465.454V467.454C299.752 467.454 306.867 465.596 312.111 462.488C317.312 459.406 321 454.863 321 449.454H319ZM292 465.454V463.454C284.84 463.454 278.455 461.73 273.928 459.047C269.357 456.338 267 452.882 267 449.454H265H263C263 454.863 266.688 459.406 271.889 462.488C277.133 465.596 284.248 467.454 292 467.454V465.454ZM265 449.454H267C267 447.67 267.625 445.912 268.861 444.237L267.252 443.049L265.643 441.861C263.984 444.109 263 446.682 263 449.454H265ZM267.252 443.049L269.22 443.402C280.391 381.187 280.237 347.173 274.583 291.945L272.594 292.148L270.604 292.352C276.225 347.263 276.379 380.898 265.283 442.695L267.252 443.049ZM272.594 292.148L274.583 291.945C274.353 289.693 275.831 287.622 278.025 287.116L277.575 285.167L277.125 283.218C272.955 284.181 270.169 288.106 270.604 292.352L272.594 292.148Z" fill="black" mask="url(#path-3-outside-1_108_2840)"/>
<mask id="path-5-outside-2_108_2840" maskUnits="userSpaceOnUse" x="135" y="279" width="58" height="186" fill="black">
<rect fill="white" x="135" y="279" width="58" height="186"/>
<path d="M178.425 282.167C174.537 281.27 170.773 284.092 170.501 288.072C167.318 334.719 163.261 363.352 172.845 430.493C172.887 430.79 172.948 431.083 173.022 431.37C170.201 430.777 167.164 430.454 164 430.454C149.088 430.454 137 437.618 137 446.454C137 455.291 149.088 462.454 164 462.454C178.912 462.454 191 455.291 191 446.454C191 444.176 190.196 442.01 188.748 440.049C177.615 378.042 177.769 344.218 183.406 289.148C183.739 285.899 181.607 282.901 178.425 282.167Z"/>
</mask>
<path d="M178.425 282.167C174.537 281.27 170.773 284.092 170.501 288.072C167.318 334.719 163.261 363.352 172.845 430.493C172.887 430.79 172.948 431.083 173.022 431.37C170.201 430.777 167.164 430.454 164 430.454C149.088 430.454 137 437.618 137 446.454C137 455.291 149.088 462.454 164 462.454C178.912 462.454 191 455.291 191 446.454C191 444.176 190.196 442.01 188.748 440.049C177.615 378.042 177.769 344.218 183.406 289.148C183.739 285.899 181.607 282.901 178.425 282.167Z" fill="white"/>
<path d="M178.425 282.167L178.875 280.218L178.875 280.218L178.425 282.167ZM170.501 288.072L168.506 287.936V287.936L170.501 288.072ZM172.845 430.493L170.865 430.776L170.865 430.776L172.845 430.493ZM173.022 431.37L174.958 430.867L175.771 433.991L172.611 433.327L173.022 431.37ZM188.748 440.049L187.139 441.237L186.862 440.861L186.78 440.402L188.748 440.049ZM183.406 289.148L181.417 288.945V288.945L183.406 289.148ZM178.425 282.167L177.975 284.116C175.3 283.498 172.685 285.442 172.496 288.208L170.501 288.072L168.506 287.936C168.86 282.742 173.774 279.041 178.875 280.218L178.425 282.167ZM170.501 288.072L172.496 288.208C169.312 334.868 165.274 363.304 174.825 430.211L172.845 430.493L170.865 430.776C161.247 363.399 165.323 334.569 168.506 287.936L170.501 288.072ZM172.845 430.493L174.825 430.21C174.855 430.426 174.9 430.644 174.958 430.867L173.022 431.37L171.087 431.874C170.995 431.521 170.919 431.155 170.865 430.776L172.845 430.493ZM173.022 431.37L172.611 433.327C169.928 432.764 167.029 432.454 164 432.454V430.454V428.454C167.299 428.454 170.474 428.791 173.434 429.413L173.022 431.37ZM164 430.454V432.454C156.84 432.454 150.455 434.178 145.928 436.861C141.357 439.57 139 443.027 139 446.454H137H135C135 441.045 138.688 436.502 143.889 433.42C149.133 430.312 156.248 428.454 164 428.454V430.454ZM137 446.454H139C139 449.882 141.357 453.338 145.928 456.047C150.455 458.73 156.84 460.454 164 460.454V462.454V464.454C156.248 464.454 149.133 462.596 143.889 459.488C138.688 456.406 135 451.863 135 446.454H137ZM164 462.454V460.454C171.16 460.454 177.545 458.73 182.072 456.047C186.643 453.338 189 449.882 189 446.454H191H193C193 451.863 189.312 456.406 184.111 459.488C178.867 462.596 171.752 464.454 164 464.454V462.454ZM191 446.454H189C189 444.67 188.375 442.912 187.139 441.237L188.748 440.049L190.357 438.861C192.016 441.109 193 443.682 193 446.454H191ZM188.748 440.049L186.78 440.402C175.609 378.187 175.763 344.173 181.417 288.945L183.406 289.148L185.396 289.352C179.775 344.263 179.621 377.898 190.717 439.695L188.748 440.049ZM183.406 289.148L181.417 288.945C181.647 286.693 180.169 284.622 177.975 284.116L178.425 282.167L178.875 280.218C183.045 281.181 185.831 285.106 185.396 289.352L183.406 289.148Z" fill="black" mask="url(#path-5-outside-2_108_2840)"/>
<path d="M219.374 248.657L219.144 181.231C219.148 172.576 218.73 154.953 219.713 146.976L219.714 146.966C220.405 140.868 222.627 135.044 226.173 130.039L226.174 130.038C230.532 123.865 234.832 120.624 239.723 118.536C244.682 116.419 250.249 115.476 257.304 113.947L257.305 113.948L284.998 108.005L284.999 108.004L339.087 96.3535C348.946 94.2294 360.07 91.5827 369.823 89.8711C374.619 89.2735 380.181 90.7667 383.927 93.7178C393.044 100.899 393.074 112.423 392.873 123.594C392.809 127.169 392.835 130.831 392.85 134.442L392.856 138.033L392.822 189.167L392.791 235.363H392.79L392.791 235.364C392.807 251.858 395.012 264.846 384.516 277.933C376.175 288.331 367.559 289.52 355.48 291.981L353.018 292.494L321.674 299.153H321.672L271.056 310H271.055C263.502 311.626 250.363 314.856 243.062 315.719C237.906 315.931 233.514 315.399 229.389 312.604L228.989 312.325C223.705 308.534 221.307 303.479 220.223 297.864C219.128 292.194 219.388 286.065 219.37 280.112L219.374 248.66V248.657Z" fill="white" stroke="black" stroke-width="2"/>
<ellipse cx="263.5" cy="183.5" rx="23.5" ry="29.5" fill="black"/>
<ellipse cx="313.5" cy="244" rx="23.5" ry="23" fill="black"/>
<ellipse cx="348.5" cy="168.5" rx="23.5" ry="29.5" fill="black"/>
<path d="M106.451 70.8793C111.256 70.6169 114.91 72.5637 119.107 74.663L167.488 99.4305C185.475 108.685 198.798 111.567 205.61 132.355C207.147 136.981 208.086 141.78 208.404 146.642C208.918 154.477 208.645 164.535 208.643 172.475L208.607 218.87L208.534 265.715C208.526 274.588 208.678 283.606 208.315 292.459C207.974 300.777 205.379 308.187 196.812 310.873C190.232 311.182 184.32 307.358 178.597 304.41L162.012 295.799L116.017 271.911C110.059 268.77 107.004 266.475 103.159 260.84C92.1279 244.681 94.1351 227.493 94.155 208.855L94.2392 160.727L94.3763 113.638C94.4034 108.417 94.33 103.176 94.4154 97.9549C94.5873 87.4986 94.2363 74.4032 106.451 70.8793Z" fill="white"/>
<path d="M106.618 71.873C111.057 71.6636 114.449 73.4512 118.66 75.5576V75.5566L167.03 100.318V100.319C171.536 102.638 175.785 104.574 179.636 106.454C183.509 108.345 187.018 110.196 190.168 112.389C196.421 116.741 201.322 122.48 204.66 132.666L204.661 132.67C206.171 137.215 207.093 141.93 207.405 146.707H207.406C207.853 153.525 207.701 162.026 207.654 169.395L207.643 172.475L207.606 218.869L207.533 265.713V265.714C207.526 274.611 207.677 283.592 207.315 292.419C207.148 296.501 206.429 300.26 204.771 303.299C203.147 306.273 200.598 308.605 196.638 309.878C193.603 309.994 190.679 309.182 187.775 307.943C184.803 306.676 181.979 305.027 179.054 303.521L162.473 294.911L116.478 271.023C113.523 269.466 111.345 268.146 109.438 266.545C107.538 264.948 105.872 263.041 103.985 260.276H103.984C93.1725 244.438 95.1352 227.656 95.1553 208.857L95.2393 160.729L95.376 113.644C95.4033 108.391 95.3296 103.191 95.415 97.9717C95.5019 92.685 95.4629 86.9583 96.877 82.0967C98.2581 77.3482 100.994 73.5347 106.618 71.873Z" fill="white" stroke="black" stroke-width="2"/>
<path d="M117.992 211.426C135.051 211.497 143.24 250.879 127.872 255.313C111.586 255.942 102.01 216.606 117.992 211.426Z" fill="black"/>
<path d="M174.245 126.176C191.608 125.278 200.114 163.603 185.049 169.634C170.434 171.99 158.119 134.213 174.245 126.176Z" fill="black"/>
<g filter="url(#filter0_d_108_2840)">
<path d="M260.371 22.1338C269.536 21.6628 278.74 22.3815 287.483 25.1123C292.307 26.6184 297.465 29.5403 302.224 31.9131L302.227 31.9141C310.474 35.996 318.689 40.1406 326.873 44.3467L326.88 44.3496L356.561 59.3193V59.3203C361.445 61.8023 366.698 64.1999 371.155 67.0762C373.541 68.6157 374.449 69.9435 374.654 70.9619C374.848 71.9257 374.465 72.9107 373.47 73.9414C372.471 74.9754 370.97 75.9237 369.288 76.7275C367.618 77.5256 365.833 78.1508 364.321 78.5625C357.145 80.5171 349.996 81.9227 342.747 83.4492L339.634 84.1133L293.214 94.1289H293.213L256.46 102.103C247.301 104.064 238.417 106.258 229.203 106.904H229.191L229.18 106.905C221.412 107.631 208.647 106.344 201.422 103.941H201.421C195.712 102.046 187.367 97.4706 181.572 94.5264L148.245 77.5273L148.241 77.5254L128.833 67.7236C125.303 65.9412 121.446 64.2306 118.298 62.1514C115.928 60.586 114.978 59.212 114.742 58.127C114.518 57.0942 114.887 56.0573 115.852 54.9922C116.824 53.918 118.312 52.9267 120.022 52.0859C121.721 51.251 123.576 50.5947 125.226 50.165C132.834 48.1833 140.53 46.7115 148.291 45.0742L190.82 36.0898H190.822L230.343 27.6562H230.344C240.189 25.5431 250.52 23.0409 260.371 22.1338Z" fill="white" stroke="black" stroke-width="2"/>
<path d="M242.506 57.0796C248.393 56.7707 266.532 57.0123 268.249 64.3904C269.496 69.7368 253.437 71.4593 250.237 71.7648C243.418 72.087 232.71 71.5202 226.849 67.7973C221.155 64.18 225.386 60.5664 229.988 59.2038C234.62 57.8328 237.709 57.4292 242.506 57.0796Z" fill="black"/>
</g>
<path d="M24.7434 28.3361C25.2865 28.2108 25.8427 28.2197 26.4316 28.3305C28.973 28.8089 30.5355 31.0581 31.3013 33.1136L36.9684 48.3248C37.4924 49.7307 38.8641 50.6208 40.3403 50.5494L40.636 50.5221L40.6846 50.5155L40.7334 50.5139C42.1314 50.4622 43.2091 49.2636 43.1138 47.8679L42.2418 35.0994C42.1264 33.4103 42.5114 31.588 43.3823 30.1517C44.263 28.6994 45.7009 27.5659 47.6444 27.5413C49.4558 27.5184 50.809 28.4923 51.6766 29.7903C52.5289 31.0655 52.9557 32.6987 53.0023 34.2389L53.4878 50.3119C53.5509 52.3976 54.5418 54.3459 56.1893 55.6265L56.7674 56.0771L56.7796 56.0862L56.7921 56.0963C58.4881 57.5021 61.0316 57.1095 62.2252 55.2579L64.4952 51.7357C65.6916 49.8798 67.7485 48.0521 70.3545 48.2781C71.9091 48.413 73.2074 48.9886 74.1829 50.0003C75.1445 50.9976 75.398 52.2594 75.2903 53.4439C75.1841 54.6117 74.7268 55.7704 74.1738 56.7346L64.6083 73.4097C64.709 73.7346 64.7471 74.1346 64.7552 74.5281C64.7746 75.4631 64.6331 76.8151 64.2384 78.3978C63.4905 81.396 61.8065 85.3202 58.4333 88.9148L58.4436 88.9284L58.3897 88.9804C62.9787 96.5922 92.1347 151.685 152.825 181.826C157.947 184.37 159.799 190.963 156.37 195.639L155.32 197.072C152.722 200.614 147.902 201.807 144.029 199.615C96.3526 172.618 58.8554 117.835 47.9167 100.733C46.1882 98.0305 42.6951 96.6784 39.1657 95.8854C34.8671 94.9196 30.2154 92.3925 26.4147 89.1769C22.6277 85.9731 19.5478 81.9676 18.581 77.9562C18.345 76.9769 18.1439 75.9437 17.9391 74.9409C17.7319 73.9269 17.5179 72.931 17.2506 71.9748C16.7135 70.0531 15.9851 68.3925 14.772 67.1783C11.9687 64.3728 10.1618 62.2466 7.09353 59.3529C6.14964 58.4627 5.24101 57.3097 4.73617 56.0435C4.22547 54.7625 4.10165 53.2791 4.90484 51.8964C5.34012 51.1472 5.95352 50.54 6.77709 50.1263C7.95733 49.5336 9.17982 49.643 10.24 50.0273C11.287 50.4069 12.2498 51.0772 13.0299 51.743C14.6168 53.0974 15.9791 54.1303 17.38 55.1791C18.7801 56.2274 20.2242 57.2956 21.9407 58.7026C23.2559 59.7807 25.1876 59.5379 26.1265 58.1995L26.1452 58.1729L26.1652 58.1471C27.5057 56.4807 27.879 54.2351 27.1498 52.2246L24.3013 44.3711L24.2972 44.358L24.2919 44.3442L21.9152 37.1603C21.4117 35.6386 21.1945 33.7436 21.5176 32.09C21.8414 30.4329 22.7762 28.7904 24.7434 28.3361ZM63.6975 73.9017C63.7235 74.047 63.7415 74.2276 63.7495 74.4404C63.7633 74.4362 63.7774 74.4334 63.7909 74.4286C63.9758 74.3622 64.083 74.2556 64.1235 74.2108L63.6975 73.9017Z" fill="white" stroke="black" stroke-width="2"/>
<defs>
<filter id="filter0_d_108_2840" x="109.678" y="21" width="270.025" height="95.1094" filterUnits="userSpaceOnUse" color-interpolation-filters="sRGB">
<feFlood flood-opacity="0" result="BackgroundImageFix"/>
<feColorMatrix in="SourceAlpha" type="matrix" values="0 0 0 0 0 0 0 0 0 0 0 0 0 0 0 0 0 0 127 0" result="hardAlpha"/>
<feOffset dy="4"/>
<feGaussianBlur stdDeviation="2"/>
<feComposite in2="hardAlpha" operator="out"/>
<feColorMatrix type="matrix" values="0 0 0 0 0 0 0 0 0 0 0 0 0 0 0 0 0 0 0.25 0"/>
<feBlend mode="normal" in2="BackgroundImageFix" result="effect1_dropShadow_108_2840"/>
<feBlend mode="normal" in="SourceGraphic" in2="effect1_dropShadow_108_2840" result="shape"/>
</filter>
</defs>
</svg>
