<svg width="406" height="447" viewBox="0 0 406 447" fill="none" xmlns="http://www.w3.org/2000/svg">
<mask id="path-1-outside-1_108_2961" maskUnits="userSpaceOnUse" x="291.328" y="204" width="115" height="76" fill="black">
<rect fill="white" x="291.328" y="204" width="115" height="76"/>
<path d="M378.455 206C392.236 206 403.408 217.172 403.408 230.953C403.408 244.734 392.236 255.906 378.455 255.906C375.746 255.906 373.138 255.472 370.695 254.674C358.24 271.442 345.864 278.954 333.475 277.516C320.297 275.986 307.377 264.349 294.574 243.719C293.539 242.051 293.134 240.046 293.415 238.108L293.485 237.629C294.101 233.388 297.417 230.858 301.062 230.299C304.703 229.74 308.762 231.13 310.925 234.801C314.789 241.359 318.632 246.671 322.484 250.559C326.338 254.448 330.174 256.886 334.022 257.749C341.318 259.385 348.952 255.395 357.169 243.98C354.843 240.188 353.501 235.728 353.501 230.953C353.501 217.172 364.674 206 378.455 206Z"/>
</mask>
<path d="M378.455 206C392.236 206 403.408 217.172 403.408 230.953C403.408 244.734 392.236 255.906 378.455 255.906C375.746 255.906 373.138 255.472 370.695 254.674C358.24 271.442 345.864 278.954 333.475 277.516C320.297 275.986 307.377 264.349 294.574 243.719C293.539 242.051 293.134 240.046 293.415 238.108L293.485 237.629C294.101 233.388 297.417 230.858 301.062 230.299C304.703 229.74 308.762 231.13 310.925 234.801C314.789 241.359 318.632 246.671 322.484 250.559C326.338 254.448 330.174 256.886 334.022 257.749C341.318 259.385 348.952 255.395 357.169 243.98C354.843 240.188 353.501 235.728 353.501 230.953C353.501 217.172 364.674 206 378.455 206Z" fill="white"/>
<path d="M378.455 206L378.455 204H378.455V206ZM403.408 230.953L405.408 230.953V230.953H403.408ZM378.455 255.906V257.906H378.455L378.455 255.906ZM370.695 254.674L371.317 252.773L369.948 252.325L369.09 253.481L370.695 254.674ZM333.475 277.516L333.705 275.529H333.705L333.475 277.516ZM294.574 243.719L292.875 244.773L292.875 244.773L294.574 243.719ZM293.415 238.108L291.436 237.818L291.436 237.821L293.415 238.108ZM293.485 237.629L295.464 237.919L295.465 237.916L293.485 237.629ZM301.062 230.299L300.759 228.322L300.759 228.322L301.062 230.299ZM310.925 234.801L309.202 235.816L309.202 235.816L310.925 234.801ZM322.484 250.559L321.064 251.966H321.064L322.484 250.559ZM334.022 257.749L333.585 259.701L333.585 259.701L334.022 257.749ZM357.169 243.98L358.792 245.149L359.569 244.069L358.874 242.935L357.169 243.98ZM353.501 230.953H351.501V230.953L353.501 230.953ZM378.455 206L378.455 208C391.132 208 401.408 218.276 401.408 230.953H403.408H405.408C405.408 216.067 393.341 204 378.455 204L378.455 206ZM403.408 230.953L401.408 230.953C401.408 243.63 391.132 253.906 378.455 253.906L378.455 255.906L378.455 257.906C393.341 257.906 405.408 245.839 405.408 230.953L403.408 230.953ZM378.455 255.906V253.906C375.961 253.906 373.562 253.507 371.317 252.773L370.695 254.674L370.074 256.575C372.714 257.438 375.531 257.906 378.455 257.906V255.906ZM370.695 254.674L369.09 253.481C356.772 270.065 345.007 276.841 333.705 275.529L333.475 277.516L333.244 279.502C346.721 281.066 359.709 272.818 372.301 255.866L370.695 254.674ZM333.475 277.516L333.705 275.529C321.513 274.114 309.033 263.225 296.274 242.664L294.574 243.719L292.875 244.773C305.721 265.474 319.08 277.858 333.244 279.502L333.475 277.516ZM294.574 243.719L296.274 242.664C295.491 241.404 295.179 239.876 295.394 238.396L293.415 238.108L291.436 237.821C291.088 240.217 291.587 242.698 292.875 244.773L294.574 243.719ZM293.415 238.108L295.394 238.399L295.464 237.919L293.485 237.629L291.507 237.339L291.436 237.818L293.415 238.108ZM293.485 237.629L295.465 237.916C295.929 234.716 298.407 232.73 301.366 232.276L301.062 230.299L300.759 228.322C296.427 228.987 292.273 232.061 291.506 237.342L293.485 237.629ZM301.062 230.299L301.366 232.276C304.338 231.82 307.522 232.965 309.202 235.816L310.925 234.801L312.648 233.785C310.002 229.296 305.069 227.661 300.759 228.322L301.062 230.299ZM310.925 234.801L309.202 235.816C313.112 242.452 317.052 247.917 321.064 251.966L322.484 250.559L323.905 249.151C320.213 245.424 316.466 240.265 312.648 233.785L310.925 234.801ZM322.484 250.559L321.064 251.966C325.071 256.011 329.23 258.724 333.585 259.701L334.022 257.749L334.46 255.797C331.118 255.048 327.606 252.886 323.905 249.151L322.484 250.559ZM334.022 257.749L333.585 259.701C342.099 261.61 350.441 256.75 358.792 245.149L357.169 243.98L355.546 242.812C347.463 254.04 340.537 257.16 334.46 255.797L334.022 257.749ZM357.169 243.98L358.874 242.935C356.735 239.448 355.501 235.348 355.501 230.953L353.501 230.953L351.501 230.953C351.501 236.108 352.951 240.929 355.464 245.026L357.169 243.98ZM353.501 230.953H355.501C355.501 218.276 365.778 208 378.455 208V206V204C363.569 204 351.501 216.067 351.501 230.953H353.501Z" fill="black" mask="url(#path-1-outside-1_108_2961)"/>
<path d="M99.1286 283.564L63.7506 268.314C29.808 253.683 8.2617 219.787 9.42067 182.843L11 132.5L10.0329 102.107C8.64726 58.5567 43.5749 22.5 87.1469 22.5C92.6994 22.5 98.2357 21.9006 103.66 20.7122L156.737 9.08297C174.806 5.12402 193.656 6.8288 210.721 13.9653L239.5 26C279.43 36.8633 306.828 73.5607 305.87 114.931L305 152.547L305.72 183.345C306.747 227.322 275.835 265.598 232.627 273.85L151.638 289.317C133.953 292.695 115.662 290.69 99.1286 283.564Z" fill="black"/>
<mask id="path-4-outside-2_108_2961" maskUnits="userSpaceOnUse" x="176.5" y="261" width="58" height="186" fill="black">
<rect fill="white" x="176.5" y="261" width="58" height="186"/>
<path d="M191.075 264.167C194.963 263.27 198.727 266.093 198.997 270.074C202.149 316.632 205.787 342.651 196.035 410.291C195.851 411.567 195.358 412.773 194.622 413.807C197.95 412.938 201.63 412.454 205.5 412.454C220.412 412.454 232.5 419.618 232.5 428.454C232.5 437.291 220.412 444.454 205.5 444.454C190.588 444.454 178.5 437.291 178.5 428.454C178.5 426.176 179.304 424.01 180.752 422.049C191.885 360.042 191.731 326.218 186.094 271.148C185.761 267.899 187.893 264.901 191.075 264.167Z"/>
</mask>
<path d="M191.075 264.167C194.963 263.27 198.727 266.093 198.997 270.074C202.149 316.632 205.787 342.651 196.035 410.291C195.851 411.567 195.358 412.773 194.622 413.807C197.95 412.938 201.63 412.454 205.5 412.454C220.412 412.454 232.5 419.618 232.5 428.454C232.5 437.291 220.412 444.454 205.5 444.454C190.588 444.454 178.5 437.291 178.5 428.454C178.5 426.176 179.304 424.01 180.752 422.049C191.885 360.042 191.731 326.218 186.094 271.148C185.761 267.899 187.893 264.901 191.075 264.167Z" fill="white"/>
<path d="M191.075 264.167L190.625 262.218L190.625 262.218L191.075 264.167ZM198.997 270.074L200.993 269.939L200.993 269.939L198.997 270.074ZM196.035 410.291L194.056 410.006V410.006L196.035 410.291ZM194.622 413.807L192.993 412.647L189.798 417.134L195.127 415.742L194.622 413.807ZM180.752 422.049L182.361 423.237L182.638 422.861L182.72 422.402L180.752 422.049ZM186.094 271.148L188.083 270.945V270.945L186.094 271.148ZM191.075 264.167L191.525 266.116C194.199 265.499 196.814 267.443 197.002 270.209L198.997 270.074L200.993 269.939C200.641 264.744 195.726 261.041 190.625 262.218L191.075 264.167ZM198.997 270.074L197.002 270.209C200.154 316.761 203.775 342.594 194.056 410.006L196.035 410.291L198.015 410.576C207.799 342.708 204.145 316.504 200.993 269.939L198.997 270.074ZM196.035 410.291L194.056 410.006C193.918 410.959 193.549 411.866 192.993 412.647L194.622 413.807L196.251 414.967C197.168 413.68 197.784 412.175 198.015 410.576L196.035 410.291ZM194.622 413.807L195.127 415.742C198.284 414.917 201.794 414.454 205.5 414.454V412.454V410.454C201.465 410.454 197.615 410.958 194.117 411.872L194.622 413.807ZM205.5 412.454V414.454C212.66 414.454 219.045 416.178 223.572 418.861C228.143 421.57 230.5 425.027 230.5 428.454H232.5H234.5C234.5 423.045 230.812 418.502 225.611 415.42C220.367 412.312 213.252 410.454 205.5 410.454V412.454ZM232.5 428.454H230.5C230.5 431.882 228.143 435.338 223.572 438.047C219.045 440.73 212.66 442.454 205.5 442.454V444.454V446.454C213.252 446.454 220.367 444.596 225.611 441.488C230.812 438.406 234.5 433.863 234.5 428.454H232.5ZM205.5 444.454V442.454C198.34 442.454 191.955 440.73 187.428 438.047C182.857 435.338 180.5 431.882 180.5 428.454H178.5H176.5C176.5 433.863 180.188 438.406 185.389 441.488C190.633 444.596 197.748 446.454 205.5 446.454V444.454ZM178.5 428.454H180.5C180.5 426.67 181.125 424.912 182.361 423.237L180.752 422.049L179.143 420.861C177.484 423.109 176.5 425.682 176.5 428.454H178.5ZM180.752 422.049L182.72 422.402C193.891 360.187 193.737 326.173 188.083 270.945L186.094 271.148L184.104 271.352C189.725 326.263 189.879 359.898 178.783 421.695L180.752 422.049ZM186.094 271.148L188.083 270.945C187.853 268.693 189.331 266.622 191.525 266.116L191.075 264.167L190.625 262.218C186.455 263.181 183.669 267.106 184.104 271.352L186.094 271.148Z" fill="black" mask="url(#path-4-outside-2_108_2961)"/>
<mask id="path-6-inside-3_108_2961" fill="white">
<path d="M92.374 259.219C87.2732 258.042 82.3586 261.744 82.0068 266.939C78.8541 313.504 75.2006 339.709 84.9854 407.577C85.1176 408.494 85.3778 409.381 85.749 410.216C83.1487 409.722 80.377 409.454 77.5 409.454C62.5883 409.454 50.5 416.618 50.5 425.454C50.5 434.291 62.5883 441.454 77.5 441.454C92.4117 441.454 104.5 434.291 104.5 425.454C104.5 424.97 104.462 424.491 104.391 424.018L105.28 424.582L104.468 420.098C93.117 357.402 93.2321 323.674 98.8955 268.352C99.3301 264.105 96.5447 260.181 92.374 259.219ZM96.9404 267.543C96.9395 267.643 96.9363 267.744 96.9307 267.845C96.925 267.946 96.9166 268.047 96.9062 268.148C96.927 267.945 96.9376 267.743 96.9395 267.542L96.9404 267.543ZM87.1318 261.938C87.1463 261.93 87.1602 261.92 87.1748 261.911C87.1992 261.897 87.2244 261.883 87.249 261.869C87.2097 261.892 87.1706 261.915 87.1318 261.938ZM87.415 261.776C87.4447 261.76 87.474 261.744 87.5039 261.729C87.4741 261.744 87.4446 261.76 87.415 261.776ZM90.4795 261C90.7172 261 90.9571 261.014 91.1982 261.042L90.8369 261.011C90.7173 261.004 90.5981 261 90.4795 261Z"/>
</mask>
<path d="M92.374 259.219C87.2732 258.042 82.3586 261.744 82.0068 266.939C78.8541 313.504 75.2006 339.709 84.9854 407.577C85.1176 408.494 85.3778 409.381 85.749 410.216C83.1487 409.722 80.377 409.454 77.5 409.454C62.5883 409.454 50.5 416.618 50.5 425.454C50.5 434.291 62.5883 441.454 77.5 441.454C92.4117 441.454 104.5 434.291 104.5 425.454C104.5 424.97 104.462 424.491 104.391 424.018L105.28 424.582L104.468 420.098C93.117 357.402 93.2321 323.674 98.8955 268.352C99.3301 264.105 96.5447 260.181 92.374 259.219ZM96.9404 267.543C96.9395 267.643 96.9363 267.744 96.9307 267.845C96.925 267.946 96.9166 268.047 96.9062 268.148C96.927 267.945 96.9376 267.743 96.9395 267.542L96.9404 267.543ZM87.1318 261.938C87.1463 261.93 87.1602 261.92 87.1748 261.911C87.1992 261.897 87.2244 261.883 87.249 261.869C87.2097 261.892 87.1706 261.915 87.1318 261.938ZM87.415 261.776C87.4447 261.76 87.474 261.744 87.5039 261.729C87.4741 261.744 87.4446 261.76 87.415 261.776ZM90.4795 261C90.7172 261 90.9571 261.014 91.1982 261.042L90.8369 261.011C90.7173 261.004 90.5981 261 90.4795 261Z" fill="white"/>
<path d="M92.374 259.219L92.5989 258.244L92.5989 258.244L92.374 259.219ZM82.0068 266.939L81.0091 266.872V266.872L82.0068 266.939ZM84.9854 407.577L83.9956 407.72L83.9956 407.72L84.9854 407.577ZM85.749 410.216L86.6627 409.809L87.439 411.555L85.5624 411.198L85.749 410.216ZM104.391 424.018L103.402 424.166L103.076 421.999L104.926 423.173L104.391 424.018ZM105.28 424.582L106.264 424.404L106.671 426.649L104.745 425.426L105.28 424.582ZM104.468 420.098L103.484 420.276L103.484 420.276L104.468 420.098ZM98.8955 268.352L99.8903 268.453L99.8903 268.453L98.8955 268.352ZM96.9404 267.543L97.6475 266.836L97.9444 267.133L97.9404 267.552L96.9404 267.543ZM96.9307 267.845L95.9322 267.789L95.9322 267.789L96.9307 267.845ZM96.9395 267.542L95.9395 267.533L95.9617 265.15L97.6466 266.835L96.9395 267.542ZM87.1318 261.938L87.6504 262.794L86.6131 261.084L87.1318 261.938ZM87.1748 261.911L87.6867 262.77L87.6866 262.77L87.1748 261.911ZM87.249 261.869L86.7489 261.003L87.7499 262.735L87.249 261.869ZM87.415 261.776L87.8891 262.657L86.9396 260.897L87.415 261.776ZM87.5039 261.729L87.0436 260.841L87.9657 262.616L87.5039 261.729ZM90.4795 261L90.4775 262L90.4814 260L90.4795 261ZM91.1982 261.042L91.3121 260.048L91.1121 262.038L91.1982 261.042ZM90.8369 261.011L90.8947 260.012L90.9089 260.013L90.9231 260.014L90.8369 261.011ZM92.374 259.219L92.1492 260.193C87.6556 259.156 83.3152 262.419 83.0046 267.007L82.0068 266.939L81.0091 266.872C81.4019 261.07 86.8909 256.927 92.5989 258.244L92.374 259.219ZM82.0068 266.939L83.0046 267.007C79.852 313.568 76.2068 339.68 85.9751 407.434L84.9854 407.577L83.9956 407.72C74.1943 339.737 77.8562 313.439 81.0091 266.872L82.0068 266.939ZM84.9854 407.577L85.9751 407.434C86.0939 408.258 86.3279 409.057 86.6627 409.809L85.749 410.216L84.8353 410.622C84.4277 409.706 84.1413 408.73 83.9956 407.72L84.9854 407.577ZM85.749 410.216L85.5624 411.198C83.0246 410.716 80.3154 410.454 77.5 410.454V409.454V408.454C80.4387 408.454 83.2729 408.728 85.9356 409.233L85.749 410.216ZM77.5 409.454V410.454C70.1921 410.454 63.6246 412.212 58.9179 415.001C54.1893 417.803 51.5 421.531 51.5 425.454H50.5H49.5C49.5 420.54 52.8548 416.269 57.8983 413.28C62.9637 410.278 69.8962 408.454 77.5 408.454V409.454ZM50.5 425.454H51.5C51.5 429.377 54.1893 433.105 58.9179 435.908C63.6246 438.697 70.1921 440.454 77.5 440.454V441.454V442.454C69.8962 442.454 62.9637 440.63 57.8983 437.628C52.8548 434.639 49.5 430.368 49.5 425.454H50.5ZM77.5 441.454V440.454C84.8079 440.454 91.3754 438.697 96.0821 435.908C100.811 433.105 103.5 429.377 103.5 425.454H104.5H105.5C105.5 430.368 102.145 434.639 97.1017 437.628C92.0363 440.63 85.1038 442.454 77.5 442.454V441.454ZM104.5 425.454H103.5C103.5 425.023 103.466 424.593 103.402 424.166L104.391 424.018L105.38 423.869C105.458 424.388 105.5 424.917 105.5 425.454H104.5ZM104.391 424.018L104.926 423.173L105.816 423.738L105.28 424.582L104.745 425.426L103.855 424.862L104.391 424.018ZM105.28 424.582L104.296 424.76L103.484 420.276L104.468 420.098L105.452 419.919L106.264 424.404L105.28 424.582ZM104.468 420.098L103.484 420.276C92.1141 357.476 92.229 323.653 97.9007 268.25L98.8955 268.352L99.8903 268.453C94.2352 323.696 94.1198 357.328 105.452 419.92L104.468 420.098ZM98.8955 268.352L97.9007 268.25C98.2843 264.502 95.8256 261.042 92.1492 260.193L92.374 259.219L92.5989 258.244C97.2639 259.321 100.376 263.709 99.8903 268.453L98.8955 268.352ZM96.9404 267.543L97.9404 267.552C97.9393 267.668 97.9356 267.784 97.9291 267.9L96.9307 267.845L95.9322 267.789C95.937 267.704 95.9397 267.619 95.9405 267.533L96.9404 267.543ZM96.9307 267.845L97.9291 267.9C97.9225 268.019 97.9127 268.136 97.9011 268.25L96.9062 268.148L95.9114 268.047C95.9206 267.958 95.9276 267.872 95.9322 267.789L96.9307 267.845ZM96.9062 268.148L95.9114 268.047C95.9289 267.876 95.9379 267.705 95.9395 267.533L96.9395 267.542L97.9394 267.551C97.9373 267.781 97.9252 268.014 97.9011 268.25L96.9062 268.148ZM96.9395 267.542L97.6466 266.835L97.6475 266.836L96.9404 267.543L96.2333 268.25L96.2323 268.249L96.9395 267.542ZM87.1318 261.938L86.6133 261.083C86.6068 261.087 86.6024 261.09 86.6014 261.091C86.601 261.091 86.6008 261.091 86.6057 261.088C86.6093 261.086 86.6171 261.081 86.6261 261.075C86.6353 261.069 86.648 261.061 86.663 261.052L87.1748 261.911L87.6866 262.77C87.6943 262.766 87.6998 262.762 87.7019 262.761C87.7037 262.76 87.7044 262.759 87.7009 262.762C87.6987 262.763 87.6914 262.768 87.6838 262.773C87.6757 262.778 87.6641 262.785 87.6504 262.794L87.1318 261.938ZM87.1748 261.911L86.6629 261.052C86.6892 261.036 86.7132 261.023 86.7263 261.016C86.7431 261.006 86.7458 261.005 86.7489 261.003L87.249 261.869L87.7492 262.735C87.7276 262.748 87.7054 262.76 87.6974 262.764C87.6857 262.771 87.6848 262.771 87.6867 262.77L87.1748 261.911ZM87.249 261.869L87.7499 262.735C87.7153 262.755 87.6823 262.774 87.6506 262.793L87.1318 261.938L86.6131 261.084C86.659 261.056 86.7042 261.029 86.7481 261.004L87.249 261.869ZM87.415 261.776L86.941 260.896C86.9511 260.89 87.0057 260.86 87.0436 260.841L87.5039 261.729L87.9643 262.616C87.9424 262.628 87.9383 262.63 87.8891 262.657L87.415 261.776ZM87.5039 261.729L87.9657 262.616C87.9448 262.626 87.933 262.633 87.8905 262.656L87.415 261.776L86.9396 260.897C86.9563 260.888 87.0033 260.862 87.0421 260.842L87.5039 261.729ZM90.4795 261L90.4814 260C90.7569 260.001 91.0341 260.017 91.3121 260.048L91.1982 261.042L91.0844 262.035C90.88 262.012 90.6776 262 90.4776 262L90.4795 261ZM91.1982 261.042L91.1121 262.038L90.7507 262.007L90.8369 261.011L90.9231 260.014L91.2844 260.046L91.1982 261.042ZM90.8369 261.011L90.7791 262.009C90.6779 262.003 90.5773 262 90.4775 262L90.4795 261L90.4814 260C90.6189 260 90.7567 260.004 90.8947 260.012L90.8369 261.011Z" fill="black" mask="url(#path-6-inside-3_108_2961)"/>
<path d="M132.874 227.657L132.644 160.231C132.648 151.576 132.23 133.953 133.213 125.976L133.214 125.966C133.905 119.868 136.127 114.044 139.673 109.039L139.674 109.038C144.032 102.865 148.332 99.6239 153.223 97.5361C158.182 95.4189 163.749 94.476 170.804 92.9473L170.805 92.9482L198.498 87.0049L198.499 87.0039L252.587 75.3535C262.446 73.2294 273.57 70.5827 283.323 68.8711C288.119 68.2735 293.681 69.7667 297.427 72.7178C306.544 79.8994 306.574 91.4232 306.373 102.594C306.309 106.169 306.335 109.831 306.35 113.442L306.356 117.033L306.322 168.167L306.291 214.363V214.364C306.307 230.858 308.512 243.846 298.016 256.933C289.675 267.331 281.059 268.52 268.98 270.981L266.518 271.494L235.174 278.153H235.172L184.556 289H184.555C177.002 290.626 163.863 293.856 156.562 294.719C151.406 294.931 147.014 294.399 142.889 291.604L142.489 291.325C137.205 287.534 134.807 282.479 133.723 276.864C132.628 271.194 132.888 265.065 132.87 259.112L132.874 227.66V227.657Z" fill="white" stroke="black" stroke-width="2"/>
<path d="M19.9508 49.8793C24.7557 49.6169 28.4102 51.5637 32.6072 53.663L80.9882 78.4305C98.9747 87.6848 112.298 90.5667 119.11 111.355C120.647 115.981 121.586 120.78 121.904 125.642C122.418 133.477 122.145 143.535 122.143 151.475L122.107 197.87L122.034 244.715C122.026 253.588 122.178 262.606 121.815 271.459C121.474 279.777 118.879 287.187 110.312 289.873C103.732 290.182 97.8203 286.358 92.0965 283.41L75.5116 274.799L29.5169 250.911C23.5588 247.77 20.5041 245.475 16.6589 239.84C5.62786 223.681 7.63512 206.493 7.65499 187.855L7.73916 139.727L7.87632 92.6383C7.90344 87.4168 7.82998 82.1764 7.91543 76.9549C8.08727 66.4986 7.73633 53.4032 19.9508 49.8793Z" fill="white"/>
<path d="M20.1182 50.873C24.5572 50.6636 27.949 52.4512 32.1602 54.5576V54.5566L80.5303 79.3184V79.3193C85.036 81.6376 89.285 83.5744 93.1357 85.4541C97.0091 87.3449 100.518 89.196 103.668 91.3887C109.921 95.741 114.822 101.48 118.16 111.666L118.161 111.67C119.671 116.215 120.593 120.93 120.905 125.707H120.906C121.353 132.525 121.201 141.026 121.154 148.395L121.143 151.475L121.106 197.869L121.033 244.713V244.714C121.026 253.611 121.177 262.592 120.815 271.419C120.648 275.501 119.929 279.26 118.271 282.299C116.647 285.273 114.098 287.605 110.138 288.878C107.103 288.994 104.179 288.182 101.275 286.943C98.3029 285.676 95.4792 284.027 92.5537 282.521L75.9727 273.911L29.9775 250.023C27.0231 248.466 24.845 247.146 22.9385 245.545C21.0376 243.948 19.3718 242.041 17.4854 239.276H17.4844C6.67246 223.438 8.63516 206.656 8.65527 187.857L8.73926 139.729L8.87598 92.6436C8.90325 87.3909 8.82963 82.1912 8.91504 76.9717C9.00192 71.685 8.96288 65.9583 10.377 61.0967C11.7581 56.3482 14.4935 52.5347 20.1182 50.873Z" fill="white" stroke="black" stroke-width="2"/>
<path d="M31.492 190.426C48.5511 190.497 56.74 229.879 41.3718 234.313C25.0858 234.942 15.5103 195.606 31.492 190.426Z" fill="black"/>
<path d="M87.7445 105.176C105.108 104.278 113.614 142.603 98.5493 148.634C83.9336 150.99 71.6192 113.213 87.7445 105.176Z" fill="black"/>
<g filter="url(#filter0_d_108_2961)">
<path d="M173.871 1.13379C183.036 0.662839 192.24 1.38155 200.983 4.1123C205.807 5.61841 210.965 8.54031 215.724 10.9131L215.727 10.9141C223.974 14.996 232.189 19.1406 240.373 23.3467L240.38 23.3496L270.061 38.3193V38.3203C274.945 40.8023 280.198 43.1999 284.655 46.0762C287.041 47.6157 287.949 48.9435 288.154 49.9619C288.348 50.9257 287.965 51.9107 286.97 52.9414C285.971 53.9754 284.47 54.9237 282.788 55.7275C281.118 56.5256 279.333 57.1508 277.821 57.5625C270.645 59.5171 263.496 60.9227 256.247 62.4492L253.134 63.1133L206.714 73.1289H206.713L169.96 81.1025C160.801 83.0637 151.917 85.2579 142.703 85.9043H142.691L142.68 85.9053C134.912 86.6313 122.147 85.3436 114.922 82.9414H114.921C109.212 81.0461 100.867 76.4706 95.0723 73.5264L61.7451 56.5273L61.7412 56.5254L42.333 46.7236C38.8031 44.9412 34.9461 43.2306 31.7979 41.1514C29.4278 39.586 28.4781 38.212 28.2422 37.127C28.0177 36.0942 28.3875 35.0573 29.3516 33.9922C30.3239 32.918 31.8119 31.9267 33.5225 31.0859C35.2212 30.251 37.0765 29.5947 38.7256 29.165C46.3338 27.1833 54.0302 25.7115 61.791 24.0742L104.32 15.0898H104.322L143.843 6.65625H143.844C153.689 4.54311 164.02 2.04094 173.871 1.13379Z" fill="white" stroke="black" stroke-width="2"/>
<path d="M156.074 37.0771C158.981 36.9256 164.895 36.9127 170.271 37.8379C172.969 38.3021 175.467 38.992 177.37 39.9795C179.163 40.9097 180.293 42.03 180.703 43.3506L180.775 43.6172C180.943 44.3365 180.614 45.0865 179.356 45.9229C178.115 46.7488 176.252 47.4414 174.152 48.002C170.008 49.1085 165.301 49.6098 163.676 49.7656C160.313 49.9237 155.999 49.863 151.815 49.3066C147.602 48.7463 143.632 47.6978 140.886 45.9531C139.554 45.1069 138.949 44.3497 138.725 43.7627C138.52 43.2267 138.586 42.7151 138.914 42.1719C139.262 41.5954 139.9 41.0051 140.779 40.4648C141.648 39.931 142.692 39.4829 143.772 39.1631C148.31 37.8197 151.322 37.4235 156.074 37.0771Z" fill="black" stroke="black" stroke-width="2"/>
</g>
<path d="M257.974 219.614C257.555 218.761 256.789 217.442 255.633 216.337C253.896 214.677 251.261 215.375 249.329 216.803C230.817 230.489 220.36 231.122 205.931 224.317C203.109 222.986 199.436 222.965 197.757 225.595C197.333 226.259 197.033 226.938 196.823 227.668C196.148 230.017 197.443 232.457 199.476 233.814C224.142 250.29 256.555 229.932 258.303 221.458C258.434 220.827 258.259 220.192 257.974 219.614Z" fill="black"/>
<path d="M188.912 167.195C179.183 155.999 172.135 156.614 161.153 167.93C159.18 169.963 156.099 170.536 153.611 169.18C150.169 167.302 149.375 162.679 152.175 159.932C168.961 143.465 182.412 141.793 198.139 160.299C200.257 162.792 199.617 166.537 196.917 168.384C194.371 170.126 190.935 169.523 188.912 167.195Z" fill="black"/>
<ellipse cx="273.863" cy="154" rx="16.5" ry="24" fill="black"/>
<path d="M215.92 165C215.92 189.853 195.773 210 170.92 210C146.068 210 125.92 189.853 125.92 165C125.92 140.147 146.068 120 170.92 120C195.773 120 215.92 140.147 215.92 165Z" fill="#064D46" fill-opacity="0.4"/>
<path d="M225.92 165C225.92 195.376 201.296 220 170.92 220C140.545 220 115.92 195.376 115.92 165C115.92 134.624 140.545 110 170.92 110C201.296 110 225.92 134.624 225.92 165ZM128.323 165C128.323 188.526 147.394 207.597 170.92 207.597C194.446 207.597 213.518 188.526 213.518 165C213.518 141.474 194.446 122.403 170.92 122.403C147.394 122.403 128.323 141.474 128.323 165Z" fill="white"/>
<path d="M127.43 206.136L79.6695 276.72C77.3212 280.191 78.2252 284.907 81.6903 287.264C85.1398 289.609 89.8352 288.736 92.2107 285.307L140.743 215.251C143.313 211.542 142.341 206.447 138.587 203.944C134.898 201.485 129.915 202.464 127.43 206.136Z" fill="white"/>
<path d="M215.92 165C215.92 189.853 195.773 210 170.92 210C146.068 210 125.92 189.853 125.92 165C125.92 140.147 146.068 120 170.92 120C195.773 120 215.92 140.147 215.92 165Z" stroke="black"/>
<path d="M225.92 165C225.92 195.376 201.296 220 170.92 220C140.545 220 115.92 195.376 115.92 165C115.92 134.624 140.545 110 170.92 110C201.296 110 225.92 134.624 225.92 165ZM128.323 165C128.323 188.526 147.394 207.597 170.92 207.597C194.446 207.597 213.518 188.526 213.518 165C213.518 141.474 194.446 122.403 170.92 122.403C147.394 122.403 128.323 141.474 128.323 165Z" stroke="black"/>
<path d="M127.43 206.136L79.6695 276.72C77.3212 280.191 78.2252 284.907 81.6903 287.264C85.1398 289.609 89.8352 288.736 92.2107 285.307L140.743 215.251C143.313 211.542 142.341 206.447 138.587 203.944C134.898 201.485 129.915 202.464 127.43 206.136Z" stroke="black"/>
<path d="M236.68 162.712C243.741 186.602 268.713 200.279 292.457 193.261C316.2 186.243 329.724 161.187 322.663 137.298C315.602 113.408 290.63 99.7309 266.886 106.749C243.142 113.767 229.619 138.822 236.68 162.712Z" fill="#064D46" fill-opacity="0.4"/>
<path d="M227.126 165.536C235.756 194.734 266.278 211.451 295.298 202.873C324.318 194.296 340.847 163.672 332.216 134.474C323.586 105.275 293.065 88.5589 264.045 97.1364C235.025 105.714 218.496 136.337 227.126 165.536ZM320.368 137.976C327.052 160.59 314.25 184.308 291.774 190.951C269.298 197.595 245.659 184.648 238.975 162.034C232.291 139.419 245.093 115.702 267.569 109.058C290.044 102.415 313.683 115.362 320.368 137.976Z" fill="white"/>
<path d="M332.908 177.266L398.591 231.628C401.821 234.301 402.297 239.09 399.656 242.333C397.027 245.562 392.293 246.048 389.049 243.423L322.779 189.787C319.27 186.947 318.751 181.775 321.626 178.31C324.452 174.904 329.491 174.437 332.908 177.266Z" fill="white"/>
<path d="M236.68 162.712C243.741 186.602 268.713 200.279 292.457 193.261C316.2 186.243 329.724 161.187 322.663 137.298C315.602 113.408 290.63 99.7309 266.886 106.749C243.142 113.767 229.619 138.822 236.68 162.712Z" stroke="black"/>
<path d="M227.126 165.536C235.756 194.734 266.278 211.451 295.298 202.873C324.318 194.296 340.847 163.672 332.216 134.474C323.586 105.275 293.065 88.5589 264.045 97.1364C235.025 105.714 218.496 136.337 227.126 165.536ZM320.368 137.976C327.052 160.59 314.25 184.308 291.774 190.951C269.298 197.595 245.659 184.648 238.975 162.034C232.291 139.419 245.093 115.702 267.569 109.058C290.044 102.415 313.683 115.362 320.368 137.976Z" stroke="black"/>
<path d="M332.908 177.266L398.591 231.628C401.821 234.301 402.297 239.09 399.656 242.333C397.027 245.562 392.293 246.048 389.049 243.423L322.779 189.787C319.27 186.947 318.751 181.775 321.626 178.31C324.452 174.904 329.491 174.437 332.908 177.266Z" stroke="black"/>
<mask id="path-20-outside-4_108_2961" maskUnits="userSpaceOnUse" x="-1" y="160.367" width="128" height="118" fill="black">
<rect fill="white" x="-1" y="160.367" width="128" height="118"/>
<path d="M56.7217 163.897C60.3332 160.289 66.2565 160.588 69.5352 164.491C72.4201 167.926 72.2245 172.998 69.1553 176.255C53.7309 192.625 42.0161 206.22 34.2881 217.198C30.4243 222.687 27.566 227.509 25.7393 231.687C23.9101 235.87 23.1323 239.369 23.3789 242.225C23.6233 245.054 24.8746 247.283 27.1885 248.964C29.5239 250.66 32.9672 251.816 37.6064 252.407C46.3048 253.516 59.0316 252.623 76.0586 249.827C77.0447 236.923 87.8283 226.759 100.985 226.759C114.792 226.759 125.985 237.952 125.985 251.759C125.985 265.566 114.792 276.759 100.985 276.759C93.1182 276.759 86.1012 273.123 81.5186 267.442C54.3076 272.585 34.6931 273.235 21.6436 270.194C14.9841 268.642 9.99928 266.122 6.59375 262.715C3.18018 259.3 1.38574 255.027 1.05566 250.044C0.39859 240.121 5.54386 227.373 15.1875 212.759C24.8459 198.123 39.0748 181.53 56.7217 163.897Z"/>
</mask>
<path d="M56.7217 163.897C60.3332 160.289 66.2565 160.588 69.5352 164.491C72.4201 167.926 72.2245 172.998 69.1553 176.255C53.7309 192.625 42.0161 206.22 34.2881 217.198C30.4243 222.687 27.566 227.509 25.7393 231.687C23.9101 235.87 23.1323 239.369 23.3789 242.225C23.6233 245.054 24.8746 247.283 27.1885 248.964C29.5239 250.66 32.9672 251.816 37.6064 252.407C46.3048 253.516 59.0316 252.623 76.0586 249.827C77.0447 236.923 87.8283 226.759 100.985 226.759C114.792 226.759 125.985 237.952 125.985 251.759C125.985 265.566 114.792 276.759 100.985 276.759C93.1182 276.759 86.1012 273.123 81.5186 267.442C54.3076 272.585 34.6931 273.235 21.6436 270.194C14.9841 268.642 9.99928 266.122 6.59375 262.715C3.18018 259.3 1.38574 255.027 1.05566 250.044C0.39859 240.121 5.54386 227.373 15.1875 212.759C24.8459 198.123 39.0748 181.53 56.7217 163.897Z" fill="white"/>
<path d="M56.7217 163.897L56.0149 163.19L56.0149 163.19L56.7217 163.897ZM69.5352 164.491L70.3009 163.848L70.3009 163.848L69.5352 164.491ZM69.1553 176.255L69.8831 176.941V176.941L69.1553 176.255ZM34.2881 217.198L33.4704 216.623L33.4704 216.623L34.2881 217.198ZM25.7393 231.687L24.823 231.286L24.823 231.286L25.7393 231.687ZM23.3789 242.225L22.3826 242.311L22.3826 242.311L23.3789 242.225ZM27.1885 248.964L26.6008 249.773L26.6008 249.773L27.1885 248.964ZM37.6064 252.407L37.4799 253.399H37.4799L37.6064 252.407ZM76.0586 249.827L76.2206 250.814L76.9958 250.687L77.0557 249.903L76.0586 249.827ZM100.985 226.759L100.985 225.759H100.985L100.985 226.759ZM125.985 251.759L126.985 251.759V251.759L125.985 251.759ZM100.985 276.759L100.985 277.759H100.985L100.985 276.759ZM81.5186 267.442L82.2969 266.815L81.921 266.349L81.3328 266.46L81.5186 267.442ZM21.6436 270.194L21.4166 271.168L21.4166 271.168L21.6436 270.194ZM6.59375 262.715L5.88652 263.422L5.88652 263.422L6.59375 262.715ZM1.05566 250.044L0.0578494 250.11L0.0578508 250.11L1.05566 250.044ZM15.1875 212.759L14.3529 212.208L14.3528 212.208L15.1875 212.759ZM56.7217 163.897L57.4285 164.605C60.6196 161.417 65.8628 161.674 68.7695 165.134L69.5352 164.491L70.3009 163.848C66.6502 159.502 60.0468 159.162 56.0149 163.19L56.7217 163.897ZM69.5352 164.491L68.7694 165.134C71.3216 168.173 71.1557 172.674 68.4275 175.569L69.1553 176.255L69.8831 176.941C73.2933 173.321 73.5185 167.679 70.3009 163.848L69.5352 164.491ZM69.1553 176.255L68.4275 175.569C52.9942 191.948 41.2402 205.585 33.4704 216.623L34.2881 217.198L35.1058 217.774C42.792 206.855 54.4675 193.301 69.8831 176.941L69.1553 176.255ZM34.2881 217.198L33.4704 216.623C29.5857 222.141 26.6867 227.024 24.823 231.286L25.7393 231.687L26.6555 232.087C28.4453 227.994 31.263 223.233 35.1058 217.774L34.2881 217.198ZM25.7393 231.687L24.823 231.286C22.9618 235.542 22.1157 239.219 22.3826 242.311L23.3789 242.225L24.3752 242.139C24.1489 239.518 24.8584 236.197 26.6555 232.087L25.7393 231.687ZM23.3789 242.225L22.3826 242.311C22.6519 245.428 24.0517 247.921 26.6008 249.773L27.1885 248.964L27.7762 248.155C25.6976 246.645 24.5947 244.68 24.3752 242.139L23.3789 242.225ZM27.1885 248.964L26.6008 249.773C29.1286 251.609 32.7608 252.797 37.4799 253.399L37.6064 252.407L37.7329 251.415C33.1737 250.834 29.9191 249.711 27.7762 248.155L27.1885 248.964ZM37.6064 252.407L37.4799 253.399C46.3294 254.528 59.1757 253.613 76.2206 250.814L76.0586 249.827L75.8966 248.84C58.8874 251.633 46.2802 252.505 37.7329 251.415L37.6064 252.407ZM76.0586 249.827L77.0557 249.903C78.0023 237.516 88.355 227.759 100.985 227.759L100.985 226.759L100.985 225.759C87.3016 225.759 76.0871 236.329 75.0615 249.751L76.0586 249.827ZM100.985 226.759L100.985 227.759C114.24 227.759 124.985 238.504 124.985 251.759L125.985 251.759L126.985 251.759C126.985 237.4 115.344 225.759 100.985 225.759L100.985 226.759ZM125.985 251.759L124.985 251.759C124.985 265.013 114.24 275.759 100.985 275.759L100.985 276.759L100.985 277.759C115.345 277.759 126.985 266.118 126.985 251.759L125.985 251.759ZM100.985 276.759L100.985 275.759C93.4335 275.759 86.698 272.27 82.2969 266.815L81.5186 267.442L80.7402 268.07C85.5045 273.976 92.8029 277.759 100.985 277.759L100.985 276.759ZM81.5186 267.442L81.3328 266.46C54.1602 271.596 34.7127 272.213 21.8705 269.22L21.6436 270.194L21.4166 271.168C34.6734 274.258 54.4551 273.575 81.7043 268.425L81.5186 267.442ZM21.6436 270.194L21.8705 269.22C15.3285 267.696 10.5344 265.242 7.30098 262.008L6.59375 262.715L5.88652 263.422C9.46413 267.001 14.6397 269.589 21.4166 271.168L21.6436 270.194ZM6.59375 262.715L7.30098 262.008C4.07571 258.781 2.36921 254.744 2.05348 249.978L1.05566 250.044L0.0578508 250.11C0.402284 255.31 2.28466 259.819 5.88652 263.422L6.59375 262.715ZM1.05566 250.044L2.05348 249.978C1.41932 240.401 6.40068 227.89 16.0222 213.31L15.1875 212.759L14.3528 212.208C4.68705 226.856 -0.622139 239.841 0.0578494 250.11L1.05566 250.044ZM15.1875 212.759L16.0221 213.31C25.6294 198.751 39.8074 182.212 57.4285 164.605L56.7217 163.897L56.0149 163.19C38.3422 180.848 24.0624 197.494 14.3529 212.208L15.1875 212.759Z" fill="black" mask="url(#path-20-outside-4_108_2961)"/>
<defs>
<filter id="filter0_d_108_2961" x="23.1777" y="0" width="270.025" height="95.1094" filterUnits="userSpaceOnUse" color-interpolation-filters="sRGB">
<feFlood flood-opacity="0" result="BackgroundImageFix"/>
<feColorMatrix in="SourceAlpha" type="matrix" values="0 0 0 0 0 0 0 0 0 0 0 0 0 0 0 0 0 0 127 0" result="hardAlpha"/>
<feOffset dy="4"/>
<feGaussianBlur stdDeviation="2"/>
<feComposite in2="hardAlpha" operator="out"/>
<feColorMatrix type="matrix" values="0 0 0 0 0 0 0 0 0 0 0 0 0 0 0 0 0 0 0.25 0"/>
<feBlend mode="normal" in2="BackgroundImageFix" result="effect1_dropShadow_108_2961"/>
<feBlend mode="normal" in="SourceGraphic" in2="effect1_dropShadow_108_2961" result="shape"/>
</filter>
</defs>
</svg>
